SplineFontDB: 2.0
FontName: Umpush
FullName: Umpush
FamilyName: Umpush
Weight: Book
Copyright: Copyright (c) 2003 NECTEC. All rights reserved.\nCopyright (c) 2007 Widhaya Trisarnwadhana. All rights reserved.\nModified under GNU General Public License by TLWG.
Version: 0.9.7: 2007-04-13
ItalicAngle: 0
UnderlinePosition: -170
UnderlineWidth: 20
Ascent: 1638
Descent: 410
Order2: 1
NeedsXUIDChange: 1
FSType: 0
OS2Version: 0
OS2_WeightWidthSlopeOnly: 0
OS2_UseTypoMetrics: 0
CreationTime: 1153662374
ModificationTime: 1199604157
PfmFamily: 33
TTFWeight: 400
TTFWidth: 5
LineGap: 0
VLineGap: 0
Panose: 2 11 5 4 2 2 2 2 2 4
OS2TypoAscent: 0
OS2TypoAOffset: 1
OS2TypoDescent: 0
OS2TypoDOffset: 1
OS2TypoLinegap: 0
OS2WinAscent: 0
OS2WinAOffset: 1
OS2WinDescent: 0
OS2WinDOffset: 1
HheadAscent: 0
HheadAOffset: 1
HheadDescent: 0
HheadDOffset: 1
OS2SubXSize: 19968
OS2SubYSize: 28
OS2SubXOff: -32593
OS2SubYOff: 21140
OS2SupXSize: 21132
OS2SupYSize: -4232
OS2SupXOff: 21252
OS2SupYOff: 269
OS2StrikeYSize: -11832
OS2StrikeYPos: 90
OS2Vendor: 'PfEd'
Lookup: 6 0 0 "'ccmp' Glyph Composition/Decomposition in Thai lookup 0"  {"'ccmp' Glyph Composition/Decomposition in Thai lookup 0"  } ['ccmp' ('thai' <'KUY ' 'PAL ' 'THA ' 'dflt' > ) ]
Lookup: 6 0 0 "'ccmp' Glyph Composition/Decomposition in Thai lookup 1"  {"'ccmp' Glyph Composition/Decomposition in Thai lookup 1"  } ['ccmp' ('thai' <'KUY ' 'PAL ' 'THA ' 'dflt' > ) ]
Lookup: 5 0 0 "Required Feature in Thai lookup 2"  {"Required Feature in Thai lookup 2"  } [' RQD' ('thai' <'PAL ' > ) ]
Lookup: 1 0 0 "Single Substitution lookup 3"  {"Single Substitution lookup 3"  } []
Lookup: 2 0 0 "Multiple Substitution lookup 4"  {"Multiple Substitution lookup 4"  } []
Lookup: 1 0 0 "Single Substitution lookup 5"  {"Single Substitution lookup 5"  } []
Lookup: 2 0 0 "Multiple Substitution lookup 6"  {"Multiple Substitution lookup 6"  } []
Lookup: 1 0 0 "Single Substitution lookup 7"  {"Single Substitution lookup 7"  } []

StartChar: .notdef
Encoding: 65536 -1 0
Width: 1536
Flags: W
HStem: 0 32<288 1248> 1248 32<288 1248>
VStem: 256 32<32 1248> 1248 32<32 1248>
Fore
256 0 m 1,0,-1
 256 1280 l 1,1,-1
 1280 1280 l 1,2,-1
 1280 0 l 1,3,-1
 256 0 l 1,0,-1
288 32 m 1,4,-1
 1248 32 l 1,5,-1
 1248 1248 l 1,6,-1
 288 1248 l 1,7,-1
 288 32 l 1,4,-1
EndSplineSet
EndChar
StartChar: uni0E4D.high
Encoding: 63262 63262 2
Width: 0
VWidth: 2558
Flags: W
HStem: 1725 72<-301.35 -224.65> 1953 74<-305.062 -223.163>
VStem: -412 69<1836.95 1913.32> -183 70<1838.74 1915.28>
AnchorPoint: "AboveMark" -261.728 1739.3 mark 0
Fore
-261 2027 m 0,0,-1
 -199.5 2027 -199.5 2027 -156 1982 c 0,3,-1
 -113 1938 -113 1938 -113 1874 c 0,6,-1
 -113 1813 -113 1813 -157 1769 c 0,9,-1
 -203 1725 -203 1725 -261 1725 c 0,12,-1
 -321 1725 -321 1725 -367 1769 c 0,15,-1
 -412 1811 -412 1811 -412 1874 c 0,18,-1
 -412 1936 -412 1936 -367 1982 c 0,21,-1
 -324 2027 -324 2027 -261 2027 c 0,0,-1
-263 1797 m 0,24,-1
 -232 1797 -232 1797 -207 1822 c 0,27,-1
 -183 1846 -183 1846 -183 1874 c 0,30,-1
 -183 1909 -183 1909 -206 1930 c 0,33,-1
 -231 1953 -231 1953 -262 1953 c 0,36,-1
 -299 1953 -299 1953 -320 1930 c 0,39,-1
 -343 1905 -343 1905 -343 1874 c 0,42,-1
 -343 1844 -343 1844 -319 1820 c 0,45,-1
 -293 1797 -293 1797 -263 1797 c 0,24,-1
EndSplineSet
EndChar
StartChar: exclam
Encoding: 33 33 5
Width: 569
Flags: W
HStem: 0 194<206 370> 1430 20G<198 378>
VStem: 198 180<910.471 1450> 206 164<0 194>
Fore
198 999 m 1,0,-1
 198 1450 l 1,1,-1
 378 1450 l 1,2,-1
 378 999 l 1,3,-1
 335 365 l 1,4,-1
 242 365 l 1,5,-1
 198 999 l 1,0,-1
206 194 m 1,6,-1
 370 194 l 1,7,-1
 370 0 l 1,8,-1
 206 0 l 1,9,-1
 206 194 l 1,6,-1
EndSplineSet
EndChar
StartChar: quotedbl
Encoding: 34 34 6
Width: 727
Flags: W
HStem: 1430 20G<106 286 439 619>
VStem: 106 180<1183.82 1450> 439 180<1182.44 1450>
Fore
156 947 m 1,0,-1
 106 1217 l 1,1,-1
 106 1450 l 1,2,-1
 286 1450 l 1,3,-1
 286 1217 l 1,4,-1
 241 947 l 1,5,-1
 156 947 l 1,0,-1
487 947 m 1,6,-1
 439 1217 l 1,7,-1
 439 1450 l 1,8,-1
 619 1450 l 1,9,-1
 619 1217 l 1,10,-1
 572 947 l 1,11,-1
 487 947 l 1,6,-1
EndSplineSet
EndChar
StartChar: numbersign
Encoding: 35 35 7
Width: 1139
Flags: W
HStem: -10 21G<87 267 546 725> 385 180<21 174 384 632 842 1113> 895 180<21 278 488 737 947 1113> 1450 20G<395 575 854 1034>
Fore
87 -10 m 1,0,-1
 174 385 l 1,1,-1
 21 385 l 1,2,-1
 21 565 l 1,3,-1
 204 565 l 1,4,-1
 278 895 l 1,5,-1
 21 895 l 1,6,-1
 21 1075 l 1,7,-1
 308 1075 l 1,8,-1
 395 1470 l 1,9,-1
 575 1470 l 1,10,-1
 488 1075 l 1,11,-1
 767 1075 l 1,12,-1
 854 1470 l 1,13,-1
 1034 1470 l 1,14,-1
 947 1075 l 1,15,-1
 1113 1075 l 1,16,-1
 1113 895 l 1,17,-1
 917 895 l 1,18,-1
 842 565 l 1,19,-1
 1113 565 l 1,20,-1
 1113 385 l 1,21,-1
 812 385 l 1,22,-1
 725 -10 l 1,23,-1
 546 -10 l 1,24,-1
 632 385 l 1,25,-1
 354 385 l 1,26,-1
 267 -10 l 1,27,-1
 87 -10 l 1,0,-1
384 565 m 1,28,-1
 662 565 l 1,29,-1
 737 895 l 1,30,-1
 458 895 l 1,31,-1
 384 565 l 1,28,-1
EndSplineSet
EndChar
StartChar: dollar
Encoding: 36 36 8
Width: 1139
Flags: W
VStem: 106 180<969.9 1118.1> 491 143<-118 -17 123 629 810 1269 1409 1488> 858 184<309.693 464>
Fore
491 -17 m 1,0,-1
 382 -4 382 -4 292 40 c 0,3,-1
 207 81 207 81 146 169 c 2,6,-1
 140 178 l 2,7,-1
 87 260 87 260 76 367 c 2,10,-1
 76 417 l 1,11,-1
 255 417 l 1,12,-1
 274 288 274 288 329 221 c 0,15,-1
 355 193 355 193 363 185 c 0,18,-1
 420 128 420 128 491 123 c 1,21,-1
 491 651 l 1,22,-1
 487 652 487 652 481 653.5 c 0,25,-1
 475 655 475 655 472 655 c 1,28,-1
 399 671 399 671 284 731 c 0,31,-1
 198.5 774.5 198.5 774.5 152 851 c 0,34,-1
 106 928 106 928 106 1031 c 0,37,-1
 106 1206 106 1206 241 1318 c 0,40,-1
 242 1319 242 1319 246 1321.5 c 0,43,-1
 250 1324 250 1324 252 1326 c 0,46,-1
 343 1394 343 1394 491 1409 c 1,49,-1
 491 1488 l 1,50,-1
 634 1488 l 1,51,-1
 634 1409 l 1,52,-1
 648 1408 l 2,53,-1
 773 1395 773 1395 864 1323 c 0,56,-1
 886 1306 886 1306 902 1290 c 0,59,-1
 989 1202 989 1202 1005 1094 c 2,62,-1
 1008 1050 l 1,63,-1
 833 1050 l 1,64,-1
 822.5 1129.5 822.5 1129.5 755 1200 c 2,67,-1
 745 1211 l 2,68,-1
 699 1257 699 1257 634 1269 c 1,71,-1
 634 790 l 1,72,-1
 635 789 l 1,73,-1
 730 762 l 2,74,-1
 777 749 777 749 797 741 c 0,77,-1
 919 692 919 692 981 604 c 0,80,-1
 1042 516 1042 516 1042 397 c 0,83,-1
 1042 223 1042 223 924 108 c 0,86,-1
 912 96 912 96 899 86 c 0,89,-1
 789 -6 789 -6 634 -15 c 1,92,-1
 634 -118 l 1,93,-1
 491 -118 l 1,94,-1
 491 -17 l 1,0,-1
491 1271 m 1,95,-1
 475 1269 475 1269 452 1263 c 0,98,-1
 397 1246 397 1246 347 1192 c 0,101,-1
 286 1130 286 1130 286 1044 c 0,104,-1
 286 959 286 959 337 902 c 2,107,-1
 338 900 338 900 341 897 c 0,110,-1
 344 894 344 894 345 893 c 0,113,-1
 399 836 399 836 491 810 c 1,116,-1
 491 1271 l 1,95,-1
641 124 m 2,117,-1
 666 128 666 128 714 151 c 0,120,-1
 758 172 758 172 790 207 c 0,123,-1
 819 239 819 239 840 287 c 0,126,-1
 858 333.5 858 333.5 858 386 c 0,129,-1
 858 476 858 476 809 531 c 0,132,-1
 756 593 756 593 634 629 c 1,135,-1
 634 123 l 1,136,-1
 641 124 l 2,117,-1
EndSplineSet
EndChar
StartChar: percent
Encoding: 37 37 9
Width: 1821
Flags: W
HStem: -53 123<1324.1 1441.1> 598 123<1317.6 1438.5> 717 123<376.1 490.5> 1366 125<370.9 490.5>
VStem: 119 157<972.5 1224.7> 590 155<976.1 1232.2> 1067 158<205.1 456.414> 1538 158<206.1 462.2>
Fore
119 1114 m 0,0,-1
 119 1272 119 1272 197 1380 c 0,3,-1
 276 1491 276 1491 426 1491 c 0,6,-1
 570 1491 570 1491 655 1392 c 0,9,-1
 745 1288.5 745 1288.5 745 1104 c 0,12,-1
 744 928 744 928 654 817 c 0,15,-1
 569 717 569 717 428 717 c 0,18,-1
 292 717 292 717 208 815 c 0,21,-1
 119 919 119 919 119 1114 c 0,0,-1
432 1366 m 0,24,-1
 360 1366 360 1366 320 1308 c 0,27,-1
 276 1244 276 1244 276 1096 c 0,30,-1
 276 953 276 953 322 897 c 0,33,-1
 367 840 367 840 432 840 c 0,36,-1
 500 840 500 840 545 898 c 0,39,-1
 590 956 590 956 590 1110 c 0,42,-1
 590 1251 590 1251 545 1308 c 0,45,-1
 500 1366 500 1366 432 1366 c 0,24,-1
1217 1491 m 1,48,-1
 1397 1491 l 1,49,-1
 638 -10 l 1,50,-1
 458 -10 l 1,51,-1
 1217 1491 l 1,48,-1
1067 344 m 0,52,-1
 1067 502 1067 502 1145 610 c 0,55,-1
 1224.5 721 1224.5 721 1376 721 c 0,58,-1
 1518.5 721 1518.5 721 1604 622 c 0,61,-1
 1696 516 1696 516 1696 334 c 0,64,-1
 1696 153 1696 153 1604 47 c 0,67,-1
 1516 -53 1516 -53 1376 -53 c 0,70,-1
 1236 -53 1236 -53 1155 46 c 0,73,-1
 1067 152 1067 152 1067 344 c 0,52,-1
1380 598 m 0,76,-1
 1308 598 1308 598 1268 540 c 0,79,-1
 1225 476 1225 476 1225 326 c 0,82,-1
 1225 186.5 1225 186.5 1270 128 c 0,85,-1
 1315 70 1315 70 1380 70 c 0,88,-1
 1451 70 1451 70 1494 128 c 0,91,-1
 1538 187 1538 187 1538 340 c 0,94,-1
 1538 480 1538 480 1493 540 c 0,97,-1
 1447 598 1447 598 1380 598 c 0,76,-1
EndSplineSet
EndChar
StartChar: ampersand
Encoding: 38 38 10
Width: 1366
Flags: W
HStem: -25 158<441.9 627.977> 1343 148<564.6 688.1>
VStem: 88 195<336.7 479.878> 272 185<1120.9 1240.5> 793 184<1108.45 1237.7>
Fore
973 172 m 1,0,-1
 797 -25 797 -25 553 -25 c 0,3,-1
 329 -25 329 -25 195 127 c 0,6,-1
 88 252 88 252 88 403 c 0,9,-1
 88 678 88 678 436 842 c 1,12,-1
 392 893 392 893 356 944 c 0,15,-1
 324 990 324 990 306 1027 c 0,18,-1
 286 1066 286 1066 280 1098 c 0,21,-1
 272 1126 272 1126 272 1163 c 0,24,-1
 272 1296 272 1296 375 1393 c 0,27,-1
 479 1491 479 1491 637 1491 c 0,30,-1
 783 1491 783 1491 880 1399 c 0,33,-1
 977 1308 977 1308 977 1178 c 0,36,-1
 977 969 977 969 700 821 c 1,39,-1
 963 485 l 1,40,-1
 1008 570 1008 570 1032 690 c 1,43,-1
 1221 649 l 1,44,-1
 1172 460 1172 460 1090 334 c 1,47,-1
 1191 203 1191 203 1319 109 c 1,50,-1
 1198 -35 l 1,51,-1
 1090 37 1090 37 973 172 c 1,0,-1
606 938 m 1,54,-1
 723 1004 723 1004 758 1057 c 0,57,-1
 793 1110 793 1110 793 1174 c 0,60,-1
 793 1246 793 1246 746 1295 c 0,63,-1
 698 1343 698 1343 627 1343 c 0,66,-1
 556 1343 556 1343 506 1296 c 0,69,-1
 457 1250 457 1250 457 1182 c 0,72,-1
 457 1112 457 1112 526 1030 c 2,75,-1
 606 938 l 1,54,-1
530 725 m 1,76,-1
 385 637 385 637 334 562 c 0,79,-1
 283 487 283 487 283 416 c 0,82,-1
 283 324 283 324 352 229 c 0,85,-1
 424 133 424 133 555 133 c 0,88,-1
 596 133 596 133 638 146 c 0,91,-1
 682 160 682 160 723 184 c 0,94,-1
 767 212 767 212 800 242 c 0,97,-1
 835 272 835 272 860 315 c 1,100,-1
 530 725 l 1,76,-1
EndSplineSet
EndChar
StartChar: quotesingle
Encoding: 39 39 11
Width: 391
Flags: W
HStem: 1446 20G<90 295>
VStem: 90 205<1185.93 1466>
Fore
136 947 m 1,0,-1
 90 1221 l 1,1,-1
 90 1466 l 1,2,-1
 295 1466 l 1,3,-1
 295 1221 l 1,4,-1
 247 947 l 1,5,-1
 136 947 l 1,0,-1
EndSplineSet
EndChar
StartChar: parenleft
Encoding: 40 40 12
Width: 682
Flags: W
VStem: 124 185<360.7 835.372>
Fore
479 -431 m 1,0,-1
 275 -173 275 -173 184 135 c 0,3,-1
 124 334.5 124 334.5 124 531 c 0,6,-1
 124 894 124 894 295 1209 c 0,9,-1
 365 1339 365 1339 479 1491 c 1,12,-1
 608 1491 l 1,13,-1
 472 1258 472 1258 418 1130 c 0,16,-1
 321 901 321 901 311 622 c 0,19,-1
 309 562 309 562 309 530 c 0,22,-1
 309 50 309 50 608 -431 c 1,25,-1
 479 -431 l 1,0,-1
EndSplineSet
EndChar
StartChar: parenright
Encoding: 41 41 13
Width: 682
Flags: W
VStem: 423 185<208.6 759.8>
Fore
253 -431 m 1,0,-1
 124 -431 l 1,1,-1
 423 50 423 50 423 530 c 0,4,-1
 423 849 423 849 326 1097 c 0,7,-1
 271 1239 271 1239 133 1475 c 2,10,-1
 124 1491 l 1,11,-1
 253 1491 l 1,12,-1
 444 1236 444 1236 523 1022 c 0,15,-1
 608 797 608 797 608 531 c 0,18,-1
 608 158 608 158 401 -209 c 0,21,-1
 332 -330 332 -330 253 -431 c 1,0,-1
EndSplineSet
EndChar
StartChar: asterisk
Encoding: 42 42 14
Width: 797
Flags: W
HStem: 867 624<321 528>
VStem: 321 145<1365.81 1491>
Fore
64 1197 m 1,0,-1
 110 1339 l 1,1,-1
 264 1285 264 1285 341 1242 c 1,4,-1
 323 1412 323 1412 321 1491 c 1,7,-1
 466 1491 l 1,8,-1
 463 1396 463 1396 443 1243 c 1,11,-1
 548 1296 548 1296 679 1339 c 1,14,-1
 725 1197 l 1,15,-1
 595 1154 595 1154 476 1141 c 1,18,-1
 536 1090 536 1090 648 952 c 1,21,-1
 528 867 l 1,22,-1
 472 944 472 944 391 1082 c 1,25,-1
 319 944 319 944 261 867 c 1,28,-1
 143 952 l 1,29,-1
 255 1091 255 1091 309 1141 c 1,32,-1
 165 1169 165 1169 64 1197 c 1,0,-1
EndSplineSet
EndChar
StartChar: plus
Encoding: 43 43 15
Width: 1196
Flags: W
HStem: 639 168<114 513 683 1082>
VStem: 513 170<237 639 807 1206>
Fore
513 237 m 1,0,-1
 513 639 l 1,1,-1
 114 639 l 1,2,-1
 114 807 l 1,3,-1
 513 807 l 1,4,-1
 513 1206 l 1,5,-1
 683 1206 l 1,6,-1
 683 807 l 1,7,-1
 1082 807 l 1,8,-1
 1082 639 l 1,9,-1
 683 639 l 1,10,-1
 683 237 l 1,11,-1
 513 237 l 1,0,-1
EndSplineSet
EndChar
StartChar: comma
Encoding: 44 44 16
Width: 569
Flags: W
HStem: -20 20G<182 284>
VStem: 182 205<0 205> 284 103<-84.1583 0>
Fore
182 0 m 1,0,-1
 182 205 l 1,1,-1
 387 205 l 1,2,-1
 387 0 l 2,3,-1
 387 -114 387 -114 347 -182 c 0,6,-1
 306 -253 306 -253 220 -290 c 1,9,-1
 170 -213 l 1,10,-1
 227 -187 227 -187 254 -140 c 0,13,-1
 281 -90 281 -90 284 0 c 1,16,-1
 182 0 l 1,0,-1
EndSplineSet
EndChar
StartChar: hyphen
Encoding: 45 45 17
Width: 682
Flags: W
HStem: 440 181<65 618>
Fore
65 440 m 1,0,-1
 65 621 l 1,1,-1
 618 621 l 1,2,-1
 618 440 l 1,3,-1
 65 440 l 1,0,-1
EndSplineSet
EndChar
StartChar: period
Encoding: 46 46 18
Width: 569
Flags: W
HStem: 0 205<186 391>
VStem: 186 205<0 205>
Fore
186 0 m 1,0,-1
 186 205 l 1,1,-1
 391 205 l 1,2,-1
 391 0 l 1,3,-1
 186 0 l 1,0,-1
EndSplineSet
EndChar
StartChar: slash
Encoding: 47 47 19
Width: 595
Flags: W
HStem: -10 21G<-81 102> 1450 20G<506 688>
VStem: -81 769<-10 1470>
Fore
-81 -10 m 1,0,-1
 506 1470 l 1,1,-1
 688 1470 l 1,2,-1
 102 -10 l 1,3,-1
 -81 -10 l 1,0,-1
EndSplineSet
EndChar
StartChar: zero
Encoding: 48 48 20
Width: 1139
Flags: W
HStem: -10 150<462.461 769.669> 1309 150<463.5 817.1>
VStem: 86 184<519.464 940.1> 856 184<485.1 1231.3>
Fore
86 723 m 0,0,-1
 86 974 86 974 135 1133 c 0,3,-1
 236 1459 236 1459 563 1459 c 0,6,-1
 1040 1459 1040 1459 1040 723 c 0,9,-1
 1040 447 1040 447 979 285 c 0,12,-1
 873 2 873 2 563 -10 c 0,15,-1
 469 -10 469 -10 391 19 c 0,18,-1
 86 133 86 133 86 723 c 0,0,-1
270 723 m 0,21,-1
 270 627 270 627 277 557 c 0,24,-1
 313 140 313 140 563 140 c 0,27,-1
 856 142 856 142 856 723 c 0,30,-1
 856 1309 856 1309 561 1309 c 0,33,-1
 448 1309 448 1309 380 1231 c 0,36,-1
 270 1101 270 1101 270 723 c 0,21,-1
EndSplineSet
EndChar
StartChar: one
Encoding: 49 49 21
Width: 1139
Flags: W
HStem: 0 21G<583 763> 1452 20G<583 763>
VStem: 583 180<0 1135>
Fore
763 0 m 1,0,-1
 583 0 l 1,1,-1
 583 1135 l 1,2,-1
 519 1037 519 1037 385 966 c 0,5,-1
 307 924 307 924 223 907 c 1,8,-1
 223 1104 l 1,9,-1
 379 1177 379 1177 490 1306 c 0,12,-1
 562 1391 562 1391 583 1472 c 1,15,-1
 763 1472 l 1,16,-1
 763 0 l 1,0,-1
EndSplineSet
EndChar
StartChar: two
Encoding: 50 50 22
Width: 1139
Flags: W
HStem: 0 173<312 1031> 1333 149<426.3 662.9>
VStem: 844 185<1040.61 1185.6>
Fore
1031 173 m 1,0,-1
 1031 0 l 1,1,-1
 62 0 l 1,2,-1
 80 218 80 218 330 450 c 0,5,-1
 390 504 390 504 437 542 c 0,8,-1
 608 682 608 682 685 759 c 0,11,-1
 829 906 829 906 843 1049 c 0,14,-1
 844 1059 844 1059 844 1079 c 0,17,-1
 844 1202 844 1202 752 1274 c 0,20,-1
 676 1333 676 1333 568 1333 c 0,23,-1
 404 1333 404 1333 329 1217 c 0,26,-1
 282 1145 282 1145 281 1039 c 1,29,-1
 96 1039 l 1,30,-1
 96 1233 96 1233 224 1356 c 0,33,-1
 356 1482 356 1482 572 1482 c 0,36,-1
 782 1482 782 1482 910 1363 c 0,39,-1
 1029 1252 1029 1252 1029 1075 c 0,42,-1
 1029 880 1029 880 873 705 c 0,45,-1
 806 630 806 630 650 501 c 2,48,-1
 596 455 l 1,49,-1
 430 317 l 2,50,-1
 365 259 365 259 312 173 c 1,53,-1
 1031 173 l 1,0,-1
EndSplineSet
EndChar
StartChar: three
Encoding: 51 51 23
Width: 1139
Flags: W
HStem: -10 166<465.9 676.5> 713 137<479.201 608.1> 1070 21G<104 284> 1317 165<468.219 632.392>
VStem: 789 185<1016.6 1129.17> 855 191<342.3 549.119>
Fore
86 427 m 1,0,-1
 266 427 l 1,1,-1
 269 383 l 2,2,-1
 287 277 287 277 377 211 c 0,5,-1
 453 156 453 156 553 156 c 0,8,-1
 696 156 696 156 782 248 c 0,11,-1
 855 327 855 327 855 445 c 0,14,-1
 855 598 855 598 744 669 c 0,17,-1
 674 713 674 713 576 713 c 0,20,-1
 510 713 510 713 441 694 c 1,23,-1
 441 852 l 1,24,-1
 495 850 l 2,25,-1
 626 855 626 855 711 932 c 0,28,-1
 789 1002 789 1002 789 1105 c 0,31,-1
 789 1229 789 1229 688 1285 c 0,34,-1
 629 1317 629 1317 549 1317 c 0,37,-1
 336 1317 336 1317 289 1099 c 2,40,-1
 284 1070 l 1,41,-1
 104 1070 l 1,42,-1
 104 1221 104 1221 210 1337 c 0,45,-1
 320 1457 320 1457 485 1478 c 0,48,-1
 512 1482 512 1482 545 1482 c 0,51,-1
 720.5 1482 720.5 1482 842 1380 c 0,54,-1
 964 1278 964 1278 973 1123 c 0,57,-1
 974 1116 974 1116 974 1101 c 0,60,-1
 974 953 974 953 861 852 c 0,63,-1
 817 814 817 814 772 794 c 1,66,-1
 992 743 992 743 1036 546 c 0,69,-1
 1046 503 1046 503 1046 449 c 0,72,-1
 1046 262 1046 262 920 135 c 2,75,-1
 881 100 l 2,76,-1
 744 -10 744 -10 552 -10 c 0,79,-1
 369 -10 369 -10 236 106 c 0,82,-1
 113 213 113 213 90 372 c 0,85,-1
 86 397 86 397 86 427 c 1,0,-1
EndSplineSet
EndChar
StartChar: four
Encoding: 52 52 24
Width: 1139
Flags: W
HStem: 0 21G<662 842> 347 175<251 662 842 1040> 1452 20G<662 842>
VStem: 662 180<0 347 522 1117>
Fore
662 0 m 1,0,-1
 662 347 l 1,1,-1
 26 347 l 1,2,-1
 26 522 l 1,3,-1
 662 1472 l 1,4,-1
 842 1472 l 1,5,-1
 842 522 l 1,6,-1
 1040 522 l 1,7,-1
 1040 347 l 1,8,-1
 842 347 l 1,9,-1
 842 0 l 1,10,-1
 662 0 l 1,0,-1
662 522 m 1,11,-1
 662 1117 l 1,12,-1
 251 522 l 1,13,-1
 662 522 l 1,11,-1
EndSplineSet
EndChar
StartChar: five
Encoding: 53 53 25
Width: 1139
Flags: W
HStem: -10 164<470.383 616.185> 817 170<446.7 651.8> 1292 180<423 988>
VStem: 866 191<375.1 550.391>
Fore
85 415 m 1,0,-1
 274 415 l 1,1,-1
 304 218.5 304 218.5 454 169 c 0,4,-1
 500.5 154 500.5 154 556 154 c 0,7,-1
 710 154 710 154 795 265 c 0,10,-1
 866 357 866 357 866 496 c 0,13,-1
 866 680 866 680 744 764 c 0,16,-1
 667 817 667 817 553 817 c 0,19,-1
 405 817 405 817 306 686 c 1,22,-1
 117 708 l 1,23,-1
 259 1472 l 1,24,-1
 988 1472 l 1,25,-1
 988 1292 l 1,26,-1
 423 1292 l 1,27,-1
 344 920 l 1,28,-1
 423 985 423 985 591 987 c 2,31,-1
 601 987 l 2,32,-1
 790 987 790 987 917 864 c 0,35,-1
 1045 740 1045 740 1056 542 c 0,38,-1
 1057 532 1057 532 1057 512 c 0,41,-1
 1057 300 1057 300 932 155 c 0,44,-1
 806 9 806 9 603 -8 c 0,47,-1
 573 -10 573 -10 556 -10 c 0,50,-1
 315 -10 315 -10 187 148 c 0,53,-1
 101.5 254.5 101.5 254.5 85 415 c 1,0,-1
EndSplineSet
EndChar
StartChar: six
Encoding: 54 54 26
Width: 1139
Flags: W
HStem: -10 165<482.9 626.931> 807 170<501.803 673.5> 1305 177<482.1 654.784>
VStem: 77 194<701 1191.1> 861 184<366.9 577.999>
Fore
1019 1103 m 1,0,-1
 840 1103 l 1,1,-1
 801 1278 801 1278 641 1302 c 0,4,-1
 618 1305 618 1305 592 1305 c 0,7,-1
 278 1305 278 1305 271 842 c 1,10,-1
 363 957 363 957 522 973 c 0,13,-1
 553 977 553 977 594 977 c 0,16,-1
 765 977 765 977 893 858 c 0,19,-1
 1019 738 1019 738 1041 559 c 0,22,-1
 1045 528 1045 528 1045 491 c 0,25,-1
 1045 287 1045 287 929 147 c 0,28,-1
 811 3 811 3 618 -9 c 0,31,-1
 607 -10 607 -10 586 -10 c 0,34,-1
 252 -10 252 -10 135 312 c 0,37,-1
 77 470 77 470 77 701 c 0,40,-1
 77 1268 77 1268 360 1425 c 0,43,-1
 463.5 1482 463.5 1482 603 1482 c 0,46,-1
 777 1482 777 1482 897 1374 c 0,49,-1
 1009 1274 1009 1274 1018 1128 c 0,52,-1
 1019 1120 1019 1120 1019 1103 c 1,0,-1
306 490 m 0,55,-1
 306 328 306 328 395 233 c 0,58,-1
 468 155 468 155 583 155 c 0,61,-1
 724 155 724 155 800 263 c 0,64,-1
 861 349 861 349 861 480 c 0,67,-1
 861 649 861 649 762 739 c 0,70,-1
 688 807 688 807 576 807 c 0,73,-1
 431 807 431 807 358 692 c 0,76,-1
 306 610 306 610 306 490 c 0,55,-1
EndSplineSet
EndChar
StartChar: seven
Encoding: 55 55 27
Width: 1139
Flags: W
HStem: 0 21G<293 511> 1292 180<97 795>
VStem: 293 218<0 279.5>
Fore
97 1292 m 1,0,-1
 97 1472 l 1,1,-1
 1046 1472 l 1,2,-1
 1046 1292 l 1,3,-1
 822 1023 822 1023 675 692 c 0,6,-1
 511 322 511 322 511 0 c 1,9,-1
 293 0 l 1,10,-1
 294 351 294 351 486 776 c 0,13,-1
 622.5 1080.5 622.5 1080.5 795 1292 c 1,16,-1
 97 1292 l 1,0,-1
EndSplineSet
EndChar
StartChar: eight
Encoding: 56 56 28
Width: 1139
Flags: W
HStem: -10 157<464 695.4> 699 181<487.042 659.805> 1326 156<462.3 641.7>
VStem: 83 185<319.7 522.5> 142 184<1000.8 1151> 804 185<1028.5 1198.8>
Fore
362 805 m 1,0,-1
 142 886 142 886 142 1104 c 0,3,-1
 142 1274 142 1274 264 1381 c 0,6,-1
 382 1482 382 1482 563 1482 c 0,9,-1
 751 1482 751 1482 872 1372 c 0,12,-1
 989 1265.5 989 1265.5 989 1099 c 0,15,-1
 989 901 989 901 799 816 c 2,18,-1
 773 805 l 1,19,-1
 979 738 979 738 1032 556 c 0,22,-1
 1049 499 1049 499 1049 434 c 2,25,-1
 1045 368 l 2,26,-1
 1022.5 165.5 1022.5 165.5 859 65 c 0,29,-1
 738 -10 738 -10 566 -10 c 0,32,-1
 354 -10 354 -10 220 113 c 0,35,-1
 84 236 84 236 83 434 c 2,38,-1
 83 439 l 2,39,-1
 83 663 83 663 255 762 c 0,42,-1
 301 789 301 789 362 805 c 1,0,-1
326 1110 m 2,45,-1
 326 984 326 984 419 921 c 0,48,-1
 481 880 481 880 567 880 c 0,51,-1
 687 880 687 880 755 960 c 0,54,-1
 804 1018 804 1018 804 1100 c 0,57,-1
 804 1214 804 1214 718 1279 c 0,60,-1
 653 1326 653 1326 565 1326 c 0,63,-1
 447 1326 447 1326 378 1250 c 2,66,-1
 357 1222 l 1,67,-1
 340 1189 l 1,68,-1
 330 1151 l 1,69,-1
 326 1110 l 2,45,-1
268 438 m 0,70,-1
 268 300 268 300 365 218 c 0,73,-1
 448 147 448 147 568 147 c 0,76,-1
 715 147 715 147 799 242 c 0,79,-1
 865 318 865 318 865 432 c 0,82,-1
 865 586.5 865 586.5 742 657 c 0,85,-1
 668.5 699 668.5 699 562 699 c 0,88,-1
 400 699 400 699 320 601 c 0,91,-1
 268 537 268 537 268 438 c 0,70,-1
EndSplineSet
EndChar
StartChar: nine
Encoding: 57 57 29
Width: 1139
Flags: W
HStem: -10 177<503.216 675.9> 495 170<484.5 656.198> 1317 165<531.069 675.1>
VStem: 113 184<894.001 1090.32> 887 194<280.9 771>
Fore
139 369 m 1,0,-1
 318 369 l 1,1,-1
 357 194 357 194 517 170 c 0,4,-1
 540 167 540 167 566 167 c 0,7,-1
 880 167 880 167 887 630 c 1,10,-1
 795 515 795 515 636 499 c 0,13,-1
 605 495 605 495 564 495 c 0,16,-1
 393 495 393 495 265 614 c 0,19,-1
 139 734 139 734 117 913 c 0,22,-1
 113 944 113 944 113 981 c 0,25,-1
 113 1185 113 1185 229 1325 c 0,28,-1
 347 1469 347 1469 540 1481 c 0,31,-1
 551 1482 551 1482 572 1482 c 0,34,-1
 906 1482 906 1482 1023 1160 c 0,37,-1
 1081 1002 1081 1002 1081 771 c 0,40,-1
 1081 204 1081 204 798 47 c 0,43,-1
 694.5 -10 694.5 -10 555 -10 c 0,46,-1
 381 -10 381 -10 261 98 c 0,49,-1
 149 198 149 198 140 344 c 0,52,-1
 139 352 139 352 139 369 c 1,0,-1
852 982 m 0,55,-1
 852 1144 852 1144 763 1239 c 0,58,-1
 690 1317 690 1317 575 1317 c 0,61,-1
 434 1317 434 1317 358 1209 c 2,64,-1
 335 1170 l 2,65,-1
 297 1092 297 1092 297 992 c 0,68,-1
 297 823 297 823 396 733 c 0,71,-1
 470 665 470 665 582 665 c 0,74,-1
 727 665 727 665 800 780 c 0,77,-1
 852 862 852 862 852 982 c 0,55,-1
EndSplineSet
EndChar
StartChar: colon
Encoding: 58 58 30
Width: 569
Flags: W
HStem: 0 205<185 390> 857 205<185 390>
VStem: 185 205<0 205 857 1062>
Fore
185 857 m 1,0,-1
 185 1062 l 1,1,-1
 390 1062 l 1,2,-1
 390 857 l 1,3,-1
 185 857 l 1,0,-1
185 0 m 1,4,-1
 185 205 l 1,5,-1
 390 205 l 1,6,-1
 390 0 l 1,7,-1
 185 0 l 1,4,-1
EndSplineSet
EndChar
StartChar: semicolon
Encoding: 59 59 31
Width: 569
Flags: W
HStem: -20 20G<182 284> 857 205<182 387>
VStem: 182 205<0 205 857 1062> 284 103<-81.9457 0>
Fore
182 857 m 1,0,-1
 182 1062 l 1,1,-1
 387 1062 l 1,2,-1
 387 857 l 1,3,-1
 182 857 l 1,0,-1
182 0 m 1,4,-1
 182 205 l 1,5,-1
 387 205 l 1,6,-1
 387 0 l 2,7,-1
 387 -181 387 -181 278 -257 c 0,10,-1
 252 -277 252 -277 220 -290 c 1,13,-1
 170 -213 l 1,14,-1
 252 -177 252 -177 273 -87 c 0,17,-1
 283 -49 283 -49 284 0 c 1,20,-1
 182 0 l 1,4,-1
EndSplineSet
EndChar
StartChar: less
Encoding: 60 60 32
Width: 1196
Flags: W
HStem: 226 993<1083 1083>
VStem: 112 971<641 1219>
Fore
112 641 m 1,0,-1
 112 809 l 1,1,-1
 1083 1219 l 1,2,-1
 1083 1040 l 1,3,-1
 313 724 l 1,4,-1
 1083 405 l 1,5,-1
 1083 226 l 1,6,-1
 112 641 l 1,0,-1
EndSplineSet
EndChar
StartChar: equal
Encoding: 61 61 33
Width: 1196
Flags: W
HStem: 417 168<114 1082> 862 168<114 1082>
Fore
1082 862 m 1,0,-1
 114 862 l 1,1,-1
 114 1030 l 1,2,-1
 1082 1030 l 1,3,-1
 1082 862 l 1,0,-1
1082 417 m 1,4,-1
 114 417 l 1,5,-1
 114 585 l 1,6,-1
 1082 585 l 1,7,-1
 1082 417 l 1,4,-1
EndSplineSet
EndChar
StartChar: greater
Encoding: 62 62 34
Width: 1196
Flags: W
HStem: 226 993<112 112>
VStem: 112 971<226 641>
Fore
1083 641 m 1,0,-1
 112 226 l 1,1,-1
 112 405 l 1,2,-1
 881 724 l 1,3,-1
 112 1040 l 1,4,-1
 112 1219 l 1,5,-1
 1083 809 l 1,6,-1
 1083 641 l 1,0,-1
EndSplineSet
EndChar
StartChar: question
Encoding: 63 63 35
Width: 1139
Flags: W
HStem: 0 205<461 666> 1341 163<386 655.898>
VStem: 461 205<0 205> 853 183<1022.98 1157.58>
Fore
472 361 m 1,0,-1
 474 436 l 2,1,-1
 486 603 486 603 589 719 c 0,4,-1
 609 742 609 742 700 826 c 0,7,-1
 788 905 788 905 823 972 c 0,10,-1
 851 1027 851 1027 853 1088 c 0,13,-1
 853 1147 853 1147 825 1199 c 0,16,-1
 776 1295 776 1295 665 1328 c 0,19,-1
 620 1341 620 1341 568 1341 c 0,22,-1
 358 1339 358 1339 292 1123 c 0,25,-1
 281 1084 281 1084 275 1046 c 1,28,-1
 90 1046 l 1,29,-1
 100 1238 100 1238 223 1367 c 0,32,-1
 355 1504 355 1504 565 1504 c 0,35,-1
 762 1504 762 1504 896 1392 c 0,38,-1
 1020 1289 1020 1289 1035 1138 c 2,41,-1
 1036 1084 l 2,42,-1
 1032 1000 1032 1000 991 914 c 0,45,-1
 962 855 962 855 878 780 c 0,48,-1
 794 707 794 707 766 676 c 0,51,-1
 656 557 656 557 646 389 c 0,54,-1
 645 380 645 380 645 361 c 1,57,-1
 472 361 l 1,0,-1
461 0 m 1,58,-1
 461 205 l 1,59,-1
 666 205 l 1,60,-1
 666 0 l 1,61,-1
 461 0 l 1,58,-1
EndSplineSet
EndChar
StartChar: at
Encoding: 64 64 36
Width: 2079
Flags: W
HStem: -431 157<804.1 1401.2> -3 164<822.1 1013.2> 925 159<912.2 1095.77> 1338 155<942.1 1227.86>
VStem: 111 160<330.734 676.494> 502 181<319.1 557.069> 1799 157<618.969 841.504>
Fore
1161 121 m 1,0,-1
 1055 -3 1055 -3 854 -3 c 0,3,-1
 694 -3 694 -3 595 138 c 0,6,-1
 502 268 502 268 502 461 c 0,9,-1
 502 624.5 502 624.5 574 764 c 0,12,-1
 657 928 657 928 792 1015 c 0,15,-1
 897 1084 897 1084 1011 1084 c 0,18,-1
 1224 1084 1224 1084 1313 938 c 1,21,-1
 1347 1079 l 1,22,-1
 1526 1079 l 1,23,-1
 1380 379 l 2,24,-1
 1363 297 1363 297 1352 229 c 1,27,-1
 1353 212 l 1,28,-1
 1358 196 1358 196 1372 182 c 0,31,-1
 1392 163 1392 163 1422 163 c 0,34,-1
 1527 163 1527 163 1634 291 c 0,37,-1
 1738 416 1738 416 1780 580 c 0,40,-1
 1799 650 1799 650 1799 716 c 0,43,-1
 1799 969 1799 969 1627 1138 c 0,46,-1
 1469 1295 1469 1295 1220 1329 c 0,49,-1
 1158 1338 1158 1338 1093 1338 c 0,52,-1
 778 1338 778 1338 557 1152 c 0,55,-1
 509 1111 509 1111 468 1063 c 0,58,-1
 290 854 290 854 271 553 c 0,61,-1
 269 509 269 509 269 485 c 0,64,-1
 269 88 269 88 535 -110 c 0,67,-1
 756 -274 756 -274 1120 -274 c 0,70,-1
 1459 -274 1459 -274 1677 -125 c 0,73,-1
 1767 -63.5 1767 -63.5 1824 19 c 1,76,-1
 2005 19 l 1,77,-1
 1909 -179 1909 -179 1686 -300 c 0,80,-1
 1444 -431 1444 -431 1123 -431 c 0,83,-1
 686 -431 686 -431 418 -222 c 0,86,-1
 151 -13 151 -13 116 361 c 0,89,-1
 111 419 111 419 111 469 c 0,92,-1
 111 823 111 823 291 1087 c 0,95,-1
 463 1340 463 1340 758 1439 c 0,98,-1
 918 1493 918 1493 1102 1493 c 0,101,-1
 1415 1493 1415 1493 1642 1332 c 0,104,-1
 1855 1181 1855 1181 1926 933 c 0,107,-1
 1956 828 1956 828 1956 713 c 0,110,-1
 1956 507 1956 507 1843 307 c 0,113,-1
 1737 118 1737 118 1577 28 c 0,116,-1
 1468 -33 1468 -33 1354 -33 c 0,119,-1
 1286 -33 1286 -33 1242 -12 c 0,122,-1
 1199 9 1199 9 1180 48 c 0,125,-1
 1166 75 1166 75 1161 121 c 1,0,-1
891 161 m 0,128,-1
 1032 161 1032 161 1133 299 c 0,131,-1
 1223 422 1223 422 1240 593 c 0,134,-1
 1243 622 1243 622 1243 649 c 0,137,-1
 1243 828 1243 828 1140 894 c 0,140,-1
 1091 925 1091 925 1024 925 c 0,143,-1
 857 925 857 925 756 737 c 0,146,-1
 739 705 739 705 722 660 c 0,149,-1
 716 645 716 645 709 623 c 0,152,-1
 683 537 683 537 683 453 c 0,155,-1
 683 299 683 299 758 218 c 0,158,-1
 812 161 812 161 891 161 c 0,128,-1
EndSplineSet
EndChar
StartChar: A
Encoding: 65 65 37
Width: 1366
Flags: W
HStem: 0 21G<-2 203 1149 1368> 471 182<435 903> 1430 20G<559 768>
Back
366 960 m 5,0,-1
 503 960 l 1,1,-1
 896 0 l 1,2,-1
 753 0 l 1,3,-1
 621 312 l 1,4,-1
 257 312 l 1,5,-1
 133 0 l 1,6,-1
 -2 0 l 1,7,-1
 366 960 l 5,0,-1
592 432 m 5,8,-1
 432 819 l 1,9,-1
 285 432 l 1,10,-1
 592 432 l 5,8,-1
EndSplineSet
Fore
559 1450 m 1,0,-1
 768 1450 l 1,1,-1
 1368 0 l 1,2,-1
 1149 0 l 1,3,-1
 948 471 l 1,4,-1
 392 471 l 1,5,-1
 203 0 l 1,6,-1
 -2 0 l 1,7,-1
 559 1450 l 1,0,-1
903 653 m 1,8,-1
 659 1237 l 1,9,-1
 435 653 l 1,10,-1
 903 653 l 1,8,-1
EndSplineSet
EndChar
StartChar: B
Encoding: 66 66 38
Width: 1366
Flags: W
HStem: 0 173<344 868.494> 669 173<344 788.595> 1277 173<344 821.137>
VStem: 164 180<173 669 842 1277> 995 191<999.537 1158.3> 1056 201<376.171 528.9>
Fore
164 0 m 1,0,-1
 164 1450 l 1,1,-1
 700 1450 l 2,2,-1
 867 1450 867 1450 970 1406 c 0,5,-1
 1081 1357 1081 1357 1142 1249 c 0,8,-1
 1186 1169 1186 1169 1186 1079 c 0,11,-1
 1186 988 1186 988 1135 906 c 0,14,-1
 1083 822 1083 822 981 772 c 1,17,-1
 1114 733 1114 733 1186 639 c 0,20,-1
 1257 544 1257 544 1257 421 c 0,23,-1
 1257 277 1257 277 1172 164 c 0,26,-1
 1143 125 1143 125 1106 97 c 0,29,-1
 1042 50 1042 50 946 24 c 0,32,-1
 848.5 0 848.5 0 709 0 c 2,35,-1
 164 0 l 1,0,-1
344 842 m 1,36,-1
 661 842 l 2,37,-1
 789 842 789 842 846 859 c 0,40,-1
 995 903 995 903 995 1056 c 0,43,-1
 995 1176 995 1176 910 1233 c 0,46,-1
 887 1249 887 1249 860 1256 c 0,49,-1
 796 1277 796 1277 637 1277 c 2,52,-1
 344 1277 l 1,53,-1
 344 842 l 1,36,-1
344 173 m 1,54,-1
 709 173 l 2,55,-1
 841 173 841 173 898 193 c 0,58,-1
 924 202 924 202 953 220 c 0,61,-1
 1040 275 1040 275 1054 386 c 0,64,-1
 1056 408 1056 408 1056 421 c 0,67,-1
 1056 555 1056 555 953 619 c 0,70,-1
 929 635 929 635 898 644 c 0,73,-1
 824 669 824 669 683 669 c 2,76,-1
 344 669 l 1,77,-1
 344 173 l 1,54,-1
EndSplineSet
EndChar
StartChar: C
Encoding: 67 67 39
Width: 1479
Flags: W
HStem: -10 180<680.782 948.3> 1297 180<643.1 904.913>
VStem: 102 197<601.7 930.9>
Fore
1210 480 m 1,0,-1
 1398 480 l 1,1,-1
 1325 191 1325 191 1110 68 c 0,4,-1
 974 -10 974 -10 791 -10 c 0,7,-1
 554 -10 554 -10 406 86 c 0,10,-1
 256 185 256 185 180 366 c 0,13,-1
 102 549 102 549 102 745 c 0,16,-1
 102 960 102 960 190 1130 c 0,19,-1
 277 1299 277 1299 438 1388 c 0,22,-1
 601 1477 601 1477 794 1477 c 0,25,-1
 1015 1477 1015 1477 1164 1365 c 0,28,-1
 1315 1252 1315 1252 1373 1050 c 1,31,-1
 1185 1050 l 1,32,-1
 1130 1231 1130 1231 934 1280 c 0,35,-1
 866 1297 866 1297 790 1297 c 0,38,-1
 620.5 1297 620.5 1297 508 1216 c 0,41,-1
 299 1067 299 1067 299 746 c 0,44,-1
 299 581 299 581 364 434 c 0,47,-1
 449.5 246.5 449.5 246.5 637 191 c 0,50,-1
 708 170 708 170 788 170 c 0,53,-1
 976 170 976 170 1098 272 c 0,56,-1
 1198 356 1198 356 1210 480 c 1,0,-1
EndSplineSet
EndChar
StartChar: D
Encoding: 68 68 40
Width: 1479
Flags: W
HStem: 0 173<350 848.059> 1277 173<350 767.277>
VStem: 168 182<173 1277> 1183 197<503.892 983.9>
Fore
168 0 m 1,0,-1
 168 1450 l 1,1,-1
 673 1450 l 2,2,-1
 1122 1450 1122 1450 1281 1186 c 0,5,-1
 1380 1022.5 1380 1022.5 1380 733 c 0,8,-1
 1380 112 1380 112 891 17 c 0,11,-1
 800 0 800 0 697 0 c 2,14,-1
 168 0 l 1,0,-1
350 173 m 1,15,-1
 675 173 l 2,16,-1
 1159.5 173 1159.5 173 1182 686 c 0,19,-1
 1183 702 1183 702 1183 736 c 0,22,-1
 1183 1235 1183 1235 746 1274 c 0,25,-1
 708 1277 708 1277 670 1277 c 2,28,-1
 350 1277 l 1,29,-1
 350 173 l 1,15,-1
EndSplineSet
EndChar
StartChar: E
Encoding: 69 69 41
Width: 1366
Flags: W
HStem: 0 179<341 1222> 646 180<341 1021> 1268 182<341 1222>
VStem: 162 179<179 646 826 1268>
Fore
162 0 m 1,0,-1
 162 1450 l 1,1,-1
 1222 1450 l 1,2,-1
 1222 1268 l 1,3,-1
 341 1268 l 1,4,-1
 341 826 l 1,5,-1
 1021 826 l 1,6,-1
 1021 646 l 1,7,-1
 341 646 l 1,8,-1
 341 179 l 1,9,-1
 1222 179 l 1,10,-1
 1222 0 l 1,11,-1
 162 0 l 1,0,-1
EndSplineSet
EndChar
StartChar: F
Encoding: 70 70 42
Width: 1251
Flags: W
HStem: 0 21G<168 347> 641 179<347 1009> 1271 179<347 1157>
VStem: 168 179<0 641 820 1271>
Fore
168 0 m 1,0,-1
 168 1450 l 1,1,-1
 1157 1450 l 1,2,-1
 1157 1271 l 1,3,-1
 347 1271 l 1,4,-1
 347 820 l 1,5,-1
 1009 820 l 1,6,-1
 1009 641 l 1,7,-1
 347 641 l 1,8,-1
 347 0 l 1,9,-1
 168 0 l 1,0,-1
EndSplineSet
EndChar
StartChar: G
Encoding: 71 71 43
Width: 1479
Flags: W
HStem: -10 180<589.1 975.9> 504 180<905 1212> 1297 180<643.1 985.1>
VStem: 102 197<601.7 930.9>
Fore
1404 684 m 1,0,-1
 1404 650 l 2,1,-1
 1402.5 420.5 1402.5 420.5 1362 320 c 0,4,-1
 1336.5 254 1336.5 254 1260 164 c 0,7,-1
 1255 159 1255 159 1253 156 c 0,10,-1
 1105 -10 1105 -10 791 -10 c 0,13,-1
 554 -10 554 -10 406 86 c 0,16,-1
 256 185 256 185 180 366 c 0,19,-1
 102 549 102 549 102 745 c 0,22,-1
 102 960 102 960 190 1130 c 0,25,-1
 277 1299 277 1299 438 1388 c 0,28,-1
 601 1477 601 1477 794 1477 c 0,31,-1
 1015 1477 1015 1477 1164 1365 c 0,34,-1
 1315 1252 1315 1252 1373 1050 c 1,37,-1
 1185 1050 l 1,38,-1
 1169 1102 1169 1102 1138 1148 c 0,41,-1
 1033 1297 1033 1297 790 1297 c 0,44,-1
 620.5 1297 620.5 1297 508 1216 c 0,47,-1
 299 1067 299 1067 299 746 c 0,50,-1
 299 581 299 581 364 434 c 0,53,-1
 391 373 391 373 430 327 c 0,56,-1
 559 170 559 170 788 170 c 0,59,-1
 807 170 807 170 816 171 c 0,62,-1
 999 178 999 178 1112 284 c 2,65,-1
 1126 299 l 2,66,-1
 1197 376 1197 376 1210 465 c 2,69,-1
 1212 504 l 1,70,-1
 905 504 l 1,71,-1
 905 684 l 1,72,-1
 1404 684 l 1,0,-1
EndSplineSet
EndChar
StartChar: H
Encoding: 72 72 44
Width: 1479
Flags: W
HStem: 0 21G<164 344 1134 1314> 668 180<344 1134> 1430 20G<164 344 1134 1314>
VStem: 164 180<0 668 848 1450> 1134 180<0 668 848 1450>
Fore
164 0 m 1,0,-1
 164 1450 l 1,1,-1
 344 1450 l 1,2,-1
 344 848 l 1,3,-1
 1134 848 l 1,4,-1
 1134 1450 l 1,5,-1
 1314 1450 l 1,6,-1
 1314 0 l 1,7,-1
 1134 0 l 1,8,-1
 1134 668 l 1,9,-1
 344 668 l 1,10,-1
 344 0 l 1,11,-1
 164 0 l 1,0,-1
EndSplineSet
EndChar
StartChar: I
Encoding: 73 73 45
Width: 650
Flags: W
HStem: 0 160<25 235 415 625> 1290 160<25 235 415 625>
VStem: 235 180<160 1290>
Fore
625 160 m 1,0,-1
 625 0 l 1,1,-1
 25 0 l 1,2,-1
 25 160 l 1,3,-1
 235 160 l 1,4,-1
 235 1290 l 1,5,-1
 25 1290 l 1,6,-1
 25 1450 l 1,7,-1
 625 1450 l 1,8,-1
 625 1290 l 1,9,-1
 415 1290 l 1,10,-1
 415 160 l 1,11,-1
 625 160 l 1,0,-1
EndSplineSet
EndChar
StartChar: J
Encoding: 74 74 46
Width: 1024
Flags: W
HStem: -10 180<363.2 543.218> 1280 170<408 685>
VStem: 66 181<306.5 455> 685 180<333 1280>
Fore
865 1450 m 1,0,-1
 865 456 l 2,1,-1
 865 270 865 270 811 172 c 0,4,-1
 799 149 799 149 783 129 c 0,7,-1
 688 5 688 5 513 -8 c 2,10,-1
 463 -10 l 2,11,-1
 276 -10 276 -10 173 92 c 0,14,-1
 164 100 164 100 148 118 c 0,17,-1
 73 206 73 206 66 381 c 0,20,-1
 64 423 64 423 64 455 c 1,23,-1
 244 455 l 1,24,-1
 247 378 l 2,25,-1
 255 294 255 294 291 246 c 0,28,-1
 348 170 348 170 462 170 c 0,31,-1
 549 170 549 170 600 209 c 0,34,-1
 620 224 620 224 645 252 c 0,37,-1
 684 297 684 297 685 408 c 2,40,-1
 685 471 l 1,41,-1
 685 1280 l 1,42,-1
 408 1280 l 1,43,-1
 408 1450 l 1,44,-1
 865 1450 l 1,0,-1
EndSplineSet
EndChar
StartChar: K
Encoding: 75 75 47
Width: 1366
Flags: W
HStem: 0 21G<150 330 1113 1346> 1430 20G<150 330 1072 1316>
VStem: 150 180<0 539 785 1450>
Fore
150 0 m 1,0,-1
 150 1450 l 1,1,-1
 330 1450 l 1,2,-1
 330 785 l 1,3,-1
 1072 1450 l 1,4,-1
 1316 1450 l 1,5,-1
 610 806 l 1,6,-1
 1346 0 l 1,7,-1
 1113 0 l 1,8,-1
 479 670 l 1,9,-1
 330 539 l 1,10,-1
 330 0 l 1,11,-1
 150 0 l 1,0,-1
EndSplineSet
EndChar
StartChar: L
Encoding: 76 76 48
Width: 1139
Flags: W
HStem: 0 170<330 1060> 1430 20G<150 330>
VStem: 150 180<170 1450>
Fore
150 0 m 1,0,-1
 150 1450 l 1,1,-1
 330 1450 l 1,2,-1
 330 170 l 1,3,-1
 1060 170 l 1,4,-1
 1060 0 l 1,5,-1
 150 0 l 1,0,-1
EndSplineSet
EndChar
StartChar: M
Encoding: 77 77 49
Width: 1706
Flags: W
HStem: 0 21G<152 332 706 996 1370 1550> 1430 20G<152 332 1370 1550>
VStem: 152 180<0 964> 1370 180<0 964>
Fore
152 0 m 1,0,-1
 152 1450 l 1,1,-1
 332 1450 l 1,2,-1
 851 133 l 1,3,-1
 1370 1450 l 1,4,-1
 1550 1450 l 1,5,-1
 1550 0 l 1,6,-1
 1370 0 l 1,7,-1
 1370 964 l 1,8,-1
 996 0 l 1,9,-1
 706 0 l 1,10,-1
 332 964 l 1,11,-1
 332 0 l 1,12,-1
 152 0 l 1,0,-1
EndSplineSet
EndChar
StartChar: N
Encoding: 78 78 50
Width: 1479
Flags: W
HStem: 0 21G<156 336 1131 1311> 1430 20G<156 336 1131 1311>
VStem: 156 180<0 1136> 1131 180<315 1450>
Fore
156 0 m 1,0,-1
 156 1450 l 1,1,-1
 336 1450 l 1,2,-1
 1131 315 l 1,3,-1
 1131 1450 l 1,4,-1
 1311 1450 l 1,5,-1
 1311 0 l 1,6,-1
 1131 0 l 1,7,-1
 336 1136 l 1,8,-1
 336 0 l 1,9,-1
 156 0 l 1,0,-1
EndSplineSet
EndChar
StartChar: O
Encoding: 79 79 51
Width: 1593
Flags: W
HStem: -10 180<617 929.289> 1298 180<521.5 982.7>
VStem: 104 200<577.51 868.3> 1296 200<531.8 851.311>
Fore
104 714 m 0,0,-1
 104 1068 104 1068 288 1271 c 0,3,-1
 478.5 1475 478.5 1475 801 1478 c 0,6,-1
 1099 1478 1099 1478 1287 1293 c 0,9,-1
 1465 1118 1465 1118 1492 825 c 0,12,-1
 1496 784 1496 784 1496 731 c 0,15,-1
 1496 421 1496 421 1329 221 c 0,18,-1
 1168 29 1168 29 901 -4 c 0,21,-1
 852 -10 852 -10 800 -10 c 0,24,-1
 514 -10 514 -10 326 165 c 0,27,-1
 153 326 153 326 114 580 c 0,30,-1
 104 643 104 643 104 714 c 0,0,-1
304 711 m 0,33,-1
 304 436.5 304 436.5 460 291 c 0,36,-1
 588 170 588 170 799 170 c 0,39,-1
 1066 170 1066 170 1197 358 c 0,42,-1
 1296 500 1296 500 1296 732 c 0,45,-1
 1296 1024 1296 1024 1139 1175 c 0,48,-1
 1012 1298 1012 1298 802 1298 c 0,51,-1
 467 1298 467 1298 355 1021 c 0,54,-1
 304 894 304 894 304 711 c 0,33,-1
EndSplineSet
EndChar
StartChar: P
Encoding: 80 80 52
Width: 1366
Flags: W
HStem: 0 21G<158 338> 580 173<338 893.5> 1277 173<338 911.758>
VStem: 158 180<0 580 753 1277> 1077 200<909.5 1126.03>
Fore
158 0 m 1,0,-1
 158 1450 l 1,1,-1
 711 1450 l 2,2,-1
 912 1450 912 1450 1005 1421 c 0,5,-1
 1060 1404 1060 1404 1115 1368 c 0,8,-1
 1214 1299 1214 1299 1255 1168 c 0,11,-1
 1277 1102 1277 1102 1277 1026 c 0,14,-1
 1277 840 1277 840 1158 710 c 0,17,-1
 1040 580 1040 580 728 580 c 2,20,-1
 338 580 l 1,21,-1
 338 0 l 1,22,-1
 158 0 l 1,0,-1
338 753 m 1,23,-1
 731 753 l 2,24,-1
 919 753 919 753 998 823 c 0,27,-1
 1077 893 1077 893 1077 1020 c 0,30,-1
 1077 1150 1077 1150 990 1222 c 2,33,-1
 959 1243 l 2,34,-1
 935 1256.5 935 1256.5 908 1264 c 0,37,-1
 860 1277 860 1277 727 1277 c 2,40,-1
 338 1277 l 1,41,-1
 338 753 l 1,23,-1
EndSplineSet
EndChar
StartChar: Q
Encoding: 81 81 53
Width: 1659
Flags: W
HStem: -14 189<1341.26 1447.53> -10 177<722.705 820> 297 178<867.069 979.5> 1298 180<521.5 982.7>
VStem: 104 200<577.51 868.3> 1294 202<547.867 851.311>
Fore
1194 354 m 1,0,-1
 1280 461 1280 461 1294 673 c 0,3,-1
 1296 711 1296 711 1296 732 c 0,6,-1
 1296 1024 1296 1024 1139 1175 c 0,9,-1
 1012 1298 1012 1298 802 1298 c 0,12,-1
 467 1298 467 1298 355 1021 c 0,15,-1
 304 894 304 894 304 711 c 0,18,-1
 304 436 304 436 460 290 c 0,21,-1
 497 256 497 256 543 230 c 1,24,-1
 576 357 576 357 699 424 c 0,27,-1
 756 456 756 456 822 468 c 0,30,-1
 856 475 856 475 895 475 c 0,33,-1
 1032 473 1032 473 1141 399 c 0,36,-1
 1170 380 1170 380 1194 354 c 1,0,-1
1317 204 m 1,39,-1
 1342 177 1342 177 1390 175 c 0,42,-1
 1411 175 1411 175 1435 181 c 0,45,-1
 1491 194 1491 194 1533 228 c 1,48,-1
 1659 90 l 1,49,-1
 1547 -14 1547 -14 1399 -14 c 0,52,-1
 1315 -14 1315 -14 1244 20 c 0,55,-1
 1190 46 1190 46 1156 88 c 1,58,-1
 1037.5 10 1037.5 10 904 -5 c 2,61,-1
 820 -10 l 1,62,-1
 800 -10 l 2,63,-1
 514 -10 514 -10 326 165 c 0,66,-1
 153 326 153 326 114 580 c 0,69,-1
 104 643 104 643 104 714 c 0,72,-1
 104 1068 104 1068 288 1271 c 0,75,-1
 478.5 1475 478.5 1475 801 1478 c 0,78,-1
 1099 1478 1099 1478 1287 1293 c 0,81,-1
 1465 1118 1465 1118 1492 825 c 0,84,-1
 1496 784 1496 784 1496 731 c 0,87,-1
 1496 423 1496 423 1378 266 c 0,90,-1
 1348 228 1348 228 1317 204 c 1,39,-1
1050 226 m 1,93,-1
 990 297 990 297 908 297 c 0,96,-1
 892 297 892 297 876 294 c 0,99,-1
 772 274 772 274 740 181 c 1,102,-1
 740 180 740 180 739.5 177.5 c 0,105,-1
 739 175 739 175 738 174 c 1,108,-1
 762 167 762 167 803 167 c 0,111,-1
 920 169 920 169 1006 202 c 0,114,-1
 1034 213 1034 213 1050 226 c 1,93,-1
EndSplineSet
EndChar
StartChar: R
Encoding: 82 82 54
Width: 1400
Flags: W
HStem: 0 21G<158 338 1107 1387> 580 173<338 698> 1277 173<338 911.758>
VStem: 158 180<0 580 753 1277> 1077 200<909.5 1126.03>
Fore
698 580 m 1,0,-1
 338 580 l 1,1,-1
 338 0 l 1,2,-1
 158 0 l 1,3,-1
 158 1450 l 1,4,-1
 711 1450 l 2,5,-1
 912 1450 912 1450 1005 1421 c 0,8,-1
 1060 1404 1060 1404 1115 1368 c 0,11,-1
 1214 1299 1214 1299 1255 1168 c 0,14,-1
 1277 1102 1277 1102 1277 1026 c 0,17,-1
 1277 840 1277 840 1158 710 c 0,20,-1
 1081.5 626 1081.5 626 924 596 c 1,23,-1
 1387 0 l 1,24,-1
 1107 0 l 1,25,-1
 698 580 l 1,0,-1
338 753 m 1,26,-1
 731 753 l 2,27,-1
 919 753 919 753 998 823 c 0,30,-1
 1077 893 1077 893 1077 1020 c 0,33,-1
 1077 1150 1077 1150 990 1222 c 2,36,-1
 959 1243 l 2,37,-1
 935 1256.5 935 1256.5 908 1264 c 0,40,-1
 860 1277 860 1277 727 1277 c 2,43,-1
 338 1277 l 1,44,-1
 338 753 l 1,26,-1
EndSplineSet
EndChar
StartChar: S
Encoding: 83 83 55
Width: 1366
Flags: W
HStem: -10 174<588.347 865.3> 1300 171<488.7 789>
VStem: 148 187<1033.75 1145.38> 1029 186<1019 1118.75> 1072 187<324.6 514.8>
Fore
92 502 m 1,0,-1
 275 502 l 1,1,-1
 304 267 304 267 512 194 c 0,4,-1
 598 164 598 164 708 164 c 0,7,-1
 889 164 889 164 991 245 c 0,10,-1
 1072 311 1072 311 1072 413 c 0,13,-1
 1072 536 1072 536 946 592 c 0,16,-1
 908 609 908 609 855 622 c 2,19,-1
 639 666 l 2,20,-1
 414 720 414 720 310 781 c 0,23,-1
 158 871 158 871 149 1041 c 0,26,-1
 148 1050 148 1050 148 1067 c 0,29,-1
 148 1256 148 1256 303 1367 c 0,32,-1
 446 1471 446 1471 664 1471 c 0,35,-1
 905.5 1471 905.5 1471 1060 1342 c 0,38,-1
 1090 1317 1090 1317 1115 1287 c 2,41,-1
 1146 1245 l 2,42,-1
 1195 1170 1195 1170 1209 1078 c 2,45,-1
 1215 1019 l 1,46,-1
 1029 1019 l 1,47,-1
 1012 1163 1012 1163 898 1240 c 0,50,-1
 806 1300 806 1300 672 1300 c 0,53,-1
 461 1300 461 1300 378 1202 c 0,56,-1
 335 1152 335 1152 335 1080 c 0,59,-1
 335 973 335 973 439 923 c 0,62,-1
 490 898 490 898 641 865 c 0,65,-1
 670 858 670 858 684 856 c 0,68,-1
 924 802 924 802 1009 768 c 0,71,-1
 1169 707 1169 707 1224 598 c 0,74,-1
 1259 526 1259 526 1259 429 c 0,77,-1
 1259 238.5 1259 238.5 1109 117 c 0,80,-1
 969.5 1.5 969.5 1.5 755 -9 c 0,83,-1
 742 -10 742 -10 717 -10 c 0,86,-1
 357 -10 357 -10 198 186 c 0,89,-1
 96 312 96 312 92 502 c 1,0,-1
EndSplineSet
EndChar
StartChar: T
Encoding: 84 84 56
Width: 1251
Flags: W
HStem: 0 21G<538 718> 1280 170<48 538 718 1210>
VStem: 538 180<0 1280>
Fore
538 0 m 1,0,-1
 538 1280 l 1,1,-1
 48 1280 l 1,2,-1
 48 1450 l 1,3,-1
 1210 1450 l 1,4,-1
 1210 1280 l 1,5,-1
 718 1280 l 1,6,-1
 718 0 l 1,7,-1
 538 0 l 1,0,-1
EndSplineSet
EndChar
StartChar: U
Encoding: 85 85 57
Width: 1479
Flags: W
HStem: -10 180<621.314 972.3> 1430 20G<161 341 1134 1314>
VStem: 161 180<429.974 1450> 1134 180<468.068 1450>
Fore
1134 1450 m 1,0,-1
 1314 1450 l 1,1,-1
 1314 567 l 2,2,-1
 1314 -10 1314 -10 741 -10 c 0,5,-1
 216 -10 216 -10 166 460 c 0,8,-1
 161 517 161 517 161 567 c 2,11,-1
 161 1450 l 1,12,-1
 341 1450 l 1,13,-1
 341 568 l 2,14,-1
 341 240 341 240 614 182 c 0,17,-1
 669.5 170 669.5 170 737 170 c 0,20,-1
 1008.5 170 1008.5 170 1091 338 c 0,23,-1
 1134 423 1134 423 1134 568 c 2,26,-1
 1134 1450 l 1,0,-1
EndSplineSet
EndChar
StartChar: V
Encoding: 86 86 58
Width: 1366
Flags: W
HStem: 0 21G<577 776> 1430 20G<9 219 1152 1350>
Fore
577 0 m 1,0,-1
 9 1450 l 1,1,-1
 219 1450 l 1,2,-1
 677 279 l 1,3,-1
 1152 1450 l 1,4,-1
 1350 1450 l 1,5,-1
 776 0 l 1,6,-1
 577 0 l 1,0,-1
EndSplineSet
EndChar
StartChar: W
Encoding: 87 87 59
Width: 1933
Flags: W
HStem: 0 21G<414 612 1310 1508> 1430 20G<25 224 834 1088 1698 1897>
Fore
414 0 m 1,0,-1
 25 1450 l 1,1,-1
 224 1450 l 1,2,-1
 513 390 l 1,3,-1
 834 1450 l 1,4,-1
 1088 1450 l 1,5,-1
 1409 390 l 1,6,-1
 1698 1450 l 1,7,-1
 1897 1450 l 1,8,-1
 1508 0 l 1,9,-1
 1310 0 l 1,10,-1
 961 1170 l 1,11,-1
 612 0 l 1,12,-1
 414 0 l 1,0,-1
EndSplineSet
EndChar
StartChar: X
Encoding: 88 88 60
Width: 1366
Flags: W
HStem: 0 21G<9 239 1123 1353> 1430 20G<76 306 1083 1313>
Fore
9 0 m 1,0,-1
 564 756 l 1,1,-1
 76 1450 l 1,2,-1
 306 1450 l 1,3,-1
 681 902 l 1,4,-1
 1083 1450 l 1,5,-1
 1313 1450 l 1,6,-1
 798 756 l 1,7,-1
 1353 0 l 1,8,-1
 1123 0 l 1,9,-1
 681 613 l 1,10,-1
 239 0 l 1,11,-1
 9 0 l 1,0,-1
EndSplineSet
EndChar
StartChar: Y
Encoding: 89 89 61
Width: 1366
Flags: W
HStem: 0 21G<571 765> 1431 20G<6 236 1120 1350>
VStem: 571 194<0 621>
Fore
571 0 m 1,0,-1
 571 621 l 1,1,-1
 6 1451 l 1,2,-1
 236 1451 l 1,3,-1
 680 855 l 1,4,-1
 1120 1451 l 1,5,-1
 1350 1451 l 1,6,-1
 765 621 l 1,7,-1
 765 0 l 1,8,-1
 571 0 l 1,0,-1
EndSplineSet
EndChar
StartChar: Z
Encoding: 90 90 62
Width: 1251
Flags: W
HStem: 0 180<325 1200> 1270 180<45 945>
Fore
41 0 m 1,0,-1
 41 187 l 1,1,-1
 945 1270 l 1,2,-1
 45 1270 l 1,3,-1
 45 1450 l 1,4,-1
 1213 1450 l 1,5,-1
 1213 1270 l 1,6,-1
 325 180 l 1,7,-1
 1200 180 l 1,8,-1
 1200 0 l 1,9,-1
 41 0 l 1,0,-1
EndSplineSet
EndChar
StartChar: bracketleft
Encoding: 91 91 63
Width: 569
Flags: W
HStem: -407 149<319 536> 1317 149<319 536>
VStem: 139 180<-258 1317> 139 397<-407 -258 1317 1466>
Fore
139 -407 m 1,0,-1
 139 1466 l 1,1,-1
 536 1466 l 1,2,-1
 536 1317 l 1,3,-1
 319 1317 l 1,4,-1
 319 -258 l 1,5,-1
 536 -258 l 1,6,-1
 536 -407 l 1,7,-1
 139 -407 l 1,0,-1
EndSplineSet
EndChar
StartChar: backslash
Encoding: 92 92 64
Width: 569
Flags: W
VStem: 0 569<-25 1491>
Fore
425 -25 m 1,0,-1
 0 1491 l 1,1,-1
 145 1491 l 1,2,-1
 569 -25 l 1,3,-1
 425 -25 l 1,0,-1
EndSplineSet
EndChar
StartChar: bracketright
Encoding: 93 93 65
Width: 569
Flags: W
HStem: -407 149<39 256> 1317 149<39 256>
VStem: 39 397<-407 -258 1317 1466> 256 180<-258 1317>
Fore
436 -407 m 1,0,-1
 39 -407 l 1,1,-1
 39 -258 l 1,2,-1
 256 -258 l 1,3,-1
 256 1317 l 1,4,-1
 39 1317 l 1,5,-1
 39 1466 l 1,6,-1
 436 1466 l 1,7,-1
 436 -407 l 1,0,-1
EndSplineSet
EndChar
StartChar: asciicircum
Encoding: 94 94 66
Width: 961
Flags: W
HStem: 690 801<239 407>
VStem: 54 853<690 690>
Fore
239 690 m 1,0,-1
 54 690 l 1,1,-1
 407 1491 l 1,2,-1
 552 1491 l 1,3,-1
 907 690 l 1,4,-1
 726 690 l 1,5,-1
 479 1287 l 1,6,-1
 239 690 l 1,0,-1
EndSplineSet
EndChar
StartChar: underscore
Encoding: 95 95 67
Width: 1139
Flags: W
HStem: -407 130<-31 1162>
Fore
-31 -407 m 1,0,-1
 -31 -277 l 1,1,-1
 1162 -277 l 1,2,-1
 1162 -407 l 1,3,-1
 -31 -407 l 1,0,-1
EndSplineSet
EndChar
StartChar: grave
Encoding: 96 96 68
Width: 682
Flags: W
HStem: 1454 20G<89 330>
VStem: 89 376<1194 1474>
Fore
465 1194 m 1,0,-1
 320 1194 l 1,1,-1
 89 1474 l 1,2,-1
 330 1474 l 1,3,-1
 465 1194 l 1,0,-1
EndSplineSet
EndChar
StartChar: a
Encoding: 97 97 69
Width: 1139
Flags: W
HStem: -24 141<389 546.359> 937 149<451.473 676.3>
VStem: 74 192<222.6 343.175> 813 182<342.607 533 661.414 815.9>
Fore
828 131 m 1,0,-1
 727.5 45.5 727.5 45.5 636 11 c 0,3,-1
 542 -24 542 -24 437 -24 c 0,6,-1
 263 -24 263 -24 168 62 c 0,9,-1
 74 147 74 147 74 280 c 0,12,-1
 74 358 74 358 110 422 c 0,15,-1
 145 487 145 487 202 526 c 0,18,-1
 262 566 262 566 332 585 c 0,21,-1
 384 598 384 598 492 612 c 0,24,-1
 707 637 707 637 813 674 c 1,27,-1
 814 699 814 699 814 721 c 0,30,-1
 814 831 814 831 763 876 c 0,33,-1
 695 937 695 937 558 937 c 0,36,-1
 432 937 432 937 370 892 c 0,39,-1
 310 848 310 848 281 735 c 1,42,-1
 105 759 l 1,43,-1
 129 872 129 872 184 942 c 0,46,-1
 239 1010 239 1010 343 1048 c 0,49,-1
 448 1086 448 1086 584 1086 c 0,52,-1
 718 1086 718 1086 805 1054 c 0,55,-1
 888 1023 888 1023 930 974 c 0,58,-1
 969 926 969 926 986 851 c 0,61,-1
 995 804 995 804 995 685 c 2,64,-1
 995 445 l 2,65,-1
 995 197 995 197 1006 128 c 0,68,-1
 1018 61 1018 61 1052 0 c 1,71,-1
 864 0 l 1,72,-1
 836 55 836 55 828 131 c 1,0,-1
813 533 m 1,75,-1
 719 494 719 494 519 465 c 0,78,-1
 409 449 409 449 362 429 c 0,81,-1
 317 410 317 410 291 370 c 0,84,-1
 266 333 266 333 266 285 c 0,87,-1
 266 213 266 213 320 165 c 0,90,-1
 376 117 376 117 480 117 c 0,93,-1
 584 117 584 117 665 162 c 0,96,-1
 747 209 747 209 784 287 c 0,99,-1
 813 350 813 350 813 467 c 2,102,-1
 813 533 l 1,75,-1
EndSplineSet
EndChar
StartChar: b
Encoding: 98 98 70
Width: 1139
Flags: W
HStem: -10 159<504.3 717.5> 921 165<495.4 681.3> 1446 20G<134 314>
VStem: 134 180<338.8 689.8 943 1466> 134 167<0 119> 883 172<398.1 725.7>
Fore
301 0 m 1,0,-1
 134 0 l 1,1,-1
 134 1466 l 1,2,-1
 314 1466 l 1,3,-1
 314 943 l 1,4,-1
 428 1086 428 1086 605 1086 c 0,7,-1
 818 1086 818 1086 942 924 c 0,10,-1
 1055 775 1055 775 1055 547 c 0,13,-1
 1055 285 1055 285 921 131 c 0,16,-1
 798 -10 798 -10 596 -10 c 0,19,-1
 437 -10 437 -10 334 84 c 0,22,-1
 313 103 313 103 301 119 c 1,25,-1
 301 0 l 1,0,-1
312 539 m 0,26,-1
 312 308 312 308 427 206 c 0,29,-1
 492 149 492 149 581 149 c 0,32,-1
 737 150 737 150 820 278 c 0,35,-1
 883 378 883 378 883 532 c 0,38,-1
 883 757 883 757 768 857 c 0,41,-1
 697 921 697 921 589 921 c 0,44,-1
 481 921 481 921 402 824 c 0,47,-1
 312 713 312 713 312 539 c 0,26,-1
EndSplineSet
EndChar
StartChar: c
Encoding: 99 99 71
Width: 1024
Flags: W
HStem: -10 170<472.6 699.5> 916 170<383.3 650.3>
VStem: 81 184<346.555 651.808> 828 177<325.44 403 696 725.472>
Fore
828 403 m 1,0,-1
 1005 403 l 1,1,-1
 998 165 998 165 829 58 c 0,4,-1
 720 -10 720 -10 563 -10 c 0,7,-1
 374 -10 374 -10 241 113 c 0,10,-1
 95 251 95 251 81 485 c 0,13,-1
 80 499 80 499 80 527 c 0,16,-1
 80 809 80 809 228 958 c 0,19,-1
 356 1086 356 1086 564 1086 c 0,22,-1
 812 1086 812 1086 925 936 c 0,25,-1
 992 848 992 848 1002 719 c 0,28,-1
 1003 712 1003 712 1003 696 c 1,31,-1
 828 696 l 1,32,-1
 817.5 799.5 817.5 799.5 732 864 c 0,35,-1
 662 916 662 916 571 916 c 0,38,-1
 286 916 286 916 266 583 c 2,41,-1
 265 532 l 2,42,-1
 265 312 265 312 388 216 c 0,45,-1
 459 160 459 160 561 160 c 0,48,-1
 755 162 755 162 810 300 c 0,51,-1
 827 345 827 345 828 403 c 1,0,-1
EndSplineSet
EndChar
StartChar: d
Encoding: 100 100 72
Width: 1139
Flags: W
HStem: -10 154<455.6 620.7> 917 169<386.7 631.1> 1446 20G<812 991>
VStem: 70 185<332.4 654.285> 812 179<350.4 656 958 1466> 824 167<0 122>
Fore
824 0 m 1,0,-1
 824 122 l 1,1,-1
 734 -10 734 -10 527 -10 c 0,4,-1
 322 -10 322 -10 196 142 c 0,7,-1
 76 286 76 286 70 511 c 2,10,-1
 70 530 l 2,11,-1
 70 781 70 781 191 933 c 0,14,-1
 312 1086 312 1086 519 1086 c 0,17,-1
 713 1086 713 1086 807 965 c 2,20,-1
 812 958 l 1,21,-1
 812 1466 l 1,22,-1
 991 1466 l 1,23,-1
 991 0 l 1,24,-1
 824 0 l 1,0,-1
255 530 m 0,25,-1
 255 302 255 302 372 203 c 0,28,-1
 443 144 443 144 544 144 c 0,31,-1
 633 144 633 144 710 224 c 0,34,-1
 809 326 809 326 817 496 c 2,37,-1
 817 515 l 2,38,-1
 817 726 817 726 716 838 c 0,41,-1
 646 917 646 917 544 917 c 0,44,-1
 364 917 364 917 293 750 c 0,47,-1
 255 659 255 659 255 530 c 0,25,-1
EndSplineSet
EndChar
StartChar: e
Encoding: 101 101 73
Width: 1139
Flags: W
HStem: -10 162<485.401 644.965> 485 164<271 862> 914 172<465.1 668.166>
VStem: 75 192<338.7 522>
Fore
862 333 m 1,0,-1
 1048 333 l 1,1,-1
 1013 154 1013 154 863 62 c 0,4,-1
 765 1 765 1 631 -8 c 0,7,-1
 597 -10 597 -10 581 -10 c 0,10,-1
 299 -10 299 -10 169 177 c 0,13,-1
 75 310 75 310 75 522 c 0,16,-1
 75 798 75 798 222 949 c 0,19,-1
 353 1086 353 1086 571 1086 c 0,22,-1
 821.5 1086 821.5 1086 949 906 c 0,25,-1
 1052 759 1052 759 1054 520 c 0,28,-1
 1054 496 1054 496 1053 485 c 1,31,-1
 267 485 l 1,32,-1
 273 226 273 226 467 167 c 0,35,-1
 520 152 520 152 582 152 c 0,38,-1
 792 152 792 152 854 311 c 2,41,-1
 862 333 l 1,0,-1
271 649 m 1,42,-1
 862 649 l 1,43,-1
 842 861 842 861 665 904 c 0,46,-1
 625 914 625 914 573 914 c 0,49,-1
 449 914 449 914 362 839 c 0,52,-1
 278 765 278 765 271 649 c 1,42,-1
EndSplineSet
EndChar
StartChar: f
Encoding: 102 102 74
Width: 569
Flags: W
HStem: 0 21G<178 357> 785 140<19 178 357 536> 1343 172<433.645 577.458>
VStem: 178 179<0 785 925 1254>
Fore
178 0 m 1,0,-1
 178 785 l 1,1,-1
 19 785 l 1,2,-1
 19 925 l 1,3,-1
 178 925 l 1,4,-1
 178 1175 l 2,5,-1
 178 1390 178 1390 322 1474 c 0,8,-1
 393 1515 393 1515 487 1515 c 0,11,-1
 563.5 1515 563.5 1515 640 1488 c 1,14,-1
 640 1316 l 1,15,-1
 558 1343 558 1343 501 1343 c 0,18,-1
 466.5 1344.5 466.5 1344.5 441 1334 c 0,21,-1
 357 1301 357 1301 357 1160 c 2,24,-1
 357 925 l 1,25,-1
 536 925 l 1,26,-1
 536 785 l 1,27,-1
 357 785 l 1,28,-1
 357 0 l 1,29,-1
 178 0 l 1,0,-1
EndSplineSet
EndChar
StartChar: g
Encoding: 103 103 75
Width: 1139
Flags: W
HStem: -435 167<452.248 652.482> 0 175<453.582 677.1> 917 169<394.7 622.576>
VStem: 66 185<340.7 665.7> 819 183<-28.5 139 224.2 761.1> 836 166<974 1062>
Fore
102 -74 m 1,0,-1
 277 -74 l 1,1,-1
 280 -115 l 2,2,-1
 299 -221 299 -221 423 -256 c 0,5,-1
 468 -268 468 -268 521 -268 c 0,8,-1
 702 -268 702 -268 768 -146 c 0,11,-1
 819 -53 819 -53 819 134 c 2,14,-1
 819 139 l 1,15,-1
 701 0 701 0 525 0 c 0,18,-1
 306 0 306 0 180 163 c 0,21,-1
 66 310 66 310 66 537 c 0,24,-1
 66 774 66 774 184 925 c 0,27,-1
 309 1086 309 1086 526 1086 c 0,30,-1
 737 1086 737 1086 836 974 c 1,33,-1
 836 1062 l 1,34,-1
 1002 1062 l 1,35,-1
 1002 144 l 2,36,-1
 1002 -170 1002 -170 898 -301 c 0,39,-1
 834 -382 834 -382 717 -413 c 0,42,-1
 639 -435 639 -435 522 -435 c 2,45,-1
 454 -431 l 2,46,-1
 265 -411 265 -411 171 -287 c 0,49,-1
 103.5 -198.5 103.5 -198.5 102 -74 c 1,0,-1
251 550 m 0,52,-1
 251 224.5 251 224.5 473 181 c 0,55,-1
 504.5 175 504.5 175 542 175 c 0,58,-1
 822 175 822 175 822 544 c 0,61,-1
 822 795 822 795 683 880 c 0,64,-1
 624 917 624 917 539 917 c 0,67,-1
 372 917 372 917 298 774 c 0,70,-1
 251 683 251 683 251 550 c 0,52,-1
EndSplineSet
EndChar
StartChar: h
Encoding: 104 104 76
Width: 1139
Flags: W
HStem: 0 21G<135 315 820 1000> 882 213<508.694 789.7> 1446 20G<135 315>
VStem: 135 180<0 624.325 970 1466> 820 180<0 808.2>
Fore
135 0 m 1,0,-1
 135 1466 l 1,1,-1
 315 1466 l 1,2,-1
 315 970 l 1,3,-1
 380 1055 380 1055 501 1083 c 0,6,-1
 549 1095 549 1095 600 1095 c 0,9,-1
 828 1095 828 1095 931 935 c 0,12,-1
 1000 828 1000 828 1000 673 c 2,15,-1
 1000 0 l 1,16,-1
 820 0 l 1,17,-1
 820 624 l 2,18,-1
 820 882 820 882 596 882 c 0,21,-1
 390 882 390 882 334 687 c 0,24,-1
 315 621 315 621 315 532 c 2,27,-1
 315 0 l 1,28,-1
 135 0 l 1,0,-1
EndSplineSet
EndChar
StartChar: i
Encoding: 105 105 77
Width: 455
Flags: W
HStem: 0 21G<136 316> 1042 20G<136 316> 1259 207<136 316>
VStem: 136 180<0 1062 1259 1466>
Fore
136 1259 m 1,0,-1
 136 1466 l 1,1,-1
 316 1466 l 1,2,-1
 316 1259 l 1,3,-1
 136 1259 l 1,0,-1
136 0 m 1,4,-1
 136 1062 l 1,5,-1
 316 1062 l 1,6,-1
 316 0 l 1,7,-1
 136 0 l 1,4,-1
EndSplineSet
EndChar
StartChar: j
Encoding: 106 106 78
Width: 455
Flags: W
HStem: -428 161<-64.9111 69.7> 1042 20G<134 314> 1257 209<134 314>
VStem: 134 180<-170.837 1062 1257 1466>
Fore
134 1257 m 1,0,-1
 134 1466 l 1,1,-1
 314 1466 l 1,2,-1
 314 1257 l 1,3,-1
 134 1257 l 1,0,-1
-94 -412 m 1,4,-1
 -94 -259 l 1,5,-1
 -38 -267 -38 -267 -7 -267 c 0,8,-1
 83 -267 83 -267 111 -206 c 0,11,-1
 134 -157 134 -157 134 -54 c 2,14,-1
 134 1062 l 1,15,-1
 314 1062 l 1,16,-1
 314 -58 l 2,17,-1
 314 -340 314 -340 160 -406 c 0,20,-1
 109 -428 109 -428 39 -428 c 0,23,-1
 -23 -428 -23 -428 -94 -412 c 1,4,-1
EndSplineSet
EndChar
StartChar: k
Encoding: 107 107 79
Width: 1024
Flags: W
HStem: 0 21G<136 316 794 1016> 1042 20G<742 975> 1446 20G<136 316>
VStem: 136 180<0 421 630 1466>
Fore
136 0 m 1,0,-1
 136 1466 l 1,1,-1
 316 1466 l 1,2,-1
 316 630 l 1,3,-1
 742 1062 l 1,4,-1
 975 1062 l 1,5,-1
 569 668 l 1,6,-1
 1016 0 l 1,7,-1
 794 0 l 1,8,-1
 443 543 l 1,9,-1
 316 421 l 1,10,-1
 316 0 l 1,11,-1
 136 0 l 1,0,-1
EndSplineSet
EndChar
StartChar: l
Encoding: 108 108 80
Width: 455
Flags: W
HStem: 0 21G<131 311> 1446 20G<131 311>
VStem: 131 180<0 1466>
Fore
131 0 m 1,0,-1
 131 1466 l 1,1,-1
 311 1466 l 1,2,-1
 311 0 l 1,3,-1
 131 0 l 1,0,-1
EndSplineSet
EndChar
StartChar: m
Encoding: 109 109 81
Width: 1706
Flags: W
HStem: 0 21G<135 315 766 946 1395 1574> 930 156<525.7 665.1 1108.5 1274.45>
VStem: 135 161<913 1062> 135 180<0 668.692> 766 180<0 758.7> 1395 179<0 807.955>
Fore
135 0 m 1,0,-1
 135 1062 l 1,1,-1
 296 1062 l 1,2,-1
 296 913 l 1,3,-1
 345 991 345 991 429 1038 c 0,6,-1
 511.5 1086 511.5 1086 618 1086 c 0,9,-1
 736 1086 736 1086 812 1037 c 0,12,-1
 887 988 887 988 918 900 c 1,15,-1
 1044 1086 1044 1086 1246 1086 c 0,18,-1
 1404 1086 1404 1086 1489 998 c 0,21,-1
 1574 912 1574 912 1574 729 c 2,24,-1
 1574 0 l 1,25,-1
 1395 0 l 1,26,-1
 1395 669 l 2,27,-1
 1395 776 1395 776 1378 824 c 0,30,-1
 1360 873 1360 873 1314 901 c 0,33,-1
 1267 930 1267 930 1206 930 c 0,36,-1
 1094 930 1094 930 1020 856 c 0,39,-1
 946 780 946 780 946 617 c 2,42,-1
 946 0 l 1,43,-1
 766 0 l 1,44,-1
 766 690 l 2,45,-1
 766 809 766 809 722 870 c 0,48,-1
 678.5 930 678.5 930 578 930 c 0,51,-1
 502 930 502 930 438 890 c 0,54,-1
 372 849 372 849 344 773 c 0,57,-1
 315 695 315 695 315 551 c 2,60,-1
 315 0 l 1,61,-1
 135 0 l 1,0,-1
EndSplineSet
EndChar
StartChar: n
Encoding: 110 110 82
Width: 1139
Flags: W
HStem: 0 21G<135 315 820 1000> 882 213<508.694 789.7>
VStem: 135 180<0 624.325 970 1064> 820 180<0 808.2>
Fore
135 0 m 1,0,-1
 135 1064 l 1,1,-1
 315 1064 l 1,2,-1
 315 970 l 1,3,-1
 380 1055 380 1055 501 1083 c 0,6,-1
 549 1095 549 1095 600 1095 c 0,9,-1
 828 1095 828 1095 931 935 c 0,12,-1
 1000 828 1000 828 1000 673 c 2,15,-1
 1000 0 l 1,16,-1
 820 0 l 1,17,-1
 820 624 l 2,18,-1
 820 882 820 882 596 882 c 0,21,-1
 390 882 390 882 334 687 c 0,24,-1
 315 621 315 621 315 532 c 2,27,-1
 315 0 l 1,28,-1
 135 0 l 1,0,-1
EndSplineSet
EndChar
StartChar: o
Encoding: 111 111 83
Width: 1139
Flags: W
HStem: -11 158<474.972 705.1> 928 158<406.1 666.1>
VStem: 68 185<338.6 654.5> 878 185<411.56 730.7>
Fore
68 531 m 0,0,-1
 68 815 68 815 226 964 c 0,3,-1
 357 1086 357 1086 566 1086 c 0,6,-1
 800 1086 800 1086 935 932 c 0,9,-1
 1063 786 1063 786 1063 546 c 0,12,-1
 1063 185 1063 185 839 54 c 0,15,-1
 726 -11 726 -11 566 -11 c 0,18,-1
 297 -11 297 -11 166 171 c 0,21,-1
 68 310 68 310 68 531 c 0,0,-1
253 531 m 0,24,-1
 253 270 253 270 408 184 c 0,27,-1
 475 147 475 147 566 147 c 0,30,-1
 770 147 770 147 844 329 c 0,33,-1
 878 413 878 413 878 537 c 0,36,-1
 878 760 878 760 758 862 c 0,39,-1
 681.5 928 681.5 928 566 928 c 0,42,-1
 381 928 381 928 301 770 c 0,45,-1
 253 674 253 674 253 531 c 0,24,-1
EndSplineSet
EndChar
StartChar: p
Encoding: 112 112 84
Width: 1139
Flags: W
HStem: -10 165<483.4 669.3> 927 159<492.3 705.5>
VStem: 122 180<-390 133 386.2 737.2> 122 167<957 1076> 871 172<350.3 609.264>
Fore
289 957 m 1,0,-1
 301 973 301 973 322 992 c 0,3,-1
 425 1086 425 1086 584 1086 c 0,6,-1
 786 1086 786 1086 909 945 c 0,9,-1
 1043 791 1043 791 1043 529 c 0,12,-1
 1043 301 1043 301 930 152 c 0,15,-1
 806 -10 806 -10 593 -10 c 0,18,-1
 416 -10 416 -10 302 133 c 1,21,-1
 302 -390 l 1,22,-1
 122 -390 l 1,23,-1
 122 1076 l 1,24,-1
 289 1076 l 1,25,-1
 289 957 l 1,0,-1
300 537 m 0,26,-1
 300 363 300 363 390 252 c 0,29,-1
 469 155 469 155 577 155 c 0,32,-1
 685 155 685 155 756 219 c 0,35,-1
 871 319 871 319 871 544 c 0,38,-1
 871 561 871 561 869 595 c 0,41,-1
 861 687 861 687 831 755 c 2,44,-1
 808 798 l 2,45,-1
 725 926 725 926 569 927 c 0,48,-1
 480 927 480 927 415 870 c 0,51,-1
 300 768 300 768 300 537 c 0,26,-1
EndSplineSet
EndChar
StartChar: q
Encoding: 113 113 85
Width: 1139
Flags: W
HStem: -10 165<460.7 646.6> 927 159<424.5 637.7>
VStem: 87 172<350.3 609.264> 828 180<-390 133 386.2 737.2> 841 167<957 1076>
Fore
841 1076 m 1,0,-1
 1008 1076 l 1,1,-1
 1008 -390 l 1,2,-1
 828 -390 l 1,3,-1
 828 133 l 1,4,-1
 714 -10 714 -10 537 -10 c 0,7,-1
 324 -10 324 -10 200 152 c 0,10,-1
 87 301 87 301 87 529 c 0,13,-1
 87 791 87 791 221 945 c 0,16,-1
 344 1086 344 1086 546 1086 c 0,19,-1
 705 1086 705 1086 808 992 c 0,22,-1
 829 973 829 973 841 957 c 1,25,-1
 841 1076 l 1,0,-1
830 537 m 0,26,-1
 830 768 830 768 715 870 c 0,29,-1
 650 927 650 927 561 927 c 0,32,-1
 405 926 405 926 322 798 c 2,35,-1
 299 755 l 2,36,-1
 269 687 269 687 261 595 c 0,39,-1
 259 561 259 561 259 544 c 0,42,-1
 259 319 259 319 374 219 c 0,45,-1
 445 155 445 155 553 155 c 0,48,-1
 661 155 661 155 740 252 c 0,51,-1
 830 363 830 363 830 537 c 0,26,-1
EndSplineSet
EndChar
StartChar: r
Encoding: 114 114 86
Width: 682
Flags: W
HStem: 0 21G<133 313> 900 177<455.818 583.585>
VStem: 133 162<947 1062> 133 180<0 713>
Fore
133 0 m 1,0,-1
 133 1062 l 1,1,-1
 295 1062 l 1,2,-1
 295 947 l 1,3,-1
 329 1014 329 1014 416 1052 c 0,6,-1
 419 1053 419 1053 427.5 1056.5 c 128,-1,-1
 436 1060 436 1060 441 1062 c 0,12,-1
 480 1077 480 1077 533 1077 c 0,15,-1
 631 1077 631 1077 710 1028 c 1,18,-1
 648 861 l 1,19,-1
 582 900 582 900 518 900 c 0,22,-1
 485 900 485 900 454 889 c 0,25,-1
 429 879 429 879 410 864 c 0,28,-1
 313 791 313 791 313 556 c 2,31,-1
 313 0 l 1,32,-1
 133 0 l 1,0,-1
EndSplineSet
EndChar
StartChar: s
Encoding: 115 115 87
Width: 1024
Flags: W
HStem: -11 162<416.064 626.5> 925 161<378.7 600.765>
VStem: 63 178<217.317 358> 760 185<259.343 368.035>
Fore
63 358 m 1,0,-1
 241 358 l 1,1,-1
 265 186 265 186 438 157 c 0,4,-1
 474 151 474 151 516 151 c 0,7,-1
 643 151 643 151 715 214 c 0,10,-1
 760 254 760 254 760 306 c 0,13,-1
 758 394 758 394 655 431 c 0,16,-1
 618 446 618 446 523 463 c 0,19,-1
 339 497 339 497 279 520 c 0,22,-1
 181 556 181 556 132 638 c 0,25,-1
 93 702 93 702 93 780 c 0,28,-1
 93 936 93 936 229 1021 c 0,31,-1
 336 1086 336 1086 484 1086 c 0,34,-1
 732 1086 732 1086 839 949 c 0,37,-1
 893 880 893 880 904 779 c 0,40,-1
 905 774 905 774 905 764 c 1,43,-1
 729 764 l 1,44,-1
 707 912 707 912 533 924 c 2,47,-1
 497 925 l 2,48,-1
 360 925 360 925 304 856 c 2,51,-1
 289 833 l 1,52,-1
 281 807 l 1,53,-1
 279 778 l 2,54,-1
 280 760 280 760 289 738 c 0,57,-1
 307 694 307 694 381 673 c 0,60,-1
 416 663 416 663 517 644 c 0,63,-1
 707 608 707 608 782 575 c 0,66,-1
 911 519 911 519 937 400 c 0,69,-1
 945 363 945 363 945 325 c 0,72,-1
 945 168 945 168 811 73 c 0,75,-1
 692.5 -11 692.5 -11 517 -11 c 0,78,-1
 261 -11 261 -11 142 138 c 0,81,-1
 72 226 72 226 63 358 c 1,0,-1
EndSplineSet
EndChar
StartChar: t
Encoding: 116 116 88
Width: 569
Flags: W
HStem: -13 166<393.302 526.769> 2 159<446.25 554> 922 140<18 168 347 497>
VStem: 168 179<186.451 922 1062 1433>
Fore
528 161 m 1,0,-1
 554 2 l 1,1,-1
 482 -13 482 -13 411 -13 c 0,4,-1
 312 -13 312 -13 266 17 c 0,7,-1
 203 58 203 58 184 130 c 0,10,-1
 168 188 168 188 168 311 c 2,13,-1
 168 922 l 1,14,-1
 18 922 l 1,15,-1
 18 1062 l 1,16,-1
 168 1062 l 1,17,-1
 168 1433 l 1,18,-1
 347 1433 l 1,19,-1
 347 1062 l 1,20,-1
 497 1062 l 1,21,-1
 497 922 l 1,22,-1
 347 922 l 1,23,-1
 347 301 l 2,24,-1
 347 216 347 216 359 194 c 0,27,-1
 368 179 368 179 388 167 c 0,30,-1
 411 153 411 153 449 153 c 0,33,-1
 470 153 470 153 528 161 c 1,0,-1
EndSplineSet
EndChar
StartChar: u
Encoding: 117 117 89
Width: 1139
Flags: W
HStem: -10 211<463.955 701.4> 1065 20G<104 284 789 969>
VStem: 104 180<316.7 1085> 789 180<0 64 286 1085>
Fore
969 1085 m 1,0,-1
 969 0 l 1,1,-1
 789 0 l 1,2,-1
 789 64 l 1,3,-1
 725 -5 725 -5 548 -10 c 2,6,-1
 537 -10 l 1,7,-1
 467 -7 l 2,8,-1
 251 16 251 16 159 181 c 0,11,-1
 104 278 104 278 104 412 c 2,14,-1
 104 1085 l 1,15,-1
 284 1085 l 1,16,-1
 284 461 l 2,17,-1
 284 294 284 294 401 231 c 0,20,-1
 456 201 456 201 534 201 c 0,23,-1
 789 201 789 201 789 456 c 2,26,-1
 789 1085 l 1,27,-1
 969 1085 l 1,0,-1
EndSplineSet
EndChar
StartChar: v
Encoding: 118 118 90
Width: 1024
Flags: W
HStem: 0 21G<429 599> 1042 20G<26 216 810 1000>
VStem: 26 974<1062 1062>
Fore
429 0 m 1,0,-1
 26 1062 l 1,1,-1
 216 1062 l 1,2,-1
 520 269 l 1,3,-1
 810 1062 l 1,4,-1
 1000 1062 l 1,5,-1
 599 0 l 1,6,-1
 429 0 l 1,0,-1
EndSplineSet
EndChar
StartChar: w
Encoding: 119 119 91
Width: 1479
Flags: W
HStem: 0 21G<331 519 975 1163> 1042 20G<6 192 648 832 1288 1463>
Fore
331 0 m 1,0,-1
 6 1062 l 1,1,-1
 192 1062 l 1,2,-1
 424 246 l 1,3,-1
 648 1062 l 1,4,-1
 832 1062 l 1,5,-1
 1069 246 l 1,6,-1
 1288 1062 l 1,7,-1
 1463 1062 l 1,8,-1
 1163 0 l 1,9,-1
 975 0 l 1,10,-1
 901 265 l 2,11,-1
 748 798 748 798 740 817 c 1,14,-1
 519 0 l 1,15,-1
 331 0 l 1,0,-1
EndSplineSet
EndChar
StartChar: x
Encoding: 120 120 92
Width: 1024
Flags: W
HStem: 0 21G<15 233 788 1009> 1042 20G<44 269 766 981>
VStem: 15 994<0 0>
Fore
15 0 m 1,0,-1
 396 552 l 1,1,-1
 44 1062 l 1,2,-1
 269 1062 l 1,3,-1
 499 694 l 1,4,-1
 766 1062 l 1,5,-1
 981 1062 l 1,6,-1
 607 562 l 1,7,-1
 1009 0 l 1,8,-1
 788 0 l 1,9,-1
 505 419 l 1,10,-1
 233 0 l 1,11,-1
 15 0 l 1,0,-1
EndSplineSet
EndChar
StartChar: y
Encoding: 121 121 93
Width: 1024
Flags: W
HStem: -422 168<159.564 296.712> 1042 20G<33 227 826 1006>
VStem: 33 973<1062 1062>
Fore
127 -409 m 1,0,-1
 107 -240 l 1,1,-1
 160 -254 160 -254 214 -254 c 0,4,-1
 284 -254 284 -254 327 -231 c 0,7,-1
 388 -197 388 -197 410 -146 c 0,10,-1
 431 -98 431 -98 436 -2 c 1,13,-1
 33 1062 l 1,14,-1
 227 1062 l 1,15,-1
 525 201 l 1,16,-1
 826 1062 l 1,17,-1
 1006 1062 l 1,18,-1
 602 -1 l 1,19,-1
 580 -215 580 -215 511 -302 c 0,22,-1
 477 -345 477 -345 420 -375 c 0,25,-1
 339 -416 339 -416 239 -422 c 2,28,-1
 185 -421 l 2,29,-1
 152 -418 152 -418 127 -409 c 1,0,-1
EndSplineSet
EndChar
StartChar: z
Encoding: 122 122 94
Width: 1024
Flags: W
HStem: 0 155<262 980> 916 146<60 716>
Fore
40 0 m 1,0,-1
 40 155 l 1,1,-1
 716 916 l 1,2,-1
 60 916 l 1,3,-1
 60 1062 l 1,4,-1
 948 1062 l 1,5,-1
 948 916 l 1,6,-1
 262 155 l 1,7,-1
 980 155 l 1,8,-1
 980 0 l 1,9,-1
 40 0 l 1,0,-1
EndSplineSet
EndChar
StartChar: braceleft
Encoding: 123 123 95
Width: 684
Flags: W
HStem: -431 157<507.235 636> 1334 157<534.669 636>
VStem: 264 169<-196.735 265.9 789.693 1250.13>
Fore
57 612 m 1,0,-1
 134 614 134 614 182 654 c 0,3,-1
 230 692 230 692 247 762 c 0,6,-1
 262 827 262 827 264 998 c 0,9,-1
 266 1166 266 1166 270 1218 c 0,12,-1
 279 1303 279 1303 304 1353 c 0,15,-1
 328 1404 328 1404 364 1434 c 0,18,-1
 398 1464 398 1464 456 1481 c 0,21,-1
 492 1491 492 1491 580 1491 c 2,24,-1
 636 1491 l 1,25,-1
 636 1334 l 1,26,-1
 605 1334 l 2,27,-1
 502 1334 502 1334 467 1296 c 0,30,-1
 433 1259 433 1259 433 1129 c 0,33,-1
 433 870 433 870 422 798 c 0,36,-1
 404 690 404 690 360 633 c 0,39,-1
 319 576 319 576 224 530 c 1,42,-1
 335 483 335 483 384 390 c 0,45,-1
 433 296 433 296 433 80 c 0,48,-1
 433 -119 433 -119 437 -152 c 0,51,-1
 445 -220 445 -220 478 -247 c 0,54,-1
 510 -274 510 -274 605 -274 c 2,57,-1
 636 -274 l 1,58,-1
 636 -431 l 1,59,-1
 580 -431 l 2,60,-1
 480 -431 480 -431 438 -415 c 0,63,-1
 374 -393 374 -393 332 -340 c 0,66,-1
 290 -289 290 -289 278 -210 c 0,69,-1
 266 -137 266 -137 264 49 c 0,72,-1
 262 233 262 233 247 298 c 0,75,-1
 230 367 230 367 182 407 c 0,78,-1
 134 447 134 447 57 449 c 1,81,-1
 57 612 l 1,0,-1
EndSplineSet
EndChar
StartChar: bar
Encoding: 124 124 96
Width: 532
Flags: W
VStem: 188 157<-431 1491>
Fore
188 -431 m 1,0,-1
 188 1491 l 1,1,-1
 345 1491 l 1,2,-1
 345 -431 l 1,3,-1
 188 -431 l 1,0,-1
EndSplineSet
EndChar
StartChar: braceright
Encoding: 125 125 97
Width: 684
Flags: W
HStem: -431 157<47 148.331> 1334 157<47 175.899>
VStem: 250 169<-189.625 271.056 795.1 1261.39>
Fore
626 612 m 1,0,-1
 626 449 l 1,1,-1
 549.5 447.5 549.5 447.5 500 407 c 0,4,-1
 452 367 452 367 436 298 c 0,7,-1
 421 235 421 235 419 63 c 0,10,-1
 417 -105 417 -105 413 -157 c 0,13,-1
 404 -242.5 404 -242.5 380 -292 c 0,16,-1
 355 -343 355 -343 319 -374 c 0,19,-1
 284 -403 284 -403 227 -420 c 0,22,-1
 188 -431 188 -431 103 -431 c 2,25,-1
 47 -431 l 1,26,-1
 47 -274 l 1,27,-1
 78 -274 l 2,28,-1
 181 -274 181 -274 216 -236 c 0,31,-1
 250 -199 250 -199 250 -68 c 0,34,-1
 250 182 250 182 259 249 c 0,37,-1
 276 361 276 361 323 426 c 0,40,-1
 370 492 370 492 459 530 c 1,43,-1
 343 586 343 586 297 676 c 0,46,-1
 250 767 250 767 250 981 c 0,49,-1
 250 1172 250 1172 245 1214 c 0,52,-1
 238 1281 238 1281 206 1308 c 0,55,-1
 172 1334 172 1334 78 1334 c 2,58,-1
 47 1334 l 1,59,-1
 47 1491 l 1,60,-1
 103 1491 l 2,61,-1
 203 1491 203 1491 245 1475 c 0,64,-1
 310 1452 310 1452 351 1401 c 0,67,-1
 393 1349 393 1349 406 1270 c 0,70,-1
 417 1194 417 1194 419 1011 c 0,73,-1
 421 827 421 827 436 762 c 0,76,-1
 453 694 453 694 500 654 c 0,79,-1
 549.5 613.5 549.5 613.5 626 612 c 1,0,-1
EndSplineSet
EndChar
StartChar: asciitilde
Encoding: 126 126 98
Width: 1196
Flags: W
HStem: 559 189<777.939 918.62> 693 189<271.961 421.282>
VStem: 87 1023<673 762 557 885>
Fore
87 557 m 1,0,-1
 87 762 l 1,1,-1
 194 882 194 882 365 882 c 0,4,-1
 425 882 425 882 491 864 c 0,7,-1
 558 847 558 847 679 795 c 0,10,-1
 752 765 752 765 782 757 c 0,13,-1
 816 748 816 748 852 748 c 0,16,-1
 917 748 917 748 986 787 c 0,19,-1
 1055 825 1055 825 1110 885 c 1,22,-1
 1110 673 l 1,23,-1
 1045 613 1045 613 980 586 c 0,26,-1
 915.5 559 915.5 559 833 559 c 0,29,-1
 776 559 776 559 718 573 c 0,32,-1
 670 585 670 585 546 640 c 0,35,-1
 426 693 426 693 348 693 c 0,38,-1
 283.5 693 283.5 693 228 666 c 0,41,-1
 170 637 170 637 87 557 c 1,0,-1
EndSplineSet
EndChar
StartChar: exclamdown
Encoding: 161 161 100
Width: 680
Flags: W
HStem: 0 21G<228 452> 1059 20G<256 422> 1278 211<238 442>
VStem: 228 224<0 220.979> 238 204<1278 1489> 256 166<858.021 1079>
Fore
442 1278 m 1,0,-1
 238 1278 l 1,1,-1
 238 1489 l 1,2,-1
 442 1489 l 1,3,-1
 442 1278 l 1,0,-1
452 0 m 1,4,-1
 228 0 l 1,5,-1
 256 1079 l 1,6,-1
 422 1079 l 1,7,-1
 452 0 l 1,4,-1
EndSplineSet
EndChar
StartChar: cent
Encoding: 162 162 101
Width: 1118
Flags: W
HStem: 1455 20G<557 671>
VStem: 114 193<394.5 716.9> 557 114<-361 1 146 971 1116 1475>
Fore
557 2 m 1,0,-1
 342 28 342 28 228 171 c 0,3,-1
 114 315 114 315 114 557 c 0,6,-1
 114 795 114 795 232 943 c 0,9,-1
 350 1091 350 1091 557 1115 c 1,12,-1
 557 1475 l 1,13,-1
 671 1475 l 1,14,-1
 671 1116 l 1,15,-1
 757 1113 757 1113 838 1090 c 0,18,-1
 918 1066 918 1066 975 1037 c 1,21,-1
 975 837 l 1,22,-1
 965 837 l 1,23,-1
 902 889 902 889 833 926 c 0,26,-1
 762.5 963.5 762.5 963.5 671 977 c 1,29,-1
 671 141 l 1,30,-1
 717 145 717 145 770 164 c 0,33,-1
 817 182 817 182 853 202 c 0,36,-1
 887 222 887 222 917 244 c 0,39,-1
 939 259 939 259 965 281 c 1,42,-1
 975 281 l 1,43,-1
 975 83 l 1,44,-1
 910 53 910 53 840 30 c 0,47,-1
 766 5 766 5 671 1 c 1,50,-1
 671 -361 l 1,51,-1
 557 -361 l 1,52,-1
 557 2 l 1,0,-1
557 146 m 1,53,-1
 557 971 l 1,54,-1
 442 950 442 950 374 846 c 0,57,-1
 307 742 307 742 307 557 c 0,60,-1
 307 368 307 368 376 268 c 0,63,-1
 444 166 444 166 557 146 c 1,53,-1
EndSplineSet
EndChar
StartChar: sterling
Encoding: 163 163 102
Width: 1118
Flags: W
HStem: 0 171<261 1031> 613 138<130 291 483 847> 1351 167<620.4 812.8>
VStem: 291 192<474 613 751 1149>
Fore
1031 0 m 1,0,-1
 89 0 l 1,1,-1
 89 207 l 1,2,-1
 199 240 199 240 246 335 c 0,5,-1
 291 430 291 430 291 613 c 1,8,-1
 130 613 l 1,9,-1
 130 751 l 1,10,-1
 291 751 l 1,11,-1
 291 1071 l 2,12,-1
 291 1271 291 1271 407 1395 c 0,15,-1
 522 1518 522 1518 708 1518 c 0,18,-1
 807 1518 807 1518 874 1502 c 0,21,-1
 933 1489 933 1489 1001 1470 c 1,24,-1
 1001 1264 l 1,25,-1
 991 1264 l 1,26,-1
 930 1306 930 1306 862 1328 c 0,29,-1
 790 1351 790 1351 727 1351 c 0,32,-1
 604 1351 604 1351 544 1274 c 0,35,-1
 483 1198 483 1198 483 1052 c 2,38,-1
 483 751 l 1,39,-1
 847 751 l 1,40,-1
 847 613 l 1,41,-1
 483 613 l 1,42,-1
 483 552 l 2,43,-1
 483 433 483 433 424 340 c 0,46,-1
 367 244 367 244 261 182 c 1,49,-1
 261 171 l 1,50,-1
 1031 171 l 1,51,-1
 1031 0 l 1,0,-1
EndSplineSet
EndChar
StartChar: currency
Encoding: 164 164 103
Width: 1118
Flags: W
HStem: 326 138<491.1 626.3> 858 138<493.7 628.9>
VStem: 225 143<592.1 732.5> 752 144<589.5 729.9>
Fore
1057 272 m 1,0,-1
 951 166 l 1,1,-1
 737 378 l 1,2,-1
 694 352 694 352 653 338 c 0,5,-1
 614 326 614 326 560 326 c 0,8,-1
 513 326 513 326 468 341 c 0,11,-1
 424 355 424 355 385 379 c 1,14,-1
 170 164 l 1,15,-1
 65 273 l 1,16,-1
 277 486 l 1,17,-1
 255 521 255 521 238 572 c 0,20,-1
 225 624 225 624 225 661 c 0,23,-1
 225 701 225 701 238 750 c 0,26,-1
 254 797 254 797 278 835 c 1,29,-1
 65 1051 l 1,30,-1
 172 1157 l 1,31,-1
 386 944 l 1,32,-1
 426 969 426 969 469 982 c 0,35,-1
 517 996 517 996 560 996 c 0,38,-1
 613 996 613 996 658 980 c 0,41,-1
 701 966 701 966 736 945 c 1,44,-1
 948 1157 l 1,45,-1
 1057 1052 l 1,46,-1
 843 836 l 1,47,-1
 870 793 870 793 883 753 c 0,50,-1
 896 714 896 714 896 661 c 0,53,-1
 896 617 896 617 882 570 c 0,56,-1
 868 525 868 525 843 486 c 1,59,-1
 1057 272 l 1,0,-1
752 661 m 0,60,-1
 752 739 752 739 696 800 c 0,63,-1
 638 858 638 858 560 858 c 0,66,-1
 483 858 483 858 426 800 c 0,69,-1
 368 743 368 743 368 661 c 0,72,-1
 368 583 368 583 424 522 c 0,75,-1
 482 464 482 464 560 464 c 0,78,-1
 637 464 637 464 694 522 c 0,81,-1
 752 579 752 579 752 661 c 0,60,-1
EndSplineSet
EndChar
StartChar: yen
Encoding: 165 165 104
Width: 1118
Flags: W
HStem: 0 21G<465 653> 440 138<125 465 653 993>
VStem: 467 184<0 440 578 657>
Fore
1059 1489 m 1,0,-1
 651 678 l 1,1,-1
 651 578 l 1,2,-1
 993 578 l 1,3,-1
 993 440 l 1,4,-1
 653 440 l 1,5,-1
 653 0 l 1,6,-1
 465 0 l 1,7,-1
 465 440 l 1,8,-1
 125 440 l 1,9,-1
 125 578 l 1,10,-1
 467 578 l 1,11,-1
 467 657 l 1,12,-1
 56 1489 l 1,13,-1
 266 1489 l 1,14,-1
 560 850 l 1,15,-1
 858 1489 l 1,16,-1
 1059 1489 l 1,0,-1
EndSplineSet
EndChar
StartChar: brokenbar
Encoding: 166 166 105
Width: 783
Flags: W
VStem: 308 167<-392 406 758 1556>
Fore
475 758 m 1,0,-1
 308 758 l 1,1,-1
 308 1556 l 1,2,-1
 475 1556 l 1,3,-1
 475 758 l 1,0,-1
475 -392 m 1,4,-1
 308 -392 l 1,5,-1
 308 406 l 1,6,-1
 475 406 l 1,7,-1
 475 -392 l 1,4,-1
EndSplineSet
EndChar
StartChar: section
Encoding: 167 167 106
Width: 1118
Flags: W
HStem: -385 165<391.233 609.091> 1355 164<507.927 720.629>
VStem: 119 189<503.28 615.722> 148 192<1103.12 1252.7> 776 193<-90.4251 36.2955> 810 188<507.4 629.787>
Fore
759 401 m 0,0,-1
 784 437 784 437 796 468 c 0,3,-1
 810 499 810 499 810 555 c 0,6,-1
 810 603 810 603 796 640 c 0,9,-1
 780 677 780 677 756 699 c 0,12,-1
 733 721 733 721 700 738 c 0,15,-1
 673 751 673 751 626 766 c 0,18,-1
 593 776 593 776 549 788 c 2,21,-1
 450 819 l 1,22,-1
 430.5 807 430.5 807 408 789 c 0,25,-1
 386 770 386 770 361 738 c 0,28,-1
 343 715 343 715 324 668 c 0,31,-1
 308 622 308 622 308 579 c 0,34,-1
 308 499 308 499 346 450 c 0,37,-1
 383 402 383 402 492 369 c 2,40,-1
 570 346 l 1,41,-1
 667 315 l 1,42,-1
 683 325 683 325 711 348 c 0,45,-1
 736 368 736 368 759 401 c 0,0,-1
182 -133 m 1,48,-1
 191 -138 191 -138 246 -162 c 0,51,-1
 279 -176 279 -176 321 -190 c 0,54,-1
 373 -207 373 -207 408 -212 c 0,57,-1
 444 -220 444 -220 509 -220 c 0,60,-1
 620 -220 620 -220 700 -174 c 0,63,-1
 776 -125 776 -125 776 -36 c 0,66,-1
 776 18 776 18 758 52 c 0,69,-1
 738 86 738 86 698 111 c 0,72,-1
 657 136 657 136 594 154 c 2,75,-1
 460 192 l 2,76,-1
 370 218 370 218 314 243 c 0,79,-1
 255 268 255 268 208 312 c 0,82,-1
 164 351 164 351 141 407 c 0,85,-1
 119 460 119 460 119 533 c 0,88,-1
 119 627 119 627 168 712 c 0,91,-1
 218 797 218 797 318 858 c 1,94,-1
 318 865 l 1,95,-1
 228 914 228 914 188 986 c 0,98,-1
 148 1056 148 1056 148 1147 c 0,101,-1
 148 1315 148 1315 276 1417 c 0,104,-1
 404 1519 404 1519 628 1519 c 0,107,-1
 716 1519 716 1519 785 1506 c 0,110,-1
 864 1491 864 1491 946 1462 c 1,113,-1
 946 1268 l 1,114,-1
 936 1268 l 1,115,-1
 846 1313 846 1313 768 1334 c 0,118,-1
 692 1355 692 1355 607 1355 c 0,121,-1
 494.5 1355 494.5 1355 418 1310 c 0,124,-1
 340 1264 340 1264 340 1176 c 0,127,-1
 340 1120 340 1120 360 1083 c 0,130,-1
 381 1046 381 1046 420 1024 c 0,133,-1
 458 1001 458 1001 520 981 c 0,136,-1
 578 962 578 962 657 942 c 0,139,-1
 839 893 839 893 920 814 c 0,142,-1
 998 734.5 998 734.5 998 601 c 0,145,-1
 998 493 998 493 944 412 c 0,148,-1
 888 330 888 330 799 277 c 1,151,-1
 799 270 l 1,152,-1
 887 223 887 223 928 154 c 0,155,-1
 969 83 969 83 969 -10 c 0,158,-1
 969 -82 969 -82 938 -155 c 0,161,-1
 904 -228 904 -228 848 -274 c 0,164,-1
 785 -328 785 -328 700 -356 c 0,167,-1
 611 -385 611 -385 490 -385 c 0,170,-1
 414 -385 414 -385 333 -371 c 0,173,-1
 257 -358 257 -358 172 -327 c 1,176,-1
 172 -133 l 1,177,-1
 182 -133 l 1,48,-1
EndSplineSet
EndChar
StartChar: dieresis
Encoding: 168 168 107
Width: 1118
Flags: W
HStem: 1304 195<253 454 666 867>
VStem: 253 201<1304 1499> 666 201<1304 1499>
Fore
867 1304 m 1,0,-1
 666 1304 l 1,1,-1
 666 1499 l 1,2,-1
 867 1499 l 1,3,-1
 867 1304 l 1,0,-1
454 1304 m 1,4,-1
 253 1304 l 1,5,-1
 253 1499 l 1,6,-1
 454 1499 l 1,7,-1
 454 1304 l 1,4,-1
EndSplineSet
EndChar
StartChar: copyright
Encoding: 169 169 108
Width: 1902
Flags: W
HStem: -210 110<682.9 1221.1> 180 147<872.9 1072.79> 996 147<879.4 1066.8> 1409 110<682.9 1221.1>
VStem: 86 117<383.3 926.7> 531 185<519.6 809.5> 1701 115<383.3 926.7>
Fore
1816 655 m 0,0,-1
 1816 295 1816 295 1562 44 c 0,3,-1
 1311 -210 1311 -210 951 -210 c 0,6,-1
 591 -210 591 -210 340 44 c 0,9,-1
 86 295 86 295 86 655 c 0,12,-1
 86 1013 86 1013 340 1266 c 0,15,-1
 592 1519 592 1519 951 1519 c 0,18,-1
 1310 1519 1310 1519 1562 1266 c 0,21,-1
 1816 1013 1816 1013 1816 655 c 0,0,-1
1701 655 m 0,24,-1
 1701 969 1701 969 1482 1188 c 0,27,-1
 1262 1409 1262 1409 952 1409 c 0,30,-1
 642 1409 642 1409 422 1188 c 0,33,-1
 203 969 203 969 203 655 c 0,36,-1
 203 341.5 203 341.5 422 121 c 0,39,-1
 643 -100 643 -100 952 -100 c 0,42,-1
 1261 -100 1261 -100 1482 121 c 0,45,-1
 1701 341.5 1701 341.5 1701 655 c 0,24,-1
1274 255 m 1,48,-1
 1214 228 1214 228 1140 202 c 0,51,-1
 1069 180 1069 180 982 180 c 0,54,-1
 773 180 773 180 652 304 c 0,57,-1
 531 426 531 426 531 660 c 0,60,-1
 531 889 531 889 656 1016 c 0,63,-1
 780 1143 780 1143 982 1143 c 0,66,-1
 1066 1143 1066 1143 1141 1121 c 0,69,-1
 1216 1099 1216 1099 1274 1070 c 1,72,-1
 1274 889 l 1,73,-1
 1258 889 l 1,74,-1
 1215 926 1215 926 1139 962 c 0,77,-1
 1060 996 1060 996 986 996 c 0,80,-1
 862 996 862 996 790 914 c 0,83,-1
 716 833 716 833 716 660 c 0,86,-1
 716 498 716 498 786 412 c 0,89,-1
 857 327 857 327 986 327 c 0,92,-1
 1071 327 1071 327 1145 364 c 0,95,-1
 1222 401 1222 401 1258 434 c 1,98,-1
 1274 434 l 1,99,-1
 1274 255 l 1,48,-1
EndSplineSet
EndChar
StartChar: ordfeminine
Encoding: 170 170 109
Width: 1010
Flags: W
HStem: 541 155<381.049 518.441> 1030.26 132.744<389.974 751.319> 1365 154<379.788 595.933>
VStem: 114 172<784 913.86> 708 166<566 657 802 1045 1184 1257.94>
Fore
874 566 m 1,0,-1
 708 566 l 1,1,-1
 708 657 l 1,2,-1
 657 618 l 2,3,-1
 622 593 622 593 594 581 c 0,6,-1
 552 561 552 561 514 552 c 0,9,-1
 477 541 477 541 404 541 c 0,12,-1
 280 541 280 541 197 624 c 0,15,-1
 114 709 114 709 114 839 c 0,18,-1
 114 944 114 944 157 1008 c 0,21,-1
 201 1075 201 1075 280 1112 c 0,24,-1
 355 1148 355 1148 469 1163 c 0,27,-1
 583 1178 583 1178 708 1184 c 1,30,-1
 708 1203 l 2,31,-1
 708 1253 708 1253 692 1287 c 0,34,-1
 673 1320 673 1320 643 1337 c 0,37,-1
 613 1354 613 1354 571 1360 c 0,40,-1
 523 1365 523 1365 482 1365 c 0,43,-1
 405 1365 405 1365 324 1342 c 0,46,-1
 253 1321 253 1321 204 1304 c 1,49,-1
 189 1304 l 1,50,-1
 189 1474 l 1,51,-1
 223 1485 223 1485 320 1503 c 0,54,-1
 406 1519 406 1519 483 1519 c 0,57,-1
 676 1519 676 1519 774 1442 c 0,60,-1
 874 1367 874 1367 874 1194 c 2,63,-1
 874 566 l 1,0,-1
708 802 m 1,64,-1
 708 1045 l 1,65,-1
 639 1040 639 1040 557 1033 c 0,68,-1
 473 1026 473 1026 420 1010 c 0,71,-1
 361 994 361 994 323 954 c 0,74,-1
 286 917 286 917 286 849 c 0,77,-1
 286 774 286 774 330 735 c 0,80,-1
 374 696 374 696 461 696 c 0,83,-1
 536 696 536 696 598 729 c 0,86,-1
 661 764 661 764 708 802 c 1,64,-1
EndSplineSet
EndChar
StartChar: guillemotleft
Encoding: 171 171 110
Width: 1174
Flags: W
HStem: 162 980<613 613>
VStem: 103 940<191 608>
Fore
1043 191 m 1,0,-1
 555 610 l 1,1,-1
 555 695 l 1,2,-1
 1043 1113 l 1,3,-1
 1043 925 l 1,4,-1
 726 652 l 1,5,-1
 1043 379 l 1,6,-1
 1043 191 l 1,0,-1
613 162 m 1,7,-1
 103 608 l 1,8,-1
 103 697 l 1,9,-1
 613 1142 l 1,10,-1
 613 946 l 1,11,-1
 282 652 l 1,12,-1
 613 358 l 1,13,-1
 613 162 l 1,7,-1
EndSplineSet
EndChar
StartChar: logicalnot
Encoding: 172 172 111
Width: 1490
Flags: W
HStem: 602 160<157 1152>
VStem: 1152 171<57 602>
Fore
1323 57 m 1,0,-1
 1152 57 l 1,1,-1
 1152 602 l 1,2,-1
 157 602 l 1,3,-1
 157 762 l 1,4,-1
 1323 762 l 1,5,-1
 1323 57 l 1,0,-1
EndSplineSet
EndChar
StartChar: registered
Encoding: 174 174 113
Width: 1902
Flags: W
HStem: -210 110<682.9 1221.1> 570 126<815 938> 1005 125<815 1032.72> 1409 110<682.9 1221.1>
VStem: 86 117<383.3 926.7> 650 165<215 570 696 1005> 1120 182<793.085 929.294> 1701 115<383.3 926.7>
Fore
1816 655 m 0,0,-1
 1816 295 1816 295 1562 44 c 0,3,-1
 1311 -210 1311 -210 951 -210 c 0,6,-1
 591 -210 591 -210 340 44 c 0,9,-1
 86 295 86 295 86 655 c 0,12,-1
 86 1013 86 1013 340 1266 c 0,15,-1
 592 1519 592 1519 951 1519 c 0,18,-1
 1310 1519 1310 1519 1562 1266 c 0,21,-1
 1816 1013 1816 1013 1816 655 c 0,0,-1
1701 655 m 0,24,-1
 1701 969 1701 969 1482 1188 c 0,27,-1
 1262 1409 1262 1409 952 1409 c 0,30,-1
 642 1409 642 1409 422 1188 c 0,33,-1
 203 969 203 969 203 655 c 0,36,-1
 203 341.5 203 341.5 422 121 c 0,39,-1
 643 -100 643 -100 952 -100 c 0,42,-1
 1261 -100 1261 -100 1482 121 c 0,45,-1
 1701 341.5 1701 341.5 1701 655 c 0,24,-1
1448 215 m 1,48,-1
 1221 215 l 1,49,-1
 938 570 l 1,50,-1
 815 570 l 1,51,-1
 815 215 l 1,52,-1
 650 215 l 1,53,-1
 650 1130 l 1,54,-1
 929 1130 l 2,55,-1
 1026 1130 1026 1130 1078 1123 c 0,58,-1
 1133 1115 1133 1115 1188 1084 c 0,61,-1
 1248 1049 1248 1049 1275 1002 c 0,64,-1
 1302 954 1302 954 1302 879 c 0,67,-1
 1302 778 1302 778 1246 715 c 0,70,-1
 1193 652 1193 652 1102 615 c 1,73,-1
 1448 215 l 1,48,-1
1120 868 m 0,74,-1
 1120 905 1120 905 1108 932 c 0,77,-1
 1096 958 1096 958 1066 978 c 0,80,-1
 1041 994 1041 994 1010 1000 c 0,83,-1
 975 1005 975 1005 930 1005 c 2,86,-1
 815 1005 l 1,87,-1
 815 696 l 1,88,-1
 913 696 l 2,89,-1
 963 696 963 696 1003 706 c 0,92,-1
 1045 715 1045 715 1071 738 c 0,95,-1
 1098 762 1098 762 1108 791 c 0,98,-1
 1120 821 1120 821 1120 868 c 0,74,-1
EndSplineSet
EndChar
StartChar: macron
Encoding: 175 175 114
Width: 1118
Flags: W
HStem: 1659 130<-16 1134>
Fore
1134 1659 m 1,0,-1
 -16 1659 l 1,1,-1
 -16 1789 l 1,2,-1
 1134 1789 l 1,3,-1
 1134 1659 l 1,0,-1
EndSplineSet
EndChar
StartChar: degree
Encoding: 176 176 115
Width: 964
Flags: W
HStem: 755 152<401.4 565.2> 1363 152<398.8 565.2>
VStem: 101 157<1050.5 1218.2> 706 157<1053.1 1218.2>
Fore
863 1135 m 0,0,-1
 863 975 863 975 753 865 c 0,3,-1
 643 755 643 755 482 755 c 0,6,-1
 322 755 322 755 212 864 c 0,9,-1
 101 974 101 974 101 1135 c 0,12,-1
 101 1295 101 1295 211 1405 c 0,15,-1
 321 1515 321 1515 482 1515 c 0,18,-1
 643 1515 643 1515 753 1405 c 0,21,-1
 863 1295 863 1295 863 1135 c 0,0,-1
706 1135 m 0,24,-1
 706 1232 706 1232 642 1297 c 0,27,-1
 578 1363 578 1363 482 1363 c 0,30,-1
 386 1363 386 1363 322 1297 c 0,33,-1
 258 1232 258 1232 258 1135 c 0,36,-1
 258 1036 258 1036 324 972 c 0,39,-1
 389 907 389 907 482 907 c 0,42,-1
 578 907 578 907 642 974 c 0,45,-1
 706 1039 706 1039 706 1135 c 0,24,-1
EndSplineSet
EndChar
StartChar: plusminus
Encoding: 177 177 116
Width: 1490
Flags: W
HStem: 159 158<162 662 828 1328> 739 158<162 662 828 1328>
VStem: 662 166<317 739 897 1402>
Fore
1328 159 m 1,0,-1
 162 159 l 1,1,-1
 162 317 l 1,2,-1
 662 317 l 1,3,-1
 662 739 l 1,4,-1
 162 739 l 1,5,-1
 162 897 l 1,6,-1
 662 897 l 1,7,-1
 662 1402 l 1,8,-1
 828 1402 l 1,9,-1
 828 897 l 1,10,-1
 1328 897 l 1,11,-1
 1328 739 l 1,12,-1
 828 739 l 1,13,-1
 828 317 l 1,14,-1
 1328 317 l 1,15,-1
 1328 159 l 1,0,-1
EndSplineSet
EndChar
StartChar: uni00B2
Encoding: 178 178 117
Width: 1010
Flags: W
HStem: 566 144<373 866> 1371 148<377.984 527.709>
VStem: 619 185<1153.87 1288.38>
Fore
866 566 m 1,0,-1
 185 566 l 1,1,-1
 185 718 l 1,2,-1
 332 832 l 2,3,-1
 404 886 404 886 447 929 c 0,6,-1
 552 1030 552 1030 586 1088 c 0,9,-1
 619 1146 619 1146 619 1227 c 0,12,-1
 619 1295 619 1295 576 1334 c 0,15,-1
 531 1371 531 1371 457 1371 c 0,18,-1
 387 1371 387 1371 318 1341 c 0,21,-1
 248 1312 248 1312 206 1279 c 1,24,-1
 191 1279 l 1,25,-1
 191 1458 l 1,26,-1
 255 1486 255 1486 330 1502 c 0,29,-1
 410 1519 410 1519 481 1519 c 0,32,-1
 638 1519 638 1519 720 1440 c 0,35,-1
 804 1362 804 1362 804 1239 c 0,38,-1
 804 1153 804 1153 764 1076 c 0,41,-1
 726 998 726 998 617 900 c 0,44,-1
 569 858 569 858 496 802 c 2,47,-1
 373 710 l 1,48,-1
 866 710 l 1,49,-1
 866 566 l 1,0,-1
EndSplineSet
EndChar
StartChar: uni00B3
Encoding: 179 179 118
Width: 1010
Flags: W
HStem: 542 139<378.14 553.376> 968 139<334 521.018> 1380 139<394.157 554.152>
VStem: 641 173<1205.6 1303.04> 665 172<763.6 888.4>
Fore
837 828 m 0,0,-1
 837 757 837 757 807 700 c 0,3,-1
 777 644 777 644 729 611 c 0,6,-1
 678 575 678 575 614 558 c 0,9,-1
 556 542 556 542 474 542 c 0,12,-1
 392 542 392 542 320 557 c 0,15,-1
 245 573 245 573 184 600 c 1,18,-1
 184 775 l 1,19,-1
 201 775 l 1,20,-1
 239 740 239 740 315 710 c 0,23,-1
 393 681 393 681 471 681 c 0,26,-1
 555 681 555 681 610 718 c 0,29,-1
 665 754 665 754 665 826 c 0,32,-1
 665 898 665 898 622 933 c 0,35,-1
 576 968 576 968 474 968 c 2,38,-1
 334 968 l 1,39,-1
 334 1107 l 1,40,-1
 459 1107 l 2,41,-1
 545 1107 545 1107 594 1145 c 0,44,-1
 641 1183 641 1183 641 1249 c 0,47,-1
 641 1309 641 1309 600 1344 c 0,50,-1
 560 1380 560 1380 472 1380 c 0,53,-1
 404 1380 404 1380 330 1349 c 0,56,-1
 255 1319 255 1319 216 1283 c 1,59,-1
 199 1283 l 1,60,-1
 199 1458 l 1,61,-1
 267 1486 267 1486 338 1502 c 0,64,-1
 415 1519 415 1519 492 1519 c 0,67,-1
 644 1519 644 1519 729 1449 c 0,70,-1
 814 1379 814 1379 814 1281 c 0,73,-1
 814 1194 814 1194 766 1138 c 0,76,-1
 716 1080 716 1080 640 1055 c 1,79,-1
 640 1047 l 1,80,-1
 723 1030 723 1030 778 976 c 0,83,-1
 837 923 837 923 837 828 c 0,0,-1
EndSplineSet
EndChar
StartChar: acute
Encoding: 180 180 119
Width: 1118
Flags: W
HStem: 1302 374<598 871>
VStem: 449 422<1302 1676>
Fore
871 1676 m 1,0,-1
 598 1302 l 1,1,-1
 449 1302 l 1,2,-1
 628 1676 l 1,3,-1
 871 1676 l 1,0,-1
EndSplineSet
EndChar
StartChar: mu
Encoding: 181 181 120
Width: 1163
Flags: W
HStem: -17 181<489.251 666.626>
VStem: 136 188<-412 115 275 1117> 839 188<275 1117> 855 172<0 116>
Fore
1027 0 m 1,0,-1
 855 0 l 1,1,-1
 855 116 l 1,2,-1
 849 116 l 1,3,-1
 787 51 787 51 728 18 c 0,6,-1
 667 -17 667 -17 578 -17 c 0,9,-1
 486 -17 486 -17 433 18 c 0,12,-1
 380 53 380 53 324 115 c 1,15,-1
 324 -412 l 1,16,-1
 136 -412 l 1,17,-1
 136 1117 l 1,18,-1
 324 1117 l 1,19,-1
 324 275 l 1,20,-1
 366 225.5 366 225.5 429 194 c 0,23,-1
 492 164 492 164 578 164 c 0,26,-1
 666 164 666 164 730 193 c 0,29,-1
 790 222 790 222 839 275 c 1,32,-1
 839 1117 l 1,33,-1
 1027 1117 l 1,34,-1
 1027 0 l 1,0,-1
EndSplineSet
EndChar
StartChar: paragraph
Encoding: 182 182 121
Width: 1118
Flags: W
HStem: 1359 130<655 842>
VStem: 515 140<-363 593> 842 140<-363 1359>
Fore
982 -363 m 1,0,-1
 842 -363 l 1,1,-1
 842 1359 l 1,2,-1
 655 1359 l 1,3,-1
 655 -363 l 1,4,-1
 515 -363 l 1,5,-1
 515 593 l 1,6,-1
 309 598 309 598 183 722 c 0,9,-1
 57 846 57 846 57 1050 c 0,12,-1
 57 1258 57 1258 187 1373 c 0,15,-1
 318 1489 318 1489 560 1489 c 2,18,-1
 982 1489 l 1,19,-1
 982 -363 l 1,0,-1
EndSplineSet
EndChar
StartChar: periodcentered
Encoding: 183 183 122
Width: 724
Flags: W
HStem: 832 285<243 482>
VStem: 243 239<832 1117>
Fore
482 832 m 1,0,-1
 243 832 l 1,1,-1
 243 1117 l 1,2,-1
 482 1117 l 1,3,-1
 482 832 l 1,0,-1
EndSplineSet
EndChar
StartChar: cedilla
Encoding: 184 184 123
Width: 1118
Flags: W
HStem: -423 150<364.259 524.825>
VStem: 614 159<-185.915 -8.19973>
Fore
767 20 m 1,0,-1
 769 1 769 1 770 -26 c 0,3,-1
 773 -53 773 -53 773 -89 c 0,6,-1
 773 -252 773 -252 686 -337 c 0,9,-1
 598 -423 598 -423 466 -423 c 0,12,-1
 428.5 -423 428.5 -423 379 -417 c 0,15,-1
 329.5 -411 329.5 -411 289 -399 c 1,18,-1
 289 -239 l 1,19,-1
 298 -239 l 1,20,-1
 326 -251 326 -251 361 -262 c 0,23,-1
 402 -273 402 -273 440 -273 c 0,26,-1
 534 -273 534 -273 574 -234 c 0,29,-1
 614 -194 614 -194 614 -107 c 0,32,-1
 614 -71 614 -71 613 -50 c 0,35,-1
 611 -16 611 -16 610 20 c 1,38,-1
 767 20 l 1,0,-1
EndSplineSet
EndChar
StartChar: uni0E01
Encoding: 3585 3585 124
Width: 1376
VWidth: 2045
Flags: MW
HStem: 0 21G<241 421 998 1178> 744 178<422 512> 1101 178<603.282 712.464 566.036 714>
VStem: 241 181<0 744> 998 180<0 933.371>
Fore
101 744 m 1,0,-1
 241 744 l 1,1,-1
328 922 m 9,2,-1
 512 922 l 1,3,-1
 512 744 l 1,4,-1
 422 744 l 1,5,-1
 421 0 l 1,6,-1
 241 0 l 1,7,-1
 241 744 l 1,8,-1
 101 744 l 1,9,10
 101 890.948 101 890.948 172.369 1012.13 c 128,-1,11
 243.737 1133.3 243.737 1133.3 368.405 1206.15 c 128,-1,12
 493.072 1279 493.072 1279 639 1279 c 0,13,14
 785.928 1279 785.928 1279 909.639 1206.71 c 128,-1,15
 1033.35 1134.42 1033.35 1134.42 1105.67 1012.05 c 128,-1,16
 1178 889.67 1178 889.67 1178 744 c 2,17,-1
 1178 0 l 1,18,-1
 998 0 l 1,19,-1
 998 744 l 2,20,21
 998 892 998 892 893.5 996.5 c 128,-1,22
 789 1101 789 1101 639 1101 c 0,23,24
 567.563 1101 567.563 1101 506.324 1078.1 c 128,-1,25
 445.085 1055.19 445.085 1055.19 400.2 1009.53 c 128,-1,26
 355.314 963.858 355.314 963.858 328 922 c 9,2,-1
EndSplineSet
EndChar
StartChar: uni0E02
Encoding: 3586 3586 125
Width: 1352
VWidth: 2045
Flags: W
HStem: 0 178<382 470 651 973> 689 133<264.6 363.4> 1091 178<449 545.2>
VStem: 89 134<863.9 958.8> 403 136<865.2 958.8> 470 180<178 625.5> 629 180<780.3 1009.1> 973 180<178 1254>
Fore
449 1091 m 5,0,-1
 473 1069 l 6,1,2
 539 1003 539 1003 539 911 c 4,3,4
 539 818 539 818 472 754 c 4,5,6
 407 689 407 689 313 689 c 132,-1,7
 219 689 219 689 154 754 c 132,-1,8
 89 819 89 819 89 939 c 132,-1,9
 89 1059 89 1059 194 1164 c 132,-1,10
 299 1269 299 1269 449 1269 c 4,11,12
 598 1269 598 1269 703.5 1163.5 c 132,-1,13
 809 1058 809 1058 809 904 c 4,14,15
 809 749 809 749 729.5 671.5 c 132,-1,16
 650 594 650 594 650 489 c 6,17,-1
 651 178 l 5,18,-1
 973 178 l 5,19,-1
 973 1254 l 5,20,-1
 1153 1254 l 5,21,-1
 1153 0 l 5,22,-1
 382 0 l 5,23,-1
 382 178 l 5,24,-1
 470 178 l 5,25,-1
 470 489 l 6,26,27
 470 651 470 651 549.5 729 c 132,-1,28
 629 807 629 807 629 896 c 4,29,30
 629 983 629 983 576 1037 c 132,-1,31
 523 1091 523 1091 449 1091 c 5,0,-1
223 912 m 4,32,33
 223 875 223 875 250 848 c 4,34,35
 276 822 276 822 314 822 c 132,-1,36
 352 822 352 822 377 848 c 4,37,38
 403 876 403 876 403 912 c 132,-1,39
 403 948 403 948 377 974 c 132,-1,40
 351 1000 351 1000 314 1000 c 4,41,42
 278 1000 278 1000 250 974 c 4,43,44
 223 948 223 948 223 912 c 4,32,33
EndSplineSet
EndChar
StartChar: uni0E03
Encoding: 3587 3587 126
Width: 1376
VWidth: 2045
Flags: W
HStem: 0 178<433 524 704 1026> 586 133<225.5 317.8>
VStem: 29 152<760.9 867> 361 136<762.2 854.5> 524 180<178 568.8> 681 180<806.4 991> 1026 180<178 1254>
Fore
224 1015 m 1,0,1
 254 1026 254 1026 281 1029 c 0,2,3
 351 1033 351 1033 424 973.5 c 128,-1,4
 497 914 497 914 497 815 c 128,-1,5
 497 716 497 716 430 651 c 128,-1,6
 363 586 363 586 271 586 c 0,7,8
 174 586 174 586 102.5 662 c 128,-1,9
 31 738 31 738 29 867 c 0,10,11
 29 1022 29 1022 102.5 1128 c 128,-1,12
 176 1234 176 1234 311 1258 c 1,13,-1
 453 1175 l 1,14,-1
 601 1257 l 1,15,16
 695 1232 695 1232 779 1147 c 128,-1,17
 863 1062 863 1062 861 903 c 0,18,19
 859 764 859 764 781 652 c 128,-1,20
 703 540 703 540 704 444 c 2,21,-1
 704 178 l 1,22,-1
 1026 178 l 1,23,-1
 1026 1254 l 1,24,-1
 1206 1254 l 1,25,-1
 1206 0 l 1,26,-1
 433 0 l 1,27,-1
 433 178 l 1,28,-1
 524 178 l 1,29,-1
 524 444 l 2,30,31
 524 594 524 594 602.5 711 c 128,-1,32
 681 828 681 828 681 900 c 0,33,34
 681 970 681 970 644.5 1021.5 c 128,-1,35
 608 1073 608 1073 553 1100 c 1,36,-1
 451 1042 l 1,37,-1
 345 1103 l 1,38,39
 254 1097 254 1097 224 1015 c 1,0,1
181 809 m 0,40,41
 181 772 181 772 208.5 745.5 c 128,-1,42
 236 719 236 719 271 719 c 0,43,44
 307 719 307 719 334 746 c 128,-1,45
 361 773 361 773 361 809 c 0,46,47
 361 844 361 844 335 870.5 c 128,-1,48
 309 897 309 897 271 897 c 0,49,50
 234 897 234 897 207.5 871 c 128,-1,51
 181 845 181 845 181 809 c 0,40,41
EndSplineSet
EndChar
StartChar: uni0E04
Encoding: 3588 3588 127
Width: 1407
VWidth: 2045
Flags: MW
HStem: 0 21G<161 341 1040 1220> 463 133<640.5 734.1> 774 133<637.9 735.4> 1101 178<617.5 764 617.5 765>
VStem: 161 180<332 940.556> 776 136<636.25 733.1> 1040 180<0 933.15>
Fore
341 0 m 1,0,-1
 161 0 l 1,1,-1
 161 744 l 2,2,3
 161 906.315 161 906.315 229 1020.66 c 128,-1,4
 297 1135 297 1135 420.5 1207 c 128,-1,5
 544 1279 544 1279 691 1279 c 4,6,7
 837 1279 837 1279 961.5 1206.5 c 128,-1,8
 1086 1134 1086 1134 1153 1011.75 c 128,-1,9
 1220 889.5 1220 889.5 1220 744 c 2,10,-1
 1220 0 l 1,11,-1
 1040 0 l 1,12,-1
 1040 743 l 2,13,14
 1040 900.953 1040 900.953 939.5 1000.98 c 128,-1,15
 839 1101 839 1101 691 1101 c 4,16,17
 539 1101 539 1101 440 998.099 c 128,-1,18
 341 895.197 341 895.197 341 744 c 2,19,-1
 341 332 l 1,20,-1
 482 779 l 2,21,22
 489.329 802.234 489.329 802.234 543 857 c 0,23,24
 592 907 592 907 686 907 c 128,-1,25
 780 907 780 907 846 842.5 c 128,-1,26
 912 778 912 778 912 685 c 0,27,28
 912 594 912 594 844 528 c 128,-1,29
 776 462 776 462 686 463 c 0,30,31
 592 463 592 463 532 528 c 1,32,-1
 341 0 l 1,0,-1
596 685 m 0,33,34
 596 647.5 596 647.5 623.5 621.75 c 128,-1,35
 651 596 651 596 686 596 c 0,36,37
 723 596 723 596 749.5 621.75 c 128,-1,38
 776 647.5 776 647.5 776 685 c 0,39,40
 776 722 776 722 750 748 c 128,-1,41
 724 774 724 774 686 774 c 0,42,43
 649 774 649 774 622.5 748 c 128,-1,44
 596 722 596 722 596 685 c 0,33,34
EndSplineSet
EndChar
StartChar: uni0E05
Encoding: 3589 3589 128
Width: 1426
VWidth: 2045
Flags: W
HStem: 0 21G<166 346 1066 1246> 429 134<654.2 749.1> 742 134<654.2 749.1>
VStem: 166 178<314 983.6> 791 136<605.2 700.1> 1066 180<0 970>
Fore
939 1254 m 1,0,1
 1073 1230 1073 1230 1159.5 1112 c 128,-1,2
 1246 994 1246 994 1246 825 c 6,3,-1
 1246 0 l 1,4,-1
 1066 0 l 1,5,-1
 1066 823 l 6,6,7
 1066 970 1066 970 1027.5 1010.5 c 128,-1,8
 989 1051 989 1051 939 1075 c 1,9,-1
 707 927 l 1,10,-1
 485 1072 l 1,11,12
 442 1068 442 1068 393 1007.5 c 128,-1,13
 344 947 344 947 344 825 c 2,14,-1
 344 314 l 1,15,-1
 497 746 l 2,16,17
 511 786 511 786 562.5 831 c 128,-1,18
 614 876 614 876 704 876 c 128,-1,19
 794 876 794 876 860.5 811 c 128,-1,20
 927 746 927 746 927 652 c 0,21,22
 927 559 927 559 859.75 494 c 128,-1,23
 792.5 429 792.5 429 701 429 c 0,24,25
 607 430 607 430 547 495 c 1,26,-1
 346 0 l 1,27,-1
 166 0 l 1,28,-1
 166 825 l 2,29,30
 166 1000 166 1000 249.5 1113.5 c 128,-1,31
 333 1227 333 1227 473 1254 c 1,32,-1
 707 1104 l 1,33,-1
 939 1254 l 1,0,1
611 652 m 0,34,35
 611 616 611 616 638 589.5 c 128,-1,36
 665 563 665 563 701 563 c 0,37,38
 738 563 738 563 764.5 589.5 c 128,-1,39
 791 616 791 616 791 652 c 0,40,41
 791 689 791 689 764.5 715.5 c 128,-1,42
 738 742 738 742 701 742 c 0,43,44
 665 742 665 742 638 715.75 c 128,-1,45
 611 689.5 611 689.5 611 652 c 0,34,35
EndSplineSet
EndChar
StartChar: uni0E06
Encoding: 3590 3590 129
Width: 1576
VWidth: 2045
Flags: W
HStem: -8 177<476.6 575.4> 347 177<475.3 576.7> 586 133<301.2 393.5>
VStem: 98 160<762.2 867> 258 178<209.9 307.4> 438 136<760.9 855.8> 758 180<805.1 992.3> 1218 180<178 1254>
Fore
794 237 m 17,0,1
 787 142 787 142 712 67 c 128,-1,2
 637 -8 637 -8 526 -8 c 0,3,4
 416 -8 416 -8 337 70 c 128,-1,5
 258 148 258 148 258 258 c 128,-1,6
 258 368 258 368 337 446 c 128,-1,7
 416 524 416 524 526 524 c 0,8,9
 578 524 578 524 620 508 c 1,10,11
 641 667 641 667 699.5 747 c 128,-1,12
 758 827 758 827 758 900 c 0,13,14
 758 971 758 971 722.5 1021.5 c 128,-1,15
 687 1072 687 1072 630 1100 c 1,16,-1
 527 1042 l 1,17,-1
 421 1103 l 1,18,19
 332 1097 332 1097 300 1015 c 1,20,21
 333 1026 333 1026 357 1029 c 0,22,23
 428 1033 428 1033 501 973.5 c 128,-1,24
 574 914 574 914 574 815 c 128,-1,25
 574 716 574 716 507 651 c 128,-1,26
 440 586 440 586 348 586 c 0,27,28
 253 586 253 586 176 664.5 c 128,-1,29
 99 743 99 743 98 867 c 0,30,31
 98 1013 98 1013 175.5 1123.5 c 128,-1,32
 253 1234 253 1234 387 1258 c 1,33,-1
 529 1175 l 1,34,-1
 677 1257 l 1,35,36
 771 1232 771 1232 855.5 1147 c 128,-1,37
 940 1062 940 1062 938 916 c 128,-1,38
 936 770 936 770 865.5 667 c 128,-1,39
 795 564 795 564 794 415 c 1,40,-1
 1218 178 l 1,41,-1
 1218 1254 l 1,42,-1
 1398 1254 l 1,43,-1
 1398 0 l 1,44,-1
 1218 0 l 1,45,-1
 794 237 l 17,0,1
436 258 m 0,46,47
 436 221 436 221 462 195 c 128,-1,48
 488 169 488 169 526 169 c 128,-1,49
 564 169 564 169 590 195 c 128,-1,50
 616 221 616 221 616 258 c 0,51,52
 616 296 616 296 590.5 321.5 c 128,-1,53
 565 347 565 347 526 347 c 128,-1,54
 487 347 487 347 461.5 321.5 c 128,-1,55
 436 296 436 296 436 258 c 0,46,47
258 809 m 0,56,57
 258 773 258 773 285 746 c 128,-1,58
 312 719 312 719 348 719 c 0,59,60
 383 719 383 719 410.5 745.5 c 128,-1,61
 438 772 438 772 438 809 c 0,62,63
 438 845 438 845 411.5 871 c 128,-1,64
 385 897 385 897 348 897 c 0,65,66
 310 897 310 897 284 870.5 c 128,-1,67
 258 844 258 844 258 809 c 0,56,57
EndSplineSet
EndChar
StartChar: uni0E07
Encoding: 3591 3591 130
Width: 1031
VWidth: 2045
Flags: W
HStem: 0 21G<665 845> 814 134<570.6 668.1> 1127 133<570.6 669.4>
VStem: 395 134<988.25 1085.75> 665 180<219 819> 709 136<988.9 1085.1>
Fore
665 0 m 5,0,-1
 87 571 l 5,1,-1
 196 681 l 5,2,-1
 665 219 l 5,3,-1
 665 819 l 5,4,5
 640 814 640 814 620 814 c 4,6,7
 526 814 526 814 460.5 880.5 c 132,-1,8
 395 947 395 947 395 1038 c 4,9,10
 395 1128 395 1128 461 1194 c 132,-1,11
 527 1260 527 1260 619 1260 c 132,-1,12
 711 1260 711 1260 778 1194 c 132,-1,13
 845 1128 845 1128 845 1036 c 6,14,-1
 845 0 l 5,15,-1
 665 0 l 5,0,-1
529 1037 m 132,-1,17
 529 999.5 529 999.5 555.5 973.75 c 132,-1,18
 582 948 582 948 620 948 c 4,19,20
 657 948 657 948 683 974 c 132,-1,21
 709 1000 709 1000 709 1037 c 132,-1,22
 709 1074 709 1074 683.5 1100.5 c 132,-1,23
 658 1127 658 1127 620 1127 c 132,-1,24
 582 1127 582 1127 555.5 1100.75 c 132,-1,16
 529 1074.5 529 1074.5 529 1037 c 132,-1,17
EndSplineSet
EndChar
StartChar: uni0E08
Encoding: 3592 3592 131
Width: 1288
VWidth: 2045
Flags: MW
HStem: 0 21G<758 944> 431 134<522.9 619.1> 744 133<524.2 617.8> 1098 178<541 670.5>
VStem: 112 180<786 955> 346 134<607.2 702.1> 920 180<720.335 952.4>
Fore
112 786 m 17,0,1
 112 919.5 112 919.5 178 1031.75 c 128,-1,2
 244 1144 244 1144 358 1210 c 128,-1,3
 472 1276 472 1276 606 1276 c 132,-1,4
 740 1276 740 1276 853.5 1210 c 128,-1,5
 967 1144 967 1144 1033.5 1031 c 128,-1,6
 1100 918 1100 918 1100 786 c 0,7,8
 1100 738.254 1100 738.254 1086 672 c 2,9,-1
 944 0 l 1,10,-1
 758 0 l 1,11,-1
 665 451 l 1,12,13
 622 431 622 431 572 431 c 0,14,15
 478 431 478 431 412 497 c 128,-1,16
 346 563 346 563 346 655 c 0,17,18
 346 748 346 748 412.5 812.5 c 128,-1,19
 479 877 479 877 570 877 c 0,20,21
 663 877 663 877 722 819.5 c 0,22,23
 780.474 762.513 780.474 762.513 790 706 c 2,24,-1
 849 356 l 1,25,-1
 910 712 l 2,26,27
 920 770.361 920 770.361 920 786 c 0,28,29
 921 914 921 914 828 1006 c 128,-1,30
 735 1098 735 1098 606 1098 c 4,31,32
 476 1098 476 1098 384 1007 c 128,-1,33
 292 916 292 916 292 786 c 1,34,-1
 112 786 l 17,0,1
480 654 m 0,35,36
 480 618 480 618 507 591.5 c 128,-1,37
 534 565 534 565 571 565 c 128,-1,38
 608 565 608 565 634 591 c 128,-1,39
 660 617 660 617 660 654 c 0,40,41
 660 692 660 692 633.5 718 c 128,-1,42
 607 744 607 744 571 744 c 128,-1,43
 535 744 535 744 507.5 717.5 c 128,-1,44
 480 691 480 691 480 654 c 0,35,36
EndSplineSet
EndChar
StartChar: uni0E09
Encoding: 3593 3593 132
Width: 1466
VWidth: 2045
Flags: MW
HStem: -8 134<1069.9 1166.1> 350 134<329.5 423.1> 662 133<326.9 424.4> 1101 178<594.5 742 594.5 742.5>
VStem: 149 136<524.25 619.8> 421 180<178 354> 465 136<524.25 619.8> 1028 180<420 931.5> 1208 135<168.2 261.8>
Fore
152 904 m 17,0,1
 171 962 171 962 201 1011 c 0,2,3
 273 1134 273 1134 397 1206.5 c 128,-1,4
 521 1279 521 1279 668 1279 c 4,5,6
 816 1279 816 1279 939.5 1206.5 c 128,-1,7
 1063 1134 1063 1134 1135.5 1011 c 128,-1,8
 1208 888 1208 888 1208 743 c 2,9,-1
 1208 420 l 1,10,11
 1244 406 1244 406 1278 373 c 0,12,13
 1343 308 1343 308 1343 216 c 128,-1,14
 1343 124 1343 124 1277 58 c 128,-1,15
 1211 -8 1211 -8 1118 -8 c 0,16,17
 1022.7 -7.99999 1022.7 -7.99999 959 57 c 0,18,19
 910 107 910 107 898 172 c 1,20,-1
 601 0 l 1,21,-1
 421 0 l 1,22,-1
 421 354 l 1,23,24
 402 350 402 350 375 350 c 0,25,26
 271.847 350 271.847 350 215.5 405.5 c 0,27,28
 149 471 149 471 149 573 c 0,29,30
 149 665 149 665 215 730 c 128,-1,31
 281 795 281 795 375 795 c 128,-1,32
 469 795 469 795 534.5 729.5 c 0,33,34
 601 664 601 664 601 572 c 2,35,-1
 601 178 l 1,36,-1
 1014 414 l 2,37,38
 1017.82 416.182 1017.82 416.182 1028 420 c 1,39,-1
 1028 743 l 2,40,41
 1028 890 1028 890 922.5 995.5 c 128,-1,42
 817 1101 817 1101 668 1101 c 132,-1,43
 519 1101 519 1101 413 995 c 0,44,45
 348 930 348 930 323 851 c 1,46,-1
 152 904 l 17,0,1
1028 215 m 0,47,48
 1028 178 1028 178 1054.5 152 c 128,-1,49
 1081 126 1081 126 1118 126 c 128,-1,50
 1155 126 1155 126 1181.5 152.5 c 128,-1,51
 1208 179 1208 179 1208 215 c 128,-1,52
 1208 251 1208 251 1181 278 c 128,-1,53
 1154 305 1154 305 1118 305 c 128,-1,54
 1082 305 1082 305 1055 279 c 128,-1,55
 1028 253 1028 253 1028 215 c 0,47,48
285 573 m 0,56,57
 285 535.5 285 535.5 312.5 509.75 c 128,-1,58
 340 484 340 484 375 484 c 0,59,60
 412 484 412 484 438.5 509.75 c 128,-1,61
 465 535.5 465 535.5 465 573 c 0,62,63
 465 609 465 609 439 635.5 c 128,-1,64
 413 662 413 662 375 662 c 0,65,66
 338 662 338 662 311.5 635.5 c 128,-1,67
 285 609 285 609 285 573 c 0,56,57
EndSplineSet
EndChar
StartChar: uni0E0A
Encoding: 3594 3594 133
Width: 1355
VWidth: 2045
Flags: W
HStem: 0 178<372 460 641 963> 689 133<254.6 353.4> 1091 178<439 535.2>
VStem: 79 134<863.9 958.8> 393 136<865.2 958.8> 460 181<178 594> 619 180<780.3 1009.1> 963 180<178 804> 1073 180<1206 1362>
Fore
917 846 m 1,0,-1
 917 1024 l 1,1,2
 972 1070 972 1070 1022.5 1156 c 128,-1,3
 1073 1242 1073 1242 1073 1362 c 1,4,-1
 1253 1362 l 1,5,6
 1253 1194 1253 1194 1193.75 1092.75 c 128,-1,7
 1134.5 991.5 1134.5 991.5 1091 942 c 1,8,9
 1143 881 1143 881 1143 804 c 2,10,-1
 1143 0 l 1,11,-1
 372 0 l 1,12,-1
 372 178 l 1,13,-1
 460 178 l 1,14,-1
 460 489 l 2,15,16
 460 651 460 651 539.5 729 c 128,-1,17
 619 807 619 807 619 896 c 0,18,19
 619 983 619 983 566 1037 c 128,-1,20
 513 1091 513 1091 439 1091 c 5,21,-1
 463 1069 l 2,22,23
 529 1003 529 1003 529 911 c 0,24,25
 529 818 529 818 463 753.5 c 128,-1,26
 397 689 397 689 303 689 c 128,-1,27
 209 689 209 689 144 754 c 128,-1,28
 79 819 79 819 79 939 c 128,-1,29
 79 1059 79 1059 184 1164 c 128,-1,30
 289 1269 289 1269 439 1269 c 4,31,32
 588 1269 588 1269 693.5 1163.5 c 128,-1,33
 799 1058 799 1058 799 904 c 0,34,35
 799 749 799 749 719.5 671.5 c 128,-1,36
 640 594 640 594 640 489 c 2,37,-1
 641 178 l 1,38,-1
 963 178 l 1,39,-1
 963 804 l 2,40,41
 963 837 963 837 917 846 c 1,0,-1
213 912 m 0,42,43
 213 875 213 875 239.5 848.5 c 128,-1,44
 266 822 266 822 304 822 c 128,-1,45
 342 822 342 822 367.5 849 c 128,-1,46
 393 876 393 876 393 912 c 128,-1,47
 393 948 393 948 367 974 c 128,-1,48
 341 1000 341 1000 304 1000 c 0,49,50
 268 1000 268 1000 240.5 974 c 128,-1,51
 213 948 213 948 213 912 c 0,42,43
EndSplineSet
EndChar
StartChar: uni0E0B
Encoding: 3595 3595 134
Width: 1440
VWidth: 2045
Flags: W
HStem: 0 178<477 565 747 1068> 586 133<264.6 363.4>
VStem: 71 152<760.9 867> 404 134<762.2 854.5> 565 180<178 567.5> 724 180<809 992.3> 1068 180<178 804> 1178 180<1203.4 1362>
Fore
223 809 m 4,0,1
 223 772 223 772 250 745 c 4,2,3
 276 719 276 719 314 719 c 132,-1,4
 352 719 352 719 378 745 c 4,5,6
 404 773 404 773 404 809 c 4,7,8
 404 844 404 844 378 872 c 4,9,10
 353 897 353 897 314 897 c 132,-1,11
 275 897 275 897 250 872 c 4,12,13
 223 845 223 845 223 809 c 4,0,1
565 444 m 6,14,15
 565 595 565 595 644.5 712.5 c 132,-1,16
 724 830 724 830 724 900 c 4,17,18
 724 971 724 971 688.5 1021.5 c 132,-1,19
 653 1072 653 1072 596 1100 c 5,20,-1
 494 1042 l 5,21,-1
 388 1103 l 5,22,23
 298 1097 298 1097 266 1015 c 5,24,25
 298 1026 298 1026 324 1029 c 4,26,27
 393 1033 393 1033 465.5 973.5 c 132,-1,28
 538 914 538 914 538 815 c 132,-1,29
 538 716 538 716 472.5 651 c 132,-1,30
 407 586 407 586 314 586 c 4,31,32
 215 586 215 586 143.5 662.5 c 132,-1,33
 72 739 72 739 71 867 c 4,34,35
 71 1022 71 1022 145.5 1128 c 132,-1,36
 220 1234 220 1234 353 1258 c 5,37,-1
 495 1175 l 5,38,-1
 643 1257 l 5,39,40
 739 1231 739 1231 822 1146.5 c 132,-1,41
 905 1062 905 1062 904 903 c 4,42,43
 903 766 903 766 824 652.5 c 132,-1,44
 745 539 745 539 745 444 c 6,45,-1
 747 178 l 5,46,-1
 1068 178 l 5,47,-1
 1068 804 l 6,48,49
 1068 837 1068 837 1023 846 c 5,50,-1
 1023 1024 l 5,51,52
 1079 1073 1079 1073 1128.5 1156.5 c 132,-1,53
 1178 1240 1178 1240 1178 1362 c 5,54,-1
 1358 1362 l 5,55,56
 1358 1195 1358 1195 1298 1092.5 c 132,-1,57
 1238 990 1238 990 1196 942 c 5,58,59
 1248 881 1248 881 1248 804 c 6,60,-1
 1248 0 l 5,61,-1
 477 0 l 5,62,-1
 477 178 l 5,63,-1
 565 178 l 5,64,-1
 565 444 l 6,14,15
EndSplineSet
EndChar
StartChar: uni0E0C
Encoding: 3596 3596 135
Width: 1924
VWidth: 2045
Flags: MW
HStem: -8 134<412.9 507.8 947.2 1042.1> 305 133<412.9 506.5> 744 178<416 507> 1101 178<561.5 708 561.5 709.5>
VStem: 235 181<433 744> 237 134<166.9 214 214 263.1> 551 136<166.9 263.1> 769 136<166.9 264.4> 994 180<438 889> 1557 180<177 1254>
Fore
994 438 m 9,0,-1
 994 744 l 2,1,2
 994 891 994 891 889 996 c 128,-1,3
 784 1101 784 1101 635 1101 c 132,-1,4
 486 1101 486 1101 380 995 c 0,5,6
 346 961 346 961 322 922 c 1,7,-1
 507 922 l 1,8,-1
 507 744 l 1,9,-1
 416 744 l 1,10,-1
 416 433 l 1,11,12
 434 438 434 438 461 438 c 0,13,14
 553 438 553 438 620 373 c 128,-1,15
 687 308 687 308 687 216 c 0,16,17
 687 125 687 125 620.5 58.5 c 128,-1,18
 554 -8 554 -8 461 -8 c 0,19,20
 369 -8 369 -8 302.5 58.5 c 128,-1,21
 236 125 236 125 237 214 c 1,22,-1
 235 214 l 1,23,-1
 235 744 l 1,24,-1
 95 744 l 1,25,26
 95 889.5 95 889.5 168 1012.25 c 128,-1,27
 241 1135 241 1135 364.5 1207 c 128,-1,28
 488 1279 488 1279 635 1279 c 4,29,30
 781 1279 781 1279 905 1206.5 c 128,-1,31
 1029 1134 1029 1134 1101.5 1011.5 c 128,-1,32
 1174 889 1174 889 1174 744 c 2,33,-1
 1174 376 l 1,34,-1
 1557 177 l 1,35,-1
 1557 1254 l 1,36,-1
 1737 1254 l 1,37,-1
 1737 0 l 1,38,-1
 1557 0 l 1,39,-1
 1217 175 l 1,40,41
 1205 109 1205 109 1153 57 c 0,42,43
 1086 -8 1086 -8 994 -8 c 0,44,45
 901 -8 901 -8 835 58 c 128,-1,46
 769 124 769 124 769 216 c 128,-1,47
 769 308 769 308 835.5 373 c 128,-1,48
 902 438 902 438 994 438 c 9,0,-1
905 215 m 0,49,50
 905 178 905 178 931.5 152 c 128,-1,51
 958 126 958 126 994 126 c 0,52,53
 1031 126 1031 126 1057.5 152 c 128,-1,54
 1084 178 1084 178 1084 215 c 0,55,56
 1084 253 1084 253 1057 279 c 128,-1,57
 1030 305 1030 305 994 305 c 0,58,59
 959 305 959 305 932 279 c 128,-1,60
 905 253 905 253 905 215 c 0,49,50
371 215 m 128,-1,62
 371 178 371 178 397.5 152 c 128,-1,63
 424 126 424 126 461 126 c 0,64,65
 497 126 497 126 524 152 c 128,-1,66
 551 178 551 178 551 215 c 128,-1,67
 551 252 551 252 523.5 278.5 c 128,-1,68
 496 305 496 305 461 305 c 0,69,70
 424 305 424 305 397.5 278.5 c 128,-1,61
 371 252 371 252 371 215 c 128,-1,62
95 744 m 1,71,-1
 235 744 l 1,72,-1
EndSplineSet
EndChar
StartChar: uni0E0D
Encoding: 3597 3597 136
Width: 1924
VWidth: 2045
Flags: MW
HStem: -577 192<1095.9 1271> -207 134<1095.9 1190.8> -8 134<402.9 497.8> 0 178<1164 1547> 305 133<402.9 496.5> 744 178<405 497> 1101 178<552.106 697.75 551.5 699.5>
VStem: 225 136<166.9 263.1> 225 180<433 744> 541 136<166.9 263.1> 921 133<-342.8 -249.2> 984 180<178 933.8> 1547 180<178 1254>
Fore
1774 -249 m 1,0,1
 1686 -436 1686 -436 1554 -507 c 128,-1,2
 1422 -578 1422 -578 1271 -577 c 0,3,4
 1088 -576 1088 -576 1004.5 -488.5 c 128,-1,5
 921 -401 921 -401 921 -301 c 0,6,7
 923 -200 923 -200 987 -136.5 c 128,-1,8
 1051 -73 1051 -73 1145 -73 c 0,9,10
 1238 -73 1238 -73 1306.5 -141.5 c 128,-1,11
 1375 -210 1375 -210 1369 -294 c 0,12,13
 1363 -377 1363 -377 1311 -414 c 1,14,15
 1402 -418 1402 -418 1483.5 -364.5 c 128,-1,16
 1565 -311 1565 -311 1631 -154 c 1,17,-1
 1774 -249 l 1,0,1
1054 -296 m 128,-1,19
 1054 -332 1054 -332 1080.5 -358.5 c 128,-1,20
 1107 -385 1107 -385 1144 -385 c 0,21,22
 1180 -385 1180 -385 1207.5 -358.5 c 128,-1,23
 1235 -332 1235 -332 1235 -296 c 128,-1,24
 1235 -260 1235 -260 1207.5 -233.5 c 128,-1,25
 1180 -207 1180 -207 1144 -207 c 0,26,27
 1107 -207 1107 -207 1080.5 -233.5 c 128,-1,18
 1054 -260 1054 -260 1054 -296 c 128,-1,19
984 0 m 25,28,-1
 984 744 l 2,29,30
 984 891 984 891 879 996 c 128,-1,31
 774 1101 774 1101 625 1101 c 4,32,33
 479.212 1101 479.212 1101 370 995 c 0,34,35
 336 962 336 962 314 922 c 1,36,-1
 497 922 l 1,37,-1
 497 744 l 1,38,-1
 405 744 l 1,39,-1
 405 433 l 1,40,41
 422 438 422 438 451 438 c 0,42,43
 543 438 543 438 610 373 c 128,-1,44
 677 308 677 308 677 216 c 0,45,46
 677 125 677 125 610.5 58.5 c 128,-1,47
 544 -8 544 -8 451 -8 c 128,-1,48
 358 -8 358 -8 291.5 58 c 128,-1,49
 225 124 225 124 225 214 c 2,50,-1
 225 744 l 1,51,-1
 85 744 l 1,52,53
 85 889.5 85 889.5 158 1012.25 c 128,-1,54
 231 1135 231 1135 354.5 1207 c 128,-1,55
 478 1279 478 1279 625 1279 c 4,56,57
 770.5 1279 770.5 1279 893.75 1207 c 128,-1,58
 1017 1135 1017 1135 1090.5 1012.5 c 128,-1,59
 1164 890 1164 890 1164 744 c 2,60,-1
 1164 178 l 1,61,-1
 1547 178 l 1,62,-1
 1547 1254 l 1,63,-1
 1727 1254 l 1,64,-1
 1727 0 l 1,65,-1
 984 0 l 25,28,-1
361 215 m 128,-1,67
 361 178 361 178 387.5 152 c 128,-1,68
 414 126 414 126 451 126 c 0,69,70
 487 126 487 126 514 152 c 128,-1,71
 541 178 541 178 541 215 c 128,-1,72
 541 252 541 252 513.5 278.5 c 128,-1,73
 486 305 486 305 451 305 c 0,74,75
 414 305 414 305 387.5 278.5 c 128,-1,66
 361 252 361 252 361 215 c 128,-1,67
85 744 m 1,76,-1
 225 744 l 1,77,-1
EndSplineSet
Substitution2: "Single Substitution lookup 9" uni0E0D.descless
Substitution2: "Single Substitution lookup 8" uni0E0D.descless
EndChar
StartChar: uni0E0E
Encoding: 3598 3598 137
Width: 1473
VWidth: 2045
Flags: MW
HStem: -526 133<558.9 653.8> -214 133<558.9 653.8> -8 134<285.2 378.8> 305 133<286.5 377.5> 1101 178<680 827 679.5 829>
VStem: 106 136<166.9 263.1> 378 180<433 744> 382 136<-352.1 -254.6> 422 136<166.9 263.1> 1113 180<-260 886>
AnchorPoint: "BelowBase" 1103.71 -625.338 basechar 0
Fore
997 -595 m 1,0,-1
 814 -414 l 1,1,-1
 766 -462 l 2,2,3
 702 -526 702 -526 606 -526 c 0,4,5
 516 -526 516 -526 449 -460.5 c 128,-1,6
 382 -395 382 -395 382 -304 c 0,7,8
 382 -211 382 -211 448.5 -146 c 128,-1,9
 515 -81 515 -81 608 -81 c 0,10,11
 697.13 -81 697.13 -81 766 -147 c 2,12,-1
 814 -193 l 1,13,-1
 920 -89 l 1,14,-1
 1032 -198 l 1,15,-1
 925 -304 l 1,16,-1
 997 -375 l 1,17,-1
 1113 -260 l 1,18,-1
 1113 744 l 2,19,20
 1113 888 1113 888 1008.5 994.5 c 128,-1,21
 904 1101 904 1101 754 1101 c 4,22,23
 606 1101 606 1101 495 995 c 0,24,25
 464 965 464 965 442 922 c 1,26,-1
 646 922 l 1,27,-1
 646 744 l 1,28,-1
 558 744 l 1,29,-1
 558 216 l 2,30,31
 558 123 558 123 491 57.5 c 128,-1,32
 424 -8 424 -8 332 -8 c 0,33,34
 239 -8 239 -8 172.5 58 c 128,-1,35
 106 124 106 124 106 216 c 0,36,37
 106 309 106 309 173 373.5 c 128,-1,38
 240 438 240 438 332 438 c 0,39,40
 359 438 359 438 378 433 c 1,41,-1
 378 744 l 1,42,-1
 213 744 l 1,43,44
 213 889.5 213 889.5 286 1012.25 c 128,-1,45
 359 1135 359 1135 482.5 1207 c 128,-1,46
 606 1279 606 1279 753 1279 c 4,47,48
 901 1279 901 1279 1024.5 1206.5 c 128,-1,49
 1148 1134 1148 1134 1220.5 1010 c 128,-1,50
 1293 886 1293 886 1293 744 c 2,51,-1
 1293 -302 l 1,52,-1
 997 -595 l 1,0,-1
518 -304 m 0,53,54
 518 -341 518 -341 544 -367 c 128,-1,55
 570 -393 570 -393 607 -393 c 0,56,57
 643 -393 643 -393 670.5 -367.25 c 128,-1,58
 698 -341.5 698 -341.5 698 -304 c 0,59,60
 698 -266 698 -266 670.5 -240 c 128,-1,61
 643 -214 643 -214 607 -214 c 0,62,63
 570 -214 570 -214 544 -240 c 128,-1,64
 518 -266 518 -266 518 -304 c 0,53,54
242 215 m 128,-1,66
 242 178 242 178 269 152 c 128,-1,67
 296 126 296 126 332 126 c 128,-1,68
 368 126 368 126 395 152 c 128,-1,69
 422 178 422 178 422 215 c 128,-1,70
 422 252 422 252 394.5 278.5 c 128,-1,71
 367 305 367 305 332 305 c 128,-1,72
 297 305 297 305 269.5 278.5 c 128,-1,65
 242 252 242 252 242 215 c 128,-1,66
213 744 m 1,73,-1
 378 744 l 1,74,-1
EndSplineSet
EndChar
StartChar: uni0E0F
Encoding: 3599 3599 138
Width: 1486
VWidth: 2045
Flags: MW
HStem: -526 133<329.6 428.4> -214 133<329.6 428.4> -8 134<285.2 378.8> 305 133<286.5 377.5> 1101 178<679.5 827 679.5 829>
VStem: 106 136<166.9 263.1> 155 134<-352.1 -254.6> 378 180<433 744> 422 136<166.9 263.1> 1113 180<-260 928.6>
AnchorPoint: "BelowBase" 1064.81 -660.698 basechar 0
Fore
442 922 m 9,0,-1
 646 922 l 1,1,-1
 646 744 l 1,2,-1
 558 744 l 1,3,-1
 558 216 l 2,4,5
 558 123 558 123 491 57.5 c 128,-1,6
 424 -8 424 -8 332 -8 c 0,7,8
 239 -8 239 -8 172.5 58 c 128,-1,9
 106 124 106 124 106 216 c 0,10,11
 106 309 106 309 173 373.5 c 128,-1,12
 240 438 240 438 332 438 c 0,13,14
 359 438 359 438 378 433 c 1,15,-1
 378 744 l 1,16,-1
 213 744 l 1,17,18
 213 889.5 213 889.5 286 1012.25 c 128,-1,19
 359 1135 359 1135 482.5 1207 c 128,-1,20
 606 1279 606 1279 753 1279 c 4,21,22
 901 1279 901 1279 1024.5 1206.5 c 128,-1,23
 1148 1134 1148 1134 1220.5 1010 c 128,-1,24
 1293 886 1293 886 1293 744 c 2,25,-1
 1293 -302 l 1,26,-1
 997 -595 l 1,27,-1
 881 -480 l 1,28,-1
 768 -595 l 1,29,-1
 585 -414 l 1,30,-1
 539 -462 l 2,31,32
 477.667 -526 477.667 -526 379 -526 c 0,33,34
 286 -526 286 -526 220.5 -460.5 c 128,-1,35
 155 -395 155 -395 155 -304 c 0,36,37
 155 -212 155 -212 220.5 -146.5 c 128,-1,38
 286 -81 286 -81 379 -81 c 0,39,40
 470.565 -81 470.565 -81 538 -147 c 2,41,-1
 585 -193 l 1,42,-1
 692 -88 l 1,43,-1
 803 -199 l 1,44,-1
 696 -305 l 1,45,-1
 768 -375 l 1,46,-1
 881 -260 l 1,47,-1
 997 -375 l 1,48,-1
 1113 -260 l 1,49,-1
 1113 744 l 2,50,51
 1113 888 1113 888 1008.5 994.5 c 128,-1,52
 904 1101 904 1101 754 1101 c 4,53,54
 603 1101 603 1101 497 995 c 0,55,56
 471 969 471 969 442 922 c 9,0,-1
289 -304 m 0,57,58
 289 -341 289 -341 315 -367 c 128,-1,59
 341 -393 341 -393 379 -393 c 128,-1,60
 417 -393 417 -393 443 -367.5 c 128,-1,61
 469 -342 469 -342 469 -304 c 0,62,63
 469 -265 469 -265 443 -239.5 c 128,-1,64
 417 -214 417 -214 379 -214 c 128,-1,65
 341 -214 341 -214 315 -240 c 128,-1,66
 289 -266 289 -266 289 -304 c 0,57,58
242 215 m 128,-1,68
 242 178 242 178 269 152 c 128,-1,69
 296 126 296 126 332 126 c 128,-1,70
 368 126 368 126 395 152 c 128,-1,71
 422 178 422 178 422 215 c 128,-1,72
 422 252 422 252 394.5 278.5 c 128,-1,73
 367 305 367 305 332 305 c 128,-1,74
 297 305 297 305 269.5 278.5 c 128,-1,67
 242 252 242 252 242 215 c 128,-1,68
213 744 m 1,75,-1
 378 744 l 1,76,-1
EndSplineSet
EndChar
StartChar: uni0E10
Encoding: 3600 3600 139
Width: 1245
VWidth: 2045
Flags: MW
HStem: -807 134<79.2 172.8> -521 133<745.9 842.1> -494 134<77.9 174.1> -210 134<745.9 842.1> 0 21G<683 903> 244 134<489.05 583.95> 557 133<487.825 584.675> 744 178<363 821.6> 1101 178<602 748.5>
VStem: -98 134<-629.8 -536.2> 311 134<418.25 515.75> 569 134<-344.8 -251.2> 883 136<-344.8 -251.2>
Fore
1019 -603 m 25,0,-1
 744 -875 l 1,1,-1
 628 -760 l 1,2,-1
 515 -873 l 1,3,-1
 332 -695 l 1,4,-1
 287 -740 l 2,5,6
 218 -807 218 -807 127 -807 c 0,7,8
 34 -807 34 -807 -32 -741 c 128,-1,9
 -98 -675 -98 -675 -98 -583 c 128,-1,10
 -98 -491 -98 -491 -32.5 -425.5 c 128,-1,11
 33 -360 33 -360 127 -360 c 0,12,13
 219 -360 219 -360 285 -426 c 2,14,-1
 332 -474 l 1,15,-1
 439 -369 l 1,16,-1
 550 -477 l 1,17,-1
 444 -583 l 1,18,-1
 515 -654 l 1,19,-1
 628 -541 l 1,20,-1
 744 -656 l 1,21,-1
 839 -562 l 1,22,-1
 839 -518 l 1,23,24
 816 -521 816 -521 793 -521 c 0,25,26
 701 -521 701 -521 635 -456 c 128,-1,27
 569 -391 569 -391 569 -299 c 0,28,29
 569 -208 569 -208 634 -142 c 128,-1,30
 699 -76 699 -76 793 -76 c 128,-1,31
 887 -76 887 -76 953 -142 c 128,-1,32
 1019 -208 1019 -208 1019 -299 c 2,33,-1
 1019 -603 l 25,0,-1
703 -298 m 128,-1,35
 703 -334 703 -334 730 -361 c 128,-1,36
 757 -388 757 -388 794 -388 c 128,-1,37
 831 -388 831 -388 857 -361 c 128,-1,38
 883 -334 883 -334 883 -298 c 128,-1,39
 883 -262 883 -262 857 -236 c 128,-1,40
 831 -210 831 -210 794 -210 c 128,-1,41
 757 -210 757 -210 730 -236 c 128,-1,34
 703 -262 703 -262 703 -298 c 128,-1,35
36 -583 m 128,-1,43
 36 -619 36 -619 63 -646 c 128,-1,44
 90 -673 90 -673 126 -673 c 128,-1,45
 162 -673 162 -673 189 -646.5 c 128,-1,46
 216 -620 216 -620 216 -583 c 128,-1,47
 216 -546 216 -546 189.5 -520 c 128,-1,48
 163 -494 163 -494 126 -494 c 128,-1,49
 89 -494 89 -494 62.5 -520.5 c 128,-1,42
 36 -547 36 -547 36 -583 c 128,-1,43
683 0 m 25,50,-1
 630 264 l 1,51,52
 585 244 585 244 535 244 c 0,53,54
 442 244 442 244 376.5 310 c 128,-1,55
 311 376 311 376 311 468 c 0,56,57
 311 559 311 559 376.5 624.5 c 128,-1,58
 442 690 442 690 535 690 c 0,59,60
 627 690 627 690 686.5 632.5 c 0,61,62
 745.603 575.384 745.603 575.384 755 519 c 2,63,-1
 794 285 l 1,64,-1
 857 655 l 2,65,66
 863.269 691.818 863.269 691.818 835 719 c 0,67,68
 809 744 809 744 767 744 c 2,69,-1
 136 744 l 1,70,71
 136 889.5 136 889.5 208 1011.75 c 128,-1,72
 280 1134 280 1134 404.5 1206.5 c 128,-1,73
 529 1279 529 1279 675 1279 c 4,74,75
 823 1279 823 1279 946 1208 c 128,-1,76
 1069 1137 1069 1137 1142 1013 c 1,77,-1
 986 924 l 1,78,79
 964 962 964 962 930 995 c 0,80,81
 822 1101 822 1101 675 1101 c 4,82,83
 529 1101 529 1101 421 995 c 0,84,85
 388 963 388 963 363 922 c 1,86,-1
 762 922 l 2,87,88
 869.5 922 869.5 922 964 841 c 0,89,90
 1055.91 762.219 1055.91 762.219 1034 653 c 2,91,-1
 903 0 l 1,92,-1
 683 0 l 25,50,-1
445 467 m 128,-1,94
 445 429.5 445 429.5 472.5 403.75 c 128,-1,95
 500 378 500 378 536.5 378 c 128,-1,96
 573 378 573 378 599 404 c 128,-1,97
 625 430 625 430 625 467 c 128,-1,98
 625 504 625 504 599.25 530.5 c 128,-1,99
 573.5 557 573.5 557 536.25 557 c 128,-1,100
 499 557 499 557 472 530.75 c 128,-1,93
 445 504.5 445 504.5 445 467 c 128,-1,94
EndSplineSet
Substitution2: "Single Substitution lookup 9" uni0E10.descless
Substitution2: "Single Substitution lookup 8" uni0E10.descless
EndChar
StartChar: uni0E11
Encoding: 3601 3601 140
Width: 1689
VWidth: 2045
Flags: MW
HStem: 0 21G<566 837 1334 1514> 586 133<264.6 363.4> 1087 177<1235 1269>
VStem: 72 152<762.35 867> 404 134<759.75 857.25> 566 180<187 570.1> 724 180<806.4 991> 1334 180<0 1044.4>
Fore
837 0 m 1,0,-1
 566 0 l 1,1,-1
 566 444 l 2,2,3
 566 597 566 597 645 712.5 c 128,-1,4
 724 828 724 828 724 900 c 0,5,6
 724 970 724 970 687.5 1021.5 c 128,-1,7
 651 1073 651 1073 596 1100 c 1,8,-1
 494 1042 l 1,9,-1
 389 1103 l 1,10,11
 297 1097 297 1097 267 1015 c 1,12,13
 301.46 1027.64 301.46 1027.64 325 1029 c 0,14,15
 394 1033 394 1033 467 973 c 0,16,17
 538 914 538 914 538 815 c 128,-1,18
 538 716 538 716 472 651 c 128,-1,19
 406 586 406 586 314 586 c 0,20,21
 217 586 217 586 144.947 662.588 c 128,-1,23
 72.8936 739.176 72.8936 739.176 72 867 c 0,24,25
 70.9131 1022.45 70.9131 1022.45 144.957 1128.22 c 128,-1,27
 219 1234 219 1234 354 1258 c 1,28,-1
 496 1175 l 1,29,-1
 644 1257 l 1,30,31
 738 1232 738 1232 822 1147 c 128,-1,32
 906 1062 906 1062 904 903 c 0,33,34
 902 764 902 764 824 652.5 c 128,-1,36
 746 541 746 541 746 444 c 2,37,-1
 746 187 l 1,38,-1
 1064 1140 l 2,39,40
 1077.57 1180.66 1077.57 1180.66 1129.78 1221.33 c 128,-1,42
 1182 1262 1182 1262 1269 1264 c 0,43,44
 1356 1265 1356 1265 1435 1195 c 128,-1,45
 1514 1125 1514 1125 1514 995 c 2,46,-1
 1514 0 l 1,47,-1
 1334 0 l 1,48,-1
 1334 995 l 2,49,50
 1334 1033 1334 1033 1306 1060.5 c 128,-1,51
 1278 1088 1278 1088 1235 1087 c 0,52,53
 1189.4 1087 1189.4 1087 1180 1058 c 2,54,-1
 837 0 l 1,0,-1
224 808.5 m 128,-1,56
 224 773 224 773 250 746 c 128,-1,57
 276 719 276 719 314 719 c 128,-1,58
 352 719 352 719 378 745 c 128,-1,59
 404 771 404 771 404 808.5 c 128,-1,60
 404 846 404 846 378.5 871.5 c 128,-1,61
 353 897 353 897 314 897 c 128,-1,62
 275 897 275 897 249.5 870.5 c 128,-1,55
 224 844 224 844 224 808.5 c 128,-1,56
EndSplineSet
EndChar
StartChar: uni0E12
Encoding: 3602 3602 141
Width: 1957
VWidth: 2045
Flags: W
HStem: -8 134<1016.75 1114.25> 749 133<659.6 758.4>
VStem: 166 178<208 983.6> 485 134<612.2 705.8> 799 137<612.2 705.8> 842 134<166.75 264.25> 1066 180<438 970> 1587 180<180 1254>
Fore
1066 438 m 1,0,-1
 1066 823 l 2,1,2
 1066 970 1066 970 1027.5 1010.5 c 132,-1,3
 989 1051 989 1051 939 1075 c 1,4,-1
 707 927 l 1,5,-1
 485 1072 l 1,6,7
 442 1068 442 1068 393 1007.5 c 132,-1,8
 344 947 344 947 344 825 c 2,9,-1
 344 208 l 1,10,-1
 598 465 l 1,11,12
 577 477 577 477 531 523 c 132,-1,13
 485 569 485 569 485 660 c 0,14,15
 485 752 485 752 551 817 c 132,-1,16
 617 882 617 882 709 882 c 0,17,18
 802 882 802 882 867.5 817.5 c 132,-1,19
 933 753 933 753 936 659 c 0,20,21
 936 568 936 568 867 501 c 2,22,-1
 349 0 l 1,23,-1
 166 0 l 1,24,-1
 166 825 l 2,25,26
 166 1000 166 1000 249.5 1113.5 c 132,-1,27
 333 1227 333 1227 473 1254 c 1,28,-1
 707 1104 l 1,29,-1
 939 1254 l 1,30,31
 1073 1230 1073 1230 1159.5 1112 c 132,-1,32
 1246 994 1246 994 1246 825 c 2,33,-1
 1246 372 l 1,34,-1
 1587 180 l 1,35,-1
 1587 1254 l 1,36,-1
 1767 1254 l 1,37,-1
 1767 0 l 1,38,-1
 1587 0 l 1,39,-1
 1287 166 l 1,40,41
 1272 107 1272 107 1215.5 49.5 c 132,-1,42
 1159 -8 1159 -8 1066 -8 c 128,-1,43
 973 -8 973 -8 907.5 57.5 c 132,-1,44
 842 123 842 123 842 216 c 128,-1,45
 842 309 842 309 908 373.5 c 132,-1,46
 974 438 974 438 1066 438 c 1,0,-1
976 215.5 m 132,-1,48
 976 178 976 178 1002 152 c 132,-1,49
 1028 126 1028 126 1065.5 126 c 132,-1,50
 1103 126 1103 126 1129.5 152.5 c 132,-1,51
 1156 179 1156 179 1156 215 c 132,-1,52
 1156 251 1156 251 1129 278 c 132,-1,53
 1102 305 1102 305 1065 305 c 132,-1,54
 1028 305 1028 305 1002 279 c 132,-1,47
 976 253 976 253 976 215.5 c 132,-1,48
619 659 m 132,-1,56
 619 623 619 623 644.5 597 c 132,-1,57
 670 571 670 571 709 571 c 132,-1,58
 748 571 748 571 773.5 597 c 132,-1,59
 799 623 799 623 799 659 c 132,-1,60
 799 695 799 695 773 722 c 132,-1,61
 747 749 747 749 709 749 c 132,-1,62
 671 749 671 749 645 722 c 132,-1,55
 619 695 619 695 619 659 c 132,-1,56
EndSplineSet
EndChar
StartChar: uni0E13
Encoding: 3603 3603 142
Width: 1948
VWidth: 2045
Flags: MW
HStem: -8 134<402.3 503.7 1552.47 1648.03> 305 133<403.6 502.4> 1101 178<553.5 700 553.5 701>
VStem: 229 134<166.75 264.25> 229 180<433 744> 543 134<168.2 261.8> 986 180<177 932.5> 1511 180<420 1254> 1691 136<166.9 263.1>
Fore
1511 420 m 9,0,-1
 1511 1254 l 1,1,-1
 1691 1254 l 1,2,-1
 1691 420 l 1,3,4
 1728 404 1728 404 1777.5 356 c 128,-1,5
 1827 308 1827 308 1827 216 c 0,6,7
 1827 125 1827 125 1760.5 58.5 c 128,-1,8
 1694 -8 1694 -8 1601 -8 c 0,9,10
 1509 -8 1509 -8 1454 46.5 c 128,-1,11
 1399 101 1399 101 1386 151 c 1,12,-1
 1166 0 l 1,13,-1
 986 0 l 1,14,-1
 986 744 l 2,15,16
 986 891 986 891 880.5 996 c 128,-1,17
 775 1101 775 1101 627 1101 c 4,18,19
 478 1101 478 1101 372 995 c 0,20,21
 338 961 338 961 314 922 c 1,22,-1
 497 922 l 1,23,-1
 497 744 l 1,24,-1
 409 744 l 1,25,-1
 409 433 l 1,26,27
 426 438 426 438 453 438 c 0,28,29
 546 438 546 438 611.5 373 c 128,-1,30
 677 308 677 308 677 216 c 128,-1,31
 677 124 677 124 611.5 58 c 128,-1,32
 546 -8 546 -8 453 -8 c 0,33,34
 361 -8 361 -8 294.5 58.5 c 0,35,36
 229 125 229 125 229 214 c 2,37,-1
 229 744 l 1,38,-1
 87 744 l 1,39,40
 87 889.5 87 889.5 160 1012.25 c 128,-1,41
 233 1135 233 1135 356.5 1207 c 128,-1,42
 480 1279 480 1279 627 1279 c 4,43,44
 773 1279 773 1279 897.25 1206.5 c 128,-1,45
 1021.5 1134 1021.5 1134 1093.75 1011.5 c 128,-1,46
 1166 889 1166 889 1166 744 c 2,47,-1
 1166 177 l 1,48,-1
 1471 397 l 2,49,50
 1492.79 412.714 1492.79 412.714 1511 420 c 9,0,-1
1511 215 m 128,-1,52
 1511 178 1511 178 1537.25 152 c 128,-1,53
 1563.5 126 1563.5 126 1600.25 126 c 128,-1,54
 1637 126 1637 126 1664 152 c 128,-1,55
 1691 178 1691 178 1691 215 c 128,-1,56
 1691 252 1691 252 1663.5 278.5 c 128,-1,57
 1636 305 1636 305 1600 305 c 128,-1,58
 1564 305 1564 305 1537.5 278.5 c 128,-1,51
 1511 252 1511 252 1511 215 c 128,-1,52
363 215.5 m 128,-1,60
 363 178 363 178 388.5 152 c 128,-1,61
 414 126 414 126 453 126 c 128,-1,62
 492 126 492 126 517.5 152.5 c 128,-1,63
 543 179 543 179 543 215 c 128,-1,64
 543 251 543 251 517 278 c 128,-1,65
 491 305 491 305 453 305 c 128,-1,66
 415 305 415 305 389 279 c 128,-1,59
 363 253 363 253 363 215.5 c 128,-1,60
87 744 m 1,67,-1
 227 744 l 1,68,-1
EndSplineSet
EndChar
StartChar: uni0E14
Encoding: 3604 3604 143
Width: 1410
VWidth: 2045
Flags: MW
HStem: 0 21G<161 341 1040 1220> 744 133<641.9 738.1> 1101 178<617.5 764 617.5 765>
VStem: 161 180<210 941.891> 467 134<605.75 703.25> 781 136<607.2 700.8> 1040 180<0 933.15>
Fore
601 654.5 m 128,-1,1
 601 617 601 617 626.5 591.5 c 128,-1,2
 652 566 652 566 690.5 566 c 128,-1,3
 729 566 729 566 755 592 c 128,-1,4
 781 618 781 618 781 654 c 128,-1,5
 781 690 781 690 754 717 c 128,-1,6
 727 744 727 744 690 744 c 128,-1,7
 653 744 653 744 627 718 c 128,-1,0
 601 692 601 692 601 654.5 c 128,-1,1
341 0 m 17,8,-1
 161 0 l 1,9,-1
 161 744 l 2,10,11
 161 906.315 161 906.315 229 1020.66 c 128,-1,12
 297 1135 297 1135 420.5 1207 c 128,-1,13
 544 1279 544 1279 691 1279 c 4,14,15
 837 1279 837 1279 961.5 1206.5 c 128,-1,16
 1086 1134 1086 1134 1153 1011.75 c 128,-1,17
 1220 889.5 1220 889.5 1220 744 c 2,18,-1
 1220 0 l 1,19,-1
 1040 0 l 1,20,-1
 1040 743 l 2,21,22
 1040 900.953 1040 900.953 939.5 1000.98 c 128,-1,23
 839 1101 839 1101 691 1101 c 4,24,25
 537 1101 537 1101 439 998.612 c 128,-1,26
 341 896.224 341 896.224 341 744 c 2,27,-1
 341 210 l 1,28,-1
 579 460 l 1,29,30
 552 476 552 476 509.5 519 c 128,-1,31
 467 562 467 562 467 655 c 128,-1,32
 467 748 467 748 533 812.5 c 128,-1,33
 599 877 599 877 691 877 c 0,34,35
 782 877 782 877 849 812 c 128,-1,36
 916 747 916 747 917 653 c 0,37,38
 917.985 563.356 917.985 563.356 849 496 c 2,39,-1
 341 0 l 17,8,-1
EndSplineSet
EndChar
StartChar: uni0E15
Encoding: 3605 3605 144
Width: 1400
VWidth: 2045
Flags: W
HStem: 0 21G<156 339 1036 1216> 734 133<639.6 738.4>
VStem: 156 178<208 953.875> 465 134<597.2 690.8> 779 136<597.2 690.8> 1036 180<0 980.52>
Fore
599 644 m 128,-1,1
 599 608 599 608 624.5 582 c 128,-1,2
 650 556 650 556 689 556 c 128,-1,3
 728 556 728 556 753.5 582 c 128,-1,4
 779 608 779 608 779 644 c 128,-1,5
 779 680 779 680 753 707 c 128,-1,6
 727 734 727 734 689 734 c 128,-1,7
 651 734 651 734 625 707 c 128,-1,0
 599 680 599 680 599 644 c 128,-1,1
334 208 m 25,8,-1
 578 450 l 1,9,10
 555 463 555 463 510 508.5 c 128,-1,11
 465 554 465 554 465 645 c 0,12,13
 465 737 465 737 531 802 c 128,-1,14
 597 867 597 867 689 867 c 0,15,16
 782 867 782 867 848 802 c 128,-1,17
 914 737 914 737 915 643 c 0,18,19
 916 552.012 916 552.012 847 486 c 2,20,-1
 339 0 l 1,21,-1
 156 0 l 1,22,-1
 156 825 l 2,23,24
 156 1013.59 156 1013.59 234.5 1120.3 c 128,-1,25
 313 1227 313 1227 453 1254 c 1,26,-1
 687 1104 l 1,27,-1
 919 1254 l 1,28,29
 1053 1230 1053 1230 1134.5 1112 c 128,-1,30
 1216 994 1216 994 1216 825 c 2,31,-1
 1216 0 l 1,32,-1
 1036 0 l 1,33,-1
 1036 823 l 2,34,35
 1036 980.52 1036 980.52 1002.5 1015.76 c 128,-1,36
 969 1051 969 1051 919 1075 c 1,37,-1
 687 927 l 1,38,-1
 465 1072 l 1,39,40
 416.637 1067.5 416.637 1067.5 375.318 1010.69 c 128,-1,41
 334 953.875 334 953.875 334 825 c 2,42,-1
 334 208 l 25,8,-1
907 668 m 0,43,-1
EndSplineSet
EndChar
StartChar: uni0E16
Encoding: 3606 3606 145
Width: 1370
VWidth: 2045
Flags: MW
HStem: -8 134<423.05 517.95> 305 133<423.2 516.8> 744 178<425 517> 1101 178<572.106 717.75 571.5 719.5>
VStem: 245 136<166.9 263.1> 245 180<433 744> 561 136<166.9 263.1> 1004 180<0 890>
Fore
381 215 m 128,-1,1
 381 178 381 178 407.5 152 c 128,-1,2
 434 126 434 126 470.5 126 c 128,-1,3
 507 126 507 126 534 152 c 128,-1,4
 561 178 561 178 561 215 c 128,-1,5
 561 252 561 252 533.5 278.5 c 128,-1,6
 506 305 506 305 470 305 c 128,-1,7
 434 305 434 305 407.5 278.5 c 128,-1,0
 381 252 381 252 381 215 c 128,-1,1
105 744 m 1,8,-1
 245 744 l 1,9,-1
1184 0 m 1,10,-1
 1004 0 l 1,11,-1
 1004 744 l 2,12,13
 1004 891 1004 891 899 996 c 128,-1,14
 794 1101 794 1101 645 1101 c 4,15,16
 499.212 1101 499.212 1101 390 995 c 0,17,18
 356 962 356 962 334 922 c 1,19,-1
 517 922 l 1,20,-1
 517 744 l 1,21,-1
 425 744 l 1,22,-1
 425 433 l 1,23,24
 442 438 442 438 471 438 c 0,25,26
 563 438 563 438 630 373 c 128,-1,27
 697 308 697 308 697 216 c 0,28,29
 697 125 697 125 630.5 58.5 c 128,-1,30
 564 -8 564 -8 471 -8 c 128,-1,31
 378 -8 378 -8 311.5 58 c 128,-1,32
 245 124 245 124 245 214 c 2,33,-1
 245 744 l 1,34,-1
 105 744 l 1,35,36
 105 889.5 105 889.5 178 1012.25 c 128,-1,37
 251 1135 251 1135 374.5 1207 c 128,-1,38
 498 1279 498 1279 645 1279 c 4,39,40
 790.5 1279 790.5 1279 913.75 1207 c 128,-1,41
 1037 1135 1037 1135 1110.5 1012.5 c 128,-1,42
 1184 890 1184 890 1184 744 c 2,43,-1
 1184 0 l 1,10,-1
EndSplineSet
EndChar
StartChar: uni0E17
Encoding: 3607 3607 146
Width: 1487
VWidth: 2045
Flags: MW
HStem: 0 21G<366 546 1118 1298> 814 134<274.2 367.8> 1087 177<999 1037> 1127 133<272.975 368.525>
VStem: 95 136<987.6 1086.4> 366 180<353 819> 410 136<988.25 1085.75> 1118 180<0 1044.4>
Fore
546 353 m 17,0,-1
 802 1125 l 2,1,2
 816.215 1167.87 816.215 1167.87 875 1215.25 c 0,3,4
 933 1262 933 1262 1037 1264 c 4,5,6
 1139 1265 1139 1265 1218.5 1194.5 c 128,-1,7
 1298 1124 1298 1124 1298 995 c 2,8,-1
 1298 0 l 1,9,-1
 1118 0 l 1,10,-1
 1118 995 l 2,11,12
 1118 1033 1118 1033 1089.25 1060.75 c 0,13,14
 1062.05 1087 1062.05 1087 999 1087 c 4,15,16
 933.693 1087 933.693 1087 918 1043 c 2,17,-1
 546 0 l 1,18,-1
 366 0 l 1,19,-1
 366 819 l 1,20,21
 341 814 341 814 320 814 c 0,22,23
 227 814 227 814 161 880 c 128,-1,24
 95 946 95 946 95 1038 c 0,25,26
 95 1129 95 1129 161.5 1194.5 c 128,-1,27
 228 1260 228 1260 320 1260 c 128,-1,28
 412 1260 412 1260 479 1194.5 c 128,-1,29
 546 1129 546 1129 546 1036 c 2,30,-1
 546 353 l 17,0,-1
231 1037 m 128,-1,32
 231 999 231 999 258 973.5 c 128,-1,33
 285 948 285 948 321 948 c 128,-1,34
 357 948 357 948 383.5 973.75 c 128,-1,35
 410 999.5 410 999.5 410 1037 c 128,-1,36
 410 1074.5 410 1074.5 383.75 1100.75 c 128,-1,37
 357.5 1127 357.5 1127 320.75 1127 c 128,-1,38
 284 1127 284 1127 257.5 1101 c 128,-1,31
 231 1075 231 1075 231 1037 c 128,-1,32
EndSplineSet
EndChar
StartChar: uni0E18
Encoding: 3608 3608 147
Width: 1228
VWidth: 2045
Flags: MW
HStem: 0 178<219 309 489 814> 744 178<489 798.5> 1111 168<636 636> 1111.05 167.946<476.1 798.5>
VStem: 309 180<178 744> 814 180<178 698.192>
Fore
309 744 m 25,0,-1
 96 744 l 1,1,2
 96 889.5 96 889.5 168 1011.75 c 128,-1,3
 240 1134 240 1134 364.5 1206.5 c 128,-1,4
 489 1279 489 1279 635 1279 c 4,5,6
 782 1279 782 1279 905.5 1207.5 c 128,-1,7
 1029 1136 1029 1136 1102 1013 c 1,8,-1
 946 924 l 1,9,10
 925 970 925 970 843 1041.5 c 128,-1,11
 761 1113 761 1113 636 1111 c 4,12,13
 513 1110 513 1110 436.5 1056 c 128,-1,14
 360 1002 360 1002 323 922 c 1,15,-1
 722 922 l 2,16,17
 834 922 834 922 913.25 842.25 c 0,18,19
 994 762.5 994 762.5 994 653 c 2,20,-1
 994 0 l 1,21,-1
 219 0 l 1,22,-1
 219 178 l 1,23,-1
 309 178 l 1,24,-1
 309 744 l 25,0,-1
489 744 m 25,25,-1
 489 178 l 1,26,-1
 814 178 l 1,27,-1
 814 653 l 2,28,29
 814 680 814 680 798 712 c 128,-1,30
 782 744 782 744 727 744 c 2,31,-1
 489 744 l 25,25,-1
EndSplineSet
EndChar
StartChar: uni0E19
Encoding: 3609 3609 148
Width: 1451
VWidth: 2045
Flags: W
HStem: -8 134<1052.05 1146.95> 814 134<264.2 357.8> 1127 133<262.975 358.525>
VStem: 85 136<987.6 1086.4> 356 180<178 819> 400 136<988.25 1085.75> 1011 180<419.96 1254> 1189 136<168.2 261.8>
Fore
1009 215 m 132,-1,1
 1009 178 1009 178 1036 152 c 132,-1,2
 1063 126 1063 126 1099.5 126 c 132,-1,3
 1136 126 1136 126 1162.5 152.5 c 132,-1,4
 1189 179 1189 179 1189 215 c 132,-1,5
 1189 251 1189 251 1162 278 c 132,-1,6
 1135 305 1135 305 1099.5 305 c 132,-1,7
 1064 305 1064 305 1036.5 278.5 c 132,-1,0
 1009 252 1009 252 1009 215 c 132,-1,1
536 0 m 5,8,-1
 356 0 l 5,9,-1
 356 819 l 5,10,11
 331 814 331 814 310 814 c 4,12,13
 217 814 217 814 151 880 c 132,-1,14
 85 946 85 946 85 1038 c 4,15,16
 85 1129 85 1129 151.5 1194.5 c 132,-1,17
 218 1260 218 1260 310 1260 c 132,-1,18
 402 1260 402 1260 469 1194.5 c 132,-1,19
 536 1129 536 1129 536 1036 c 6,20,-1
 536 178 l 5,21,-1
 987 411 l 6,22,23
 1008.91 421.837 1008.91 421.837 1011 423 c 5,24,-1
 1011 1254 l 5,25,-1
 1191 1254 l 5,26,-1
 1191 418 l 5,27,28
 1229 402 1229 402 1277 355.5 c 132,-1,29
 1325 309 1325 309 1325 216 c 4,30,31
 1325 124 1325 124 1258.5 58 c 132,-1,32
 1192 -8 1192 -8 1099 -8 c 132,-1,33
 1006 -8 1006 -8 941 57 c 4,34,35
 892 106 892 106 880 168 c 5,36,-1
 536 0 l 5,8,-1
221 1037 m 132,-1,38
 221 999 221 999 248 973.5 c 132,-1,39
 275 948 275 948 311 948 c 132,-1,40
 347 948 347 948 373.5 973.75 c 132,-1,41
 400 999.5 400 999.5 400 1037 c 132,-1,42
 400 1074.5 400 1074.5 373.75 1100.75 c 132,-1,43
 347.5 1127 347.5 1127 310.75 1127 c 132,-1,44
 274 1127 274 1127 247.5 1101 c 132,-1,37
 221 1075 221 1075 221 1037 c 132,-1,38
EndSplineSet
EndChar
StartChar: uni0E1A
Encoding: 3610 3610 149
Width: 1420
VWidth: 2045
Flags: W
HStem: 0 178<270 361 539 1041> 814 134<269.35 361.65> 1127 133<268.05 362.95>
VStem: 90 136<987.6 1086.4> 361 178<178 819> 405 135<988.9 1085.1> 1041 180<178 1254>
Fore
361 178 m 25,0,-1
 361 819 l 1,1,2
 336 814 336 814 315 814 c 0,3,4
 222 814 222 814 156 880 c 128,-1,5
 90 946 90 946 90 1038 c 0,6,7
 90 1129 90 1129 156.5 1194.5 c 128,-1,8
 223 1260 223 1260 315 1260 c 0,9,10
 408 1260 408 1260 474.055 1194.95 c 128,-1,11
 540.109 1129.9 540.109 1129.9 540 1036 c 2,12,-1
 539 178 l 1,13,-1
 1041 178 l 1,14,-1
 1041 1254 l 1,15,-1
 1221 1254 l 1,16,-1
 1221 0 l 1,17,-1
 270 0 l 1,18,-1
 270 178 l 1,19,-1
 361 178 l 25,0,-1
226 1037 m 128,-1,21
 226 999 226 999 253 973.5 c 128,-1,22
 280 948 280 948 315.5 948 c 128,-1,23
 351 948 351 948 378 974 c 128,-1,24
 405 1000 405 1000 405 1037 c 128,-1,25
 405 1074 405 1074 378.5 1100.5 c 128,-1,26
 352 1127 352 1127 315.5 1127 c 128,-1,27
 279 1127 279 1127 252.5 1101 c 128,-1,20
 226 1075 226 1075 226 1037 c 128,-1,21
EndSplineSet
EndChar
StartChar: uni0E1B
Encoding: 3611 3611 150
Width: 1420
VWidth: 2045
Flags: W
HStem: 0 178<270 361 540 1041> 814 134<269.35 361.65> 1127 133<268.05 362.95>
VStem: 90 136<987.6 1086.4> 361 179<178 819> 405 135<988.9 1085.1> 1041 180<178 1832>
AnchorPoint: "AboveBase" 927.359 1339.4 basechar 0
Fore
361 178 m 25,0,-1
 361 819 l 1,1,2
 338 814 338 814 315 814 c 0,3,4
 222 814 222 814 156 880 c 128,-1,5
 90 946 90 946 90 1038 c 0,6,7
 90 1129 90 1129 156.5 1194.5 c 128,-1,8
 223 1260 223 1260 315 1260 c 0,9,10
 408 1260 408 1260 474 1194.45 c 128,-1,11
 540 1128.9 540 1128.9 540 1036 c 2,12,-1
 540 178 l 1,13,-1
 1041 178 l 1,14,-1
 1041 1832 l 1,15,-1
 1221 1832 l 1,16,-1
 1221 0 l 1,17,-1
 270 0 l 1,18,-1
 270 178 l 1,19,-1
 361 178 l 25,0,-1
226 1037 m 128,-1,21
 226 999 226 999 253 973.5 c 128,-1,22
 280 948 280 948 315.5 948 c 128,-1,23
 351 948 351 948 378 974 c 128,-1,24
 405 1000 405 1000 405 1037 c 128,-1,25
 405 1074 405 1074 378.5 1100.5 c 128,-1,26
 352 1127 352 1127 315.5 1127 c 128,-1,27
 279 1127 279 1127 252.5 1101 c 128,-1,20
 226 1075 226 1075 226 1037 c 128,-1,21
EndSplineSet
EndChar
StartChar: uni0E1C
Encoding: 3612 3612 151
Width: 1373
VWidth: 2045
Flags: W
HStem: 0 21G<186 366 1012 1192> 814 134<365.35 457.65> 1127 133<367.05 461.95>
VStem: 186 180<264 819> 186 136<988.9 1085.1> 502 136<988.25 1085.75> 1012 180<264 1254>
Fore
186 0 m 25,0,-1
 186 1036 l 2,1,2
 186 1129 186 1129 253 1194.5 c 128,-1,3
 320 1260 320 1260 402 1260 c 4,4,5
 504 1260 504 1260 571 1194 c 128,-1,6
 638 1128 638 1128 638 1038 c 0,7,8
 638 947 638 947 571.5 880.5 c 128,-1,9
 505 814 505 814 412 814 c 0,10,11
 389 814 389 814 366 819 c 1,12,-1
 366 264 l 1,13,-1
 689 662 l 1,14,-1
 1012 264 l 1,15,-1
 1012 1254 l 1,16,-1
 1192 1254 l 1,17,-1
 1192 0 l 1,18,-1
 1012 0 l 1,19,-1
 689 396 l 1,20,-1
 366 0 l 1,21,-1
 186 0 l 25,0,-1
502 1037 m 128,-1,23
 502 1074.5 502 1074.5 475 1100.75 c 128,-1,24
 448 1127 448 1127 401.5 1127 c 4,25,26
 375 1127 375 1127 348.5 1100.5 c 128,-1,27
 322 1074 322 1074 322 1037 c 128,-1,28
 322 1000 322 1000 349 974 c 128,-1,29
 376 948 376 948 411.5 948 c 128,-1,30
 447 948 447 948 474.5 973.75 c 128,-1,22
 502 999.5 502 999.5 502 1037 c 128,-1,23
EndSplineSet
EndChar
StartChar: uni0E1D
Encoding: 3613 3613 152
Width: 1373
VWidth: 2045
Flags: W
HStem: 0 21G<186 366 1012 1192> 814 134<365.35 457.65> 1127 133<364.05 458.95>
VStem: 186 180<264 819> 186 136<988.9 1085.1> 502 136<988.25 1085.75> 1012 180<264 1832>
AnchorPoint: "AboveBase" 902.688 1327.48 basechar 0
Fore
186 0 m 25,0,-1
 186 1036 l 2,1,2
 186 1129 186 1129 253 1194.5 c 128,-1,3
 320 1260 320 1260 412 1260 c 132,-1,4
 504 1260 504 1260 571 1194 c 128,-1,5
 638 1128 638 1128 638 1038 c 0,6,7
 638 947 638 947 571.5 880.5 c 128,-1,8
 505 814 505 814 412 814 c 0,9,10
 389 814 389 814 366 819 c 1,11,-1
 366 264 l 1,12,-1
 689 662 l 1,13,-1
 1012 264 l 1,14,-1
 1012 1832 l 1,15,-1
 1192 1832 l 1,16,-1
 1192 0 l 1,17,-1
 1012 0 l 1,18,-1
 689 396 l 1,19,-1
 366 0 l 1,20,-1
 186 0 l 25,0,-1
502 1037 m 128,-1,22
 502 1074.5 502 1074.5 475 1100.75 c 128,-1,23
 448 1127 448 1127 411.5 1127 c 132,-1,24
 375 1127 375 1127 348.5 1100.5 c 128,-1,25
 322 1074 322 1074 322 1037 c 128,-1,26
 322 1000 322 1000 349 974 c 128,-1,27
 376 948 376 948 411.5 948 c 128,-1,28
 447 948 447 948 474.5 973.75 c 128,-1,21
 502 999.5 502 999.5 502 1037 c 128,-1,22
EndSplineSet
EndChar
StartChar: uni0E1E
Encoding: 3614 3614 153
Width: 1552
VWidth: 2045
Flags: W
HStem: 0 21G<356 536 1190 1370> 814 134<264.2 357.8> 1127 133<262.975 358.525>
VStem: 85 136<987.6 1086.4> 356 180<453 819> 400 136<988.25 1085.75> 1190 180<454 1254>
Fore
536 0 m 1,0,-1
 356 0 l 1,1,-1
 356 819 l 1,2,3
 333 814 333 814 310 814 c 0,4,5
 217 814 217 814 151 880 c 128,-1,6
 85 946 85 946 85 1038 c 0,7,8
 85 1129 85 1129 151.5 1194.5 c 128,-1,9
 218 1260 218 1260 310 1260 c 128,-1,10
 402 1260 402 1260 469.159 1194.34 c 128,-1,11
 536.318 1128.68 536.318 1128.68 536 1036 c 2,12,-1
 534 453 l 1,13,-1
 804 1254 l 1,14,-1
 920 1254 l 1,15,-1
 1190 454 l 1,16,-1
 1190 1254 l 1,17,-1
 1370 1254 l 1,18,-1
 1370 0 l 1,19,-1
 1190 0 l 1,20,-1
 863 953 l 1,21,-1
 536 0 l 1,0,-1
221 1037 m 128,-1,23
 221 999 221 999 248 973.5 c 128,-1,24
 275 948 275 948 311 948 c 128,-1,25
 347 948 347 948 373.5 973.75 c 128,-1,26
 400 999.5 400 999.5 400 1037 c 128,-1,27
 400 1074.5 400 1074.5 373.75 1100.75 c 128,-1,28
 347.5 1127 347.5 1127 310.75 1127 c 128,-1,29
 274 1127 274 1127 247.5 1101 c 128,-1,22
 221 1075 221 1075 221 1037 c 128,-1,23
EndSplineSet
EndChar
StartChar: uni0E1F
Encoding: 3615 3615 154
Width: 1552
VWidth: 2045
Flags: W
HStem: 0 21G<356 536 1190 1370> 814 134<264.2 357.8> 1127 133<262.975 358.525>
VStem: 85 136<987.6 1086.4> 356 180<453 819> 400 136<988.25 1085.75> 1190 180<454 1832>
AnchorPoint: "AboveBase" 1014.71 1400.47 basechar 0
Fore
536 0 m 1,0,-1
 356 0 l 1,1,-1
 356 819 l 1,2,3
 333 814 333 814 310 814 c 0,4,5
 217 814 217 814 151 880 c 128,-1,6
 85 946 85 946 85 1038 c 0,7,8
 85 1129 85 1129 151.5 1194.5 c 128,-1,9
 218 1260 218 1260 310 1260 c 128,-1,10
 402 1260 402 1260 469 1194.5 c 0,11,12
 536.318 1128.68 536.318 1128.68 536 1036 c 2,13,-1
 534 453 l 1,14,-1
 804 1254 l 1,15,-1
 920 1254 l 1,16,-1
 1190 454 l 1,17,-1
 1190 1832 l 1,18,-1
 1370 1832 l 1,19,-1
 1370 0 l 1,20,-1
 1190 0 l 1,21,-1
 863 953 l 1,22,-1
 536 0 l 1,0,-1
221 1037 m 128,-1,24
 221 999 221 999 248 973.5 c 128,-1,25
 275 948 275 948 311 948 c 128,-1,26
 347 948 347 948 373.5 973.75 c 128,-1,27
 400 999.5 400 999.5 400 1037 c 128,-1,28
 400 1074.5 400 1074.5 373.75 1100.75 c 128,-1,29
 347.5 1127 347.5 1127 310.75 1127 c 128,-1,30
 274 1127 274 1127 247.5 1101 c 128,-1,23
 221 1075 221 1075 221 1037 c 128,-1,24
EndSplineSet
EndChar
StartChar: uni0E20
Encoding: 3616 3616 155
Width: 1465
VWidth: 2045
Flags: MW
HStem: -8 134<264.05 358.95> 305 133<265.35 357.65> 744 178<537 626> 1101 178<662.533 805.5 659 807.25>
VStem: 86 136<166.75 264.25> 357 180<433 744> 401 136<166.75 264.25> 1092 180<0 932.5>
Fore
193 744 m 1,0,1
 193 890 193 890 266.5 1012 c 128,-1,2
 340 1134 340 1134 463 1206.5 c 128,-1,3
 586 1279 586 1279 732 1279 c 4,4,5
 879 1279 879 1279 1002 1207 c 128,-1,6
 1125 1135 1125 1135 1199 1012 c 0,7,8
 1272 889 1272 889 1272 744 c 2,9,-1
 1272 0 l 1,10,-1
 1092 0 l 1,11,-1
 1092 744 l 2,12,13
 1092 891.993 1092 891.993 987.25 996 c 0,14,15
 881.5 1101 881.5 1101 733 1101 c 4,16,17
 592.067 1101 592.067 1101 479 995 c 0,18,19
 447 965 447 965 421 922 c 1,20,-1
 626 922 l 1,21,-1
 626 744 l 1,22,-1
 537 744 l 1,23,-1
 537 216 l 2,24,25
 537 123 537 123 470.5 57.5 c 128,-1,26
 404 -8 404 -8 312 -8 c 0,27,28
 218 -8 218 -8 152 58 c 128,-1,29
 86 124 86 124 86 216 c 128,-1,30
 86 308 86 308 152.5 373 c 128,-1,31
 219 438 219 438 312 438 c 0,32,33
 340 438 340 438 357 433 c 1,34,-1
 357 744 l 1,35,-1
 193 744 l 1,0,1
222 215.5 m 128,-1,37
 222 178 222 178 248.5 152 c 128,-1,38
 275 126 275 126 311.5 126 c 128,-1,39
 348 126 348 126 374.5 152 c 128,-1,40
 401 178 401 178 401 215.5 c 128,-1,41
 401 253 401 253 374 279 c 128,-1,42
 347 305 347 305 311.5 305 c 128,-1,43
 276 305 276 305 249 279 c 128,-1,36
 222 253 222 253 222 215.5 c 128,-1,37
EndSplineSet
EndChar
StartChar: uni0E21
Encoding: 3617 3617 156
Width: 1422
VWidth: 2045
Flags: W
HStem: -8 134<289.9 386.1> 305 133<291.2 384.8> 814 134<290.9 387.1> 1127 133<289.75 387.25>
VStem: 114 135<166.75 264.25 987.6 1086.4> 384 178<433 819> 428 134<168.2 201 987.6 1086.4> 1036 180<168 1254>
Fore
562 201 m 17,0,1
 558 119 558 119 494 55.5 c 128,-1,2
 430 -8 430 -8 338 -8 c 0,3,4
 245 -8 245 -8 179 58 c 128,-1,5
 113 124 113 124 113 216 c 128,-1,6
 113 308 113 308 179.5 373 c 128,-1,7
 246 438 246 438 337 438 c 0,8,9
 365 438 365 438 384 433 c 1,10,-1
 382 819 l 1,11,12
 359 814 359 814 338 814 c 0,13,14
 244 814 244 814 179 880 c 128,-1,15
 114 946 114 946 114 1038 c 0,16,17
 114 1129 114 1129 179.5 1194.5 c 128,-1,18
 245 1260 245 1260 338 1260 c 0,19,20
 430 1260 430 1260 496.5 1195 c 0,21,22
 562 1130 562 1130 562 1036 c 2,23,-1
 562 369 l 1,24,-1
 1036 168 l 5,25,-1
 1036 1254 l 5,26,-1
 1216 1254 l 5,27,-1
 1216 0 l 5,28,-1
 1036 0 l 5,29,-1
 562 201 l 17,0,1
249 215.5 m 128,-1,31
 249 178 249 178 275 152 c 128,-1,32
 301 126 301 126 338 126 c 128,-1,33
 375 126 375 126 401.5 152.5 c 128,-1,34
 428 179 428 179 428 215 c 128,-1,35
 428 251 428 251 401 278 c 128,-1,36
 374 305 374 305 338 305 c 128,-1,37
 302 305 302 305 275.5 279 c 128,-1,30
 249 253 249 253 249 215.5 c 128,-1,31
249 1037 m 128,-1,39
 249 999 249 999 275.5 973.5 c 128,-1,40
 302 948 302 948 339 948 c 128,-1,41
 376 948 376 948 402 973.5 c 128,-1,42
 428 999 428 999 428 1037 c 128,-1,43
 428 1075 428 1075 402 1101 c 128,-1,44
 376 1127 376 1127 338.5 1127 c 128,-1,45
 301 1127 301 1127 275 1101 c 128,-1,38
 249 1075 249 1075 249 1037 c 128,-1,39
EndSplineSet
EndChar
StartChar: uni0E22
Encoding: 3618 3618 157
Width: 1321
VWidth: 2045
Flags: W
HStem: 0 178<408 937> 520 178<467.986 682> 816 133<409.6 508.4> 1127 133<412.05 506.95>
VStem: 228 180<178 479.65> 548 136<988.75 1086.25> 937 180<178 1254>
Fore
479 698 m 2,0,-1
 682 698 l 1,1,-1
 682 520 l 1,2,-1
 487 520 l 2,3,4
 470 520 470 520 439 493.75 c 128,-1,5
 408 467.5 408 467.5 408 427 c 2,6,-1
 408 178 l 1,7,-1
 937 178 l 5,8,-1
 937 1254 l 5,9,-1
 1117 1254 l 5,10,-1
 1117 0 l 5,11,-1
 228 0 l 1,12,-1
 228 465 l 2,13,14
 228 549 228 549 280 597 c 1,15,16
 246 612 246 612 186 690.75 c 128,-1,17
 126 769.5 126 769.5 126 888 c 0,18,19
 126 983 126 983 163 1067.5 c 128,-1,20
 200 1152 200 1152 276.5 1208 c 128,-1,21
 353 1264 353 1264 460 1260 c 0,22,23
 556 1257 556 1257 620 1193 c 128,-1,24
 684 1129 684 1129 684 1038 c 128,-1,25
 684 947 684 947 617 879 c 0,26,27
 551.395 812.416 551.395 812.416 460 816 c 0,28,29
 344.948 820.512 344.948 820.512 298 888 c 1,30,31
 298 802 298 802 347.5 750 c 128,-1,32
 397 698 397 698 479 698 c 2,0,-1
368 1038 m 128,-1,34
 368 1000 368 1000 394.5 974.5 c 128,-1,35
 421 949 421 949 459 949 c 128,-1,36
 497 949 497 949 522.5 974.5 c 128,-1,37
 548 1000 548 1000 548 1037.5 c 128,-1,38
 548 1075 548 1075 522 1101 c 128,-1,39
 496 1127 496 1127 459.5 1127 c 128,-1,40
 423 1127 423 1127 395.5 1101.5 c 128,-1,33
 368 1076 368 1076 368 1038 c 128,-1,34
EndSplineSet
EndChar
StartChar: uni0E23
Encoding: 3619 3619 158
Width: 1172
VWidth: 2045
Flags: MW
HStem: -8 134<548.05 642.95> 305 133<549.35 641.65> 744 178<312 601.3> 1101 178<551 697.5>
VStem: 370 136<166.75 264.25> 641 180<433 711.5> 685 136<168.2 261.8>
Fore
506 215.5 m 128,-1,1
 506 178 506 178 532.5 152 c 128,-1,2
 559 126 559 126 595.5 126 c 128,-1,3
 632 126 632 126 658.5 152.5 c 128,-1,4
 685 179 685 179 685 215 c 128,-1,5
 685 251 685 251 658 278 c 128,-1,6
 631 305 631 305 595.5 305 c 128,-1,7
 560 305 560 305 533 279 c 128,-1,0
 506 253 506 253 506 215.5 c 128,-1,1
641 653 m 2,8,9
 641 698 641 698 615 721 c 128,-1,10
 589 744 589 744 548 744 c 2,11,-1
 85 744 l 1,12,13
 85 889.5 85 889.5 157 1011.75 c 128,-1,14
 229 1134 229 1134 353.5 1206.5 c 128,-1,15
 478 1279 478 1279 624 1279 c 4,16,17
 772 1279 772 1279 895 1208 c 128,-1,18
 1018 1137 1018 1137 1091 1013 c 1,19,-1
 935 924 l 1,20,21
 912 962 912 962 879 995 c 0,22,23
 771 1101 771 1101 624 1101 c 4,24,25
 478 1101 478 1101 370 995 c 0,26,27
 337 963 337 963 312 922 c 1,28,-1
 544 922 l 2,29,30
 648.705 922 648.705 922 735.75 849.25 c 0,31,32
 821 778 821 778 821 653 c 2,33,-1
 821 216 l 2,34,35
 821 123 821 123 754.5 57.5 c 128,-1,36
 688 -8 688 -8 595 -8 c 128,-1,37
 502 -8 502 -8 436 58 c 128,-1,38
 370 124 370 124 370 216 c 128,-1,39
 370 308 370 308 436.5 373 c 128,-1,40
 503 438 503 438 595 438 c 0,41,42
 624 438 624 438 641 433 c 1,43,-1
 641 653 l 2,8,9
EndSplineSet
EndChar
StartChar: uni0E24
Encoding: 3620 3620 159
Width: 1367
VWidth: 2045
Flags: MW
HStem: -8 134<443.05 537.95> 305 133<443.2 536.8> 744 178<445 537> 1101 178<592.106 737.75 591.5 739.5>
VStem: 265 136<166.9 263.1> 265 180<433 744> 581 136<166.9 263.1> 1024 180<-551 890>
Fore
401 215 m 128,-1,1
 401 178 401 178 427.5 152 c 128,-1,2
 454 126 454 126 490.5 126 c 128,-1,3
 527 126 527 126 554 152 c 128,-1,4
 581 178 581 178 581 215 c 128,-1,5
 581 252 581 252 553.5 278.5 c 128,-1,6
 526 305 526 305 490 305 c 128,-1,7
 454 305 454 305 427.5 278.5 c 128,-1,0
 401 252 401 252 401 215 c 128,-1,1
125 744 m 1,8,-1
 265 744 l 1,9,-1
1204 -551 m 1,10,-1
 1024 -551 l 1,11,-1
 1024 744 l 2,12,13
 1024 891 1024 891 919 996 c 128,-1,14
 814 1101 814 1101 665 1101 c 4,15,16
 519.212 1101 519.212 1101 410 995 c 0,17,18
 376 962 376 962 354 922 c 1,19,-1
 537 922 l 1,20,-1
 537 744 l 1,21,-1
 445 744 l 1,22,-1
 445 433 l 1,23,24
 462 438 462 438 491 438 c 0,25,26
 583 438 583 438 650 373 c 128,-1,27
 717 308 717 308 717 216 c 0,28,29
 717 125 717 125 650.5 58.5 c 128,-1,30
 584 -8 584 -8 491 -8 c 128,-1,31
 398 -8 398 -8 331.5 58 c 128,-1,32
 265 124 265 124 265 214 c 2,33,-1
 265 744 l 1,34,-1
 125 744 l 1,35,36
 125 889.5 125 889.5 198 1012.25 c 128,-1,37
 271 1135 271 1135 394.5 1207 c 128,-1,38
 518 1279 518 1279 665 1279 c 4,39,40
 810.5 1279 810.5 1279 933.75 1207 c 128,-1,41
 1057 1135 1057 1135 1130.5 1012.5 c 128,-1,42
 1204 890 1204 890 1204 744 c 2,43,-1
 1204 -551 l 1,10,-1
EndSplineSet
EndChar
StartChar: uni0E25
Encoding: 3621 3621 160
Width: 1385
VWidth: 2045
Flags: MW
HStem: -8 134<428.05 522.95> 305 133<429.35 521.65> 675 178<496.8 834.8> 1101 178<571.5 719>
VStem: 105 180<744 933.8> 250 136<168.2 261.8> 250 180<433 602.6> 566 136<166.9 263.1> 1003 180<0 466 718 893.01>
Fore
1003 718 m 9,0,-1
 1003 744 l 2,1,2
 1003 893.01 1003 893.01 897.5 997.5 c 0,3,4
 793 1101 793 1101 645 1101 c 4,5,6
 498 1101 498 1101 391.5 996 c 128,-1,7
 285 891 285 891 285 744 c 1,8,-1
 105 744 l 1,9,10
 105 890 105 890 177.5 1012 c 128,-1,11
 250 1134 250 1134 374 1206.5 c 128,-1,12
 498 1279 498 1279 645 1279 c 4,13,14
 793 1279 793 1279 917 1206 c 128,-1,15
 1041 1133 1041 1133 1112 1011.5 c 128,-1,16
 1183 890 1183 890 1183 744 c 2,17,-1
 1183 0 l 1,18,-1
 1003 0 l 1,19,-1
 1003 317 l 2,20,21
 1003 466 1003 466 898 570.5 c 128,-1,22
 793 675 793 675 645 675 c 0,23,24
 531 675 531 675 480.5 626.5 c 128,-1,25
 430 578 430 578 430 496 c 2,26,-1
 430 433 l 1,27,28
 448 438 448 438 476 438 c 0,29,30
 568 438 568 438 635 373 c 128,-1,31
 702 308 702 308 702 216 c 0,32,33
 702 125 702 125 635.5 58.5 c 128,-1,34
 569 -8 569 -8 476 -8 c 0,35,36
 384 -8 384 -8 317 57.5 c 128,-1,37
 250 123 250 123 250 214 c 2,38,-1
 250 495 l 2,39,40
 250 657 250 657 357 755 c 128,-1,41
 464 853 464 853 645 853 c 0,42,43
 791 853 791 853 878 803 c 128,-1,44
 965 753 965 753 1003 718 c 9,0,-1
386 215 m 128,-1,46
 386 179 386 179 412.5 152.5 c 128,-1,47
 439 126 439 126 475.5 126 c 128,-1,48
 512 126 512 126 539 152 c 128,-1,49
 566 178 566 178 566 215 c 128,-1,50
 566 252 566 252 538.5 278.5 c 128,-1,51
 511 305 511 305 475.5 305 c 128,-1,52
 440 305 440 305 413 278 c 128,-1,45
 386 251 386 251 386 215 c 128,-1,46
EndSplineSet
EndChar
StartChar: uni0E26
Encoding: 3622 3622 161
Width: 1504
VWidth: 2045
Flags: MW
HStem: -8 134<294.05 388.95> 305 133<295.35 387.65> 744 178<567 656> 1101 178<692.533 835.5 689 837>
VStem: 116 136<166.75 264.25> 387 180<433 744> 431 136<166.75 264.25> 1122 180<-550 931.2>
Fore
223 744 m 1,0,1
 223 890 223 890 296.5 1012 c 128,-1,2
 370 1134 370 1134 493 1206.5 c 128,-1,3
 616 1279 616 1279 762 1279 c 4,4,5
 909 1279 909 1279 1032 1207 c 128,-1,6
 1155 1135 1155 1135 1229 1012 c 0,7,8
 1302 889 1302 889 1302 744 c 2,9,-1
 1302 -550 l 1,10,-1
 1122 -551 l 1,11,-1
 1122 744 l 2,12,13
 1122 888 1122 888 1016.5 994.5 c 128,-1,14
 911 1101 911 1101 763 1101 c 4,15,16
 622.067 1101 622.067 1101 509 995 c 0,17,18
 477 965 477 965 451 922 c 1,19,-1
 656 922 l 1,20,-1
 656 744 l 1,21,-1
 567 744 l 1,22,-1
 567 216 l 2,23,24
 567 123 567 123 500.5 57.5 c 128,-1,25
 434 -8 434 -8 342 -8 c 0,26,27
 248 -8 248 -8 182 58 c 128,-1,28
 116 124 116 124 116 216 c 128,-1,29
 116 308 116 308 182.5 373 c 128,-1,30
 249 438 249 438 342 438 c 0,31,32
 370 438 370 438 387 433 c 1,33,-1
 387 744 l 1,34,-1
 223 744 l 1,0,1
252 215.5 m 128,-1,36
 252 178 252 178 278.5 152 c 128,-1,37
 305 126 305 126 341.5 126 c 128,-1,38
 378 126 378 126 404.5 152 c 128,-1,39
 431 178 431 178 431 215.5 c 128,-1,40
 431 253 431 253 404 279 c 128,-1,41
 377 305 377 305 341.5 305 c 128,-1,42
 306 305 306 305 279 279 c 128,-1,35
 252 253 252 253 252 215.5 c 128,-1,36
EndSplineSet
EndChar
StartChar: uni0E27
Encoding: 3623 3623 162
Width: 1174
VWidth: 2045
Flags: MW
HStem: -8 134<724.3 825.7> 305 133<725.6 824.4> 1096 180<494 605>
VStem: 98 181<829 973.3> 551 134<168.2 261.8> 821 180<433 973.3> 865 136<168.2 261.8>
Fore
98 829 m 17,0,1
 98 950 98 950 159 1053 c 128,-1,2
 220 1156 220 1156 322.5 1216 c 128,-1,3
 425 1276 425 1276 550 1276 c 4,4,5
 674 1276 674 1276 776.5 1216 c 128,-1,6
 879 1156 879 1156 940 1053 c 128,-1,7
 1001 950 1001 950 1001 829 c 2,8,-1
 1001 216 l 2,9,10
 1001 123 1001 123 934 57.5 c 128,-1,11
 867 -8 867 -8 775 -8 c 0,12,13
 682 -8 682 -8 616.5 58 c 128,-1,14
 551 124 551 124 551 216 c 128,-1,15
 551 308 551 308 616.5 373 c 128,-1,16
 682 438 682 438 777 438 c 0,17,18
 804 438 804 438 821 433 c 1,19,-1
 821 829 l 2,20,21
 821 940 821 940 740.5 1018 c 128,-1,22
 660 1096 660 1096 550 1096 c 4,23,24
 438 1096 438 1096 358.5 1018 c 128,-1,25
 279 940 279 940 279 829 c 1,26,-1
 98 829 l 17,0,1
685 215 m 128,-1,28
 685 179 685 179 710.5 152.5 c 128,-1,29
 736 126 736 126 775 126 c 128,-1,30
 814 126 814 126 839.5 152.5 c 128,-1,31
 865 179 865 179 865 215 c 128,-1,32
 865 251 865 251 839 278 c 128,-1,33
 813 305 813 305 775 305 c 128,-1,34
 737 305 737 305 711 278 c 128,-1,27
 685 251 685 251 685 215 c 128,-1,28
EndSplineSet
EndChar
StartChar: uni0E28
Encoding: 3624 3624 163
Width: 1398
VWidth: 2045
Flags: MW
HStem: 0 21G<161 341 1040 1220> 453 133<640.2 733.8> 764 133<637.75 735.25> 1088 180<696 768.643 616.5 771>
VStem: 161 180<322 926.4> 776 136<626.325 723.175> 1040 180<0 823.359> 1129 178<1174.2 1338>
Fore
896 757 m 1,0,1
 912 721 912 721 912 675 c 0,2,3
 912 584 912 584 844 518 c 128,-1,4
 776 452 776 452 686 453 c 0,5,6
 592 453 592 453 532 518 c 1,7,-1
 341 0 l 1,8,-1
 161 0 l 1,9,-1
 161 734 l 2,10,11
 161 896.315 161 896.315 229 1010.66 c 128,-1,12
 297 1125 297 1125 419.5 1196.5 c 128,-1,13
 542 1268 542 1268 691 1268 c 4,14,15
 846.286 1268 846.286 1268 950 1202 c 0,16,17
 1006 1166 1006 1166 1065 1109 c 1,18,19
 1129 1212 1129 1212 1129 1338 c 1,20,-1
 1307 1338 l 1,21,22
 1307 1171.48 1307 1171.48 1222 1026 c 0,23,24
 1195.72 981.022 1195.72 981.022 1173 953 c 1,25,26
 1220 853 1220 853 1220 734 c 2,27,-1
 1220 0 l 1,28,-1
 1040 0 l 1,29,-1
 1040 733 l 2,30,31
 1040 781 1040 781 1030 820 c 1,32,33
 957.942 773.5 957.942 773.5 896 757 c 1,0,1
943 976 m 1,34,35
 846 1088 846 1088 696 1088 c 4,36,37
 540.952 1088.83 540.952 1088.83 442.75 987.25 c 0,38,39
 341 882 341 882 341 734 c 2,40,-1
 341 322 l 1,41,-1
 482 769 l 2,42,43
 489.833 793.833 489.833 793.833 542 846 c 0,44,45
 591.97 895.97 591.97 895.97 686 897 c 0,46,47
 855.708 898.969 855.708 898.969 943 976 c 1,34,35
596 674.75 m 128,-1,49
 596 637.5 596 637.5 623.5 611.75 c 128,-1,50
 651 586 651 586 687 586 c 128,-1,51
 723 586 723 586 749.5 611.75 c 128,-1,52
 776 637.5 776 637.5 776 674.75 c 128,-1,53
 776 712 776 712 750 738 c 128,-1,54
 724 764 724 764 686.5 764 c 128,-1,55
 649 764 649 764 622.5 738 c 128,-1,48
 596 712 596 712 596 674.75 c 128,-1,49
EndSplineSet
EndChar
StartChar: uni0E29
Encoding: 3625 3625 164
Width: 1505
VWidth: 2045
Flags: W
HStem: 0 178<290 381 559 1081> 384 193<723.6 899> 755 133<722.3 823.7> 814 134<289.35 381.65> 1127 133<288.05 382.95>
VStem: 110 136<987.6 1086.4> 381 178<178 597 761.221 819> 425 136<988.9 1085.1> 1081 180<178 411 808 1254>
Fore
1081 580 m 9,0,-1
 1081 1254 l 1,1,-1
 1261 1254 l 1,2,-1
 1261 808 l 1,3,-1
 1403 713 l 1,4,5
 1342 584 1342 584 1261 511 c 1,6,-1
 1261 0 l 1,7,-1
 290 0 l 1,8,-1
 290 178 l 1,9,-1
 381 178 l 1,10,-1
 381 819 l 1,11,12
 356 814 356 814 335 814 c 0,13,14
 242 814 242 814 176 880 c 128,-1,15
 110 946 110 946 110 1038 c 0,16,17
 110 1129 110 1129 176.5 1194.5 c 128,-1,18
 243 1260 243 1260 335 1260 c 0,19,20
 428 1260 428 1260 494.5 1194.5 c 128,-1,21
 561 1129 561 1129 561 1036 c 2,22,-1
 559 733 l 1,23,24
 574 786 574 786 627 837 c 128,-1,25
 680 888 680 888 773 888 c 0,26,27
 865 888 865 888 934 820 c 128,-1,28
 1003 752 1003 752 998 669 c 0,29,30
 992 586 992 586 941 547 c 1,31,32
 1016 544 1016 544 1081 580 c 9,0,-1
1081 411 m 17,33,34
 994 384 994 384 899 384 c 0,35,36
 718 387 718 387 634 474 c 0,37,38
 576 537 576 537 559 597 c 1,39,-1
 559 178 l 1,40,-1
 1081 178 l 1,41,-1
 1081 411 l 17,33,34
683 665.5 m 128,-1,43
 683 629 683 629 709 603 c 128,-1,44
 735 577 735 577 773 577 c 128,-1,45
 811 577 811 577 837 603 c 128,-1,46
 863 629 863 629 863 665.5 c 128,-1,47
 863 702 863 702 837.5 728.5 c 128,-1,48
 812 755 812 755 773 755 c 128,-1,49
 734 755 734 755 708.5 728.5 c 128,-1,42
 683 702 683 702 683 665.5 c 128,-1,43
246 1037 m 128,-1,51
 246 999 246 999 273 973.5 c 128,-1,52
 300 948 300 948 335.5 948 c 128,-1,53
 371 948 371 948 398 974 c 128,-1,54
 425 1000 425 1000 425 1037 c 128,-1,55
 425 1074 425 1074 398.5 1100.5 c 128,-1,56
 372 1127 372 1127 335.5 1127 c 128,-1,57
 299 1127 299 1127 272.5 1101 c 128,-1,50
 246 1075 246 1075 246 1037 c 128,-1,51
EndSplineSet
EndChar
StartChar: uni0E2A
Encoding: 3626 3626 165
Width: 1385
VWidth: 2045
Flags: MW
HStem: -8 134<428.05 522.95> 305 133<429.35 521.65> 675 178<496.8 810.1> 1101 178<571.5 718 571.5 719>
VStem: 105 180<744 933.8> 250 136<168.2 261.8> 250 180<433 602.6> 566 136<166.9 263.1> 1003 180<0 466 709 816.459> 1098 178<1160.9 1300>
Fore
1000 817 m 1,0,1
 965 791 965 791 922 773 c 1,2,3
 968 748 968 748 1003 709 c 1,4,-1
 1003 744 l 2,5,6
 1003 800 1003 800 1000 817 c 1,0,1
1049 1098 m 1,7,8
 1098 1193 1098 1193 1098 1300 c 1,9,-1
 1276 1300 l 1,10,11
 1276 1124.6 1276 1124.6 1192 986 c 0,12,13
 1172 953 1172 953 1153 927 c 1,14,15
 1183 840 1183 840 1183 744 c 2,16,-1
 1183 0 l 1,17,-1
 1003 0 l 1,18,-1
 1003 317 l 2,19,20
 1003 466 1003 466 898 570 c 0,21,22
 793 675 793 675 645 675 c 0,23,24
 531 675 531 675 480.5 626.5 c 128,-1,25
 430 578 430 578 430 496 c 2,26,-1
 430 433 l 1,27,28
 448 438 448 438 476 438 c 0,29,30
 568 438 568 438 635 373 c 128,-1,31
 702 308 702 308 702 216 c 0,32,33
 702 125 702 125 635.5 58.5 c 128,-1,34
 569 -8 569 -8 476 -8 c 0,35,36
 384 -8 384 -8 317 57.5 c 128,-1,37
 250 123 250 123 250 214 c 2,38,-1
 250 495 l 2,39,40
 250 657 250 657 357 755 c 128,-1,41
 464 853 464 853 645 853 c 0,42,43
 772 853 772 853 872 912 c 0,44,45
 905 931.5 905 931.5 935 954 c 1,46,47
 915 979 915 979 898 996 c 0,48,49
 793 1101 793 1101 645 1101 c 4,50,51
 498 1101 498 1101 391.5 996 c 128,-1,52
 285 891 285 891 285 744 c 1,53,-1
 105 744 l 1,54,55
 105 890 105 890 177.5 1012 c 128,-1,56
 250 1134 250 1134 374 1206.5 c 128,-1,57
 498 1279 498 1279 645 1279 c 4,58,59
 791 1279 791 1279 915 1206 c 0,60,61
 991 1162 991 1162 1049 1098 c 1,7,8
386 215 m 128,-1,63
 386 179 386 179 412.5 152.5 c 128,-1,64
 439 126 439 126 475.5 126 c 128,-1,65
 512 126 512 126 539 152 c 128,-1,66
 566 178 566 178 566 215 c 128,-1,67
 566 252 566 252 538.5 278.5 c 128,-1,68
 511 305 511 305 475.5 305 c 128,-1,69
 440 305 440 305 413 278 c 128,-1,62
 386 251 386 251 386 215 c 128,-1,63
EndSplineSet
EndChar
StartChar: uni0E2B
Encoding: 3627 3627 166
Width: 1507
VWidth: 2045
Flags: W
HStem: 0 21G<366 546 1120 1300> 814 134<274.2 367.8> 1127 133<272.975 368.525> 1137 133<1026.75 1124.25>
VStem: 95 136<987.6 1086.4> 366 180<316 819> 410 136<988.25 1085.75> 851 136<997.45 1097.55> 1120 180<0 725.9> 1166 134<998.675 1096.82>
Fore
987 1047.5 m 132,-1,1
 987 1009 987 1009 1012.5 983.5 c 132,-1,2
 1038 958 1038 958 1075.5 958 c 132,-1,3
 1113 958 1113 958 1139.5 984 c 132,-1,4
 1166 1010 1166 1010 1166 1047.75 c 132,-1,5
 1166 1085.5 1166 1085.5 1139.5 1111.25 c 132,-1,6
 1113 1137 1113 1137 1075.5 1137 c 132,-1,7
 1038 1137 1038 1137 1012.5 1111.5 c 132,-1,0
 987 1086 987 1086 987 1047.5 c 132,-1,1
1215 874 m 5,8,9
 1300 801 1300 801 1300 655 c 6,10,-1
 1300 0 l 1,11,-1
 1120 0 l 1,12,-1
 1120 670 l 6,13,14
 1120 713 1120 713 1091.5 745 c 132,-1,15
 1063 777 1063 777 1009 777 c 4,16,17
 951.815 777 951.815 777 921 718 c 6,18,-1
 546 0 l 1,19,-1
 366 0 l 1,20,-1
 366 819 l 1,21,22
 341 814 341 814 320 814 c 0,23,24
 227 814 227 814 161 880 c 128,-1,25
 95 946 95 946 95 1038 c 0,26,27
 95 1129 95 1129 161.5 1194.5 c 128,-1,28
 228 1260 228 1260 320 1260 c 128,-1,29
 412 1260 412 1260 479 1194.5 c 128,-1,30
 546 1129 546 1129 546 1036 c 2,31,-1
 546 316 l 1,32,-1
 782 783 l 6,33,34
 826.261 870.584 826.261 870.584 895 915 c 5,35,36
 851 971 851 971 851 1048 c 4,37,38
 851 1139 851 1139 917.5 1204.5 c 132,-1,39
 984 1270 984 1270 1076 1270 c 4,40,41
 1169 1270 1169 1270 1235.5 1204.5 c 4,42,43
 1300.92 1140.06 1300.92 1140.06 1300 1048 c 4,44,45
 1298.91 939.155 1298.91 939.155 1215 874 c 5,8,9
231 1037 m 128,-1,47
 231 999 231 999 258 973.5 c 128,-1,48
 285 948 285 948 321 948 c 128,-1,49
 357 948 357 948 383.5 973.75 c 128,-1,50
 410 999.5 410 999.5 410 1037 c 128,-1,51
 410 1074.5 410 1074.5 383.75 1100.75 c 128,-1,52
 357.5 1127 357.5 1127 320.75 1127 c 128,-1,53
 284 1127 284 1127 257.5 1101 c 128,-1,46
 231 1075 231 1075 231 1037 c 128,-1,47
EndSplineSet
EndChar
StartChar: uni0E2C
Encoding: 3628 3628 167
Width: 1654
VWidth: 2045
Flags: W
HStem: 0 21G<366 546 1200 1380> 814 134<274.2 367.8> 1118 134<1104.9 1201.1> 1127 133<272.975 368.525> 1430 134<1104.75 1202.25>
VStem: 95 136<987.6 1086.4> 366 180<430 819> 410 136<988.25 1085.75> 928 136<1293.05 1387.95> 1200 180<432 1122>
AnchorPoint: "AboveBase" 827.63 1460.2 basechar 0
Fore
1380 1246 m 1,0,-1
 1380 0 l 1,1,-1
 1200 0 l 1,2,-1
 873 847 l 1,3,-1
 546 0 l 1,4,-1
 366 0 l 1,5,-1
 366 819 l 1,6,7
 343 814 343 814 320 814 c 0,8,9
 227 814 227 814 161 880 c 128,-1,10
 95 946 95 946 95 1038 c 0,11,12
 95 1129 95 1129 161.5 1194.5 c 128,-1,13
 228 1260 228 1260 320 1260 c 0,14,15
 413 1260 413 1260 479.5 1194 c 0,16,17
 546.303 1127.69 546.303 1127.69 546 1036 c 2,18,-1
 544 430 l 5,19,-1
 814 1118 l 1,20,-1
 930 1118 l 1,21,-1
 1200 432 l 5,22,-1
 1200 1122 l 1,23,24
 1179 1118 1179 1118 1154 1118 c 0,25,26
 1062 1118 1062 1118 995 1183.5 c 128,-1,27
 928 1249 928 1249 928 1341 c 128,-1,28
 928 1433 928 1433 994 1498.5 c 128,-1,29
 1060 1564 1060 1564 1154 1564 c 0,30,31
 1246.8 1564 1246.8 1564 1312 1498 c 0,32,33
 1334.22 1475.5 1334.22 1475.5 1343 1462 c 1,34,-1
 1430 1548 l 1,35,-1
 1556 1421 l 1,36,-1
 1380 1246 l 1,0,-1
1064 1340.5 m 128,-1,38
 1064 1304 1064 1304 1090 1278 c 128,-1,39
 1116 1252 1116 1252 1153 1252 c 128,-1,40
 1190 1252 1190 1252 1217 1278 c 128,-1,41
 1244 1304 1244 1304 1244 1340.5 c 128,-1,42
 1244 1377 1244 1377 1217.5 1403.5 c 128,-1,43
 1191 1430 1191 1430 1153.5 1430 c 128,-1,44
 1116 1430 1116 1430 1090 1403.5 c 128,-1,37
 1064 1377 1064 1377 1064 1340.5 c 128,-1,38
231 1037 m 128,-1,46
 231 999 231 999 258 973.5 c 128,-1,47
 285 948 285 948 321 948 c 128,-1,48
 357 948 357 948 383.5 973.75 c 128,-1,49
 410 999.5 410 999.5 410 1037 c 128,-1,50
 410 1074.5 410 1074.5 383.75 1100.75 c 128,-1,51
 357.5 1127 357.5 1127 320.75 1127 c 128,-1,52
 284 1127 284 1127 257.5 1101 c 128,-1,45
 231 1075 231 1075 231 1037 c 128,-1,46
EndSplineSet
EndChar
StartChar: uni0E2D
Encoding: 3629 3629 168
Width: 1364
VWidth: 2045
Flags: MW
HStem: 0 178<516 995> 454 133<512.6 611.4> 765 134<511.3 612.7> 1101 178<562 708.5 562 709.5>
VStem: 96 180<744 933.15> 337 181<178 457> 337 136<627.75 725.25> 652 134<627.75 725.25> 995 180<178 934.1>
Fore
995 743 m 2,0,1
 995 891 995 891 889.5 996 c 128,-1,2
 784 1101 784 1101 635 1101 c 4,3,4
 489 1101 489 1101 382.5 995.5 c 128,-1,5
 276 890 276 890 276 744 c 1,6,-1
 96 744 l 1,7,8
 96 889.5 96 889.5 168 1011.75 c 128,-1,9
 240 1134 240 1134 364.5 1206.5 c 128,-1,10
 489 1279 489 1279 635 1279 c 4,11,12
 782 1279 782 1279 905.5 1207 c 128,-1,13
 1029 1135 1029 1135 1102 1012.5 c 128,-1,14
 1175 890 1175 890 1175 743 c 2,15,-1
 1175 0 l 1,16,-1
 337 0 l 1,17,-1
 337 678 l 2,18,19
 337 768 337 768 402.5 833.5 c 128,-1,20
 468 899 468 899 562 899 c 128,-1,21
 656 899 656 899 721 833 c 128,-1,22
 786 767 786 767 786 676 c 0,23,24
 786 584 786 584 720 519 c 128,-1,25
 654 454 654 454 562 454 c 0,26,27
 539 454 539 454 518 457 c 1,28,-1
 516 178 l 1,29,-1
 995 178 l 1,30,-1
 995 743 l 2,0,1
652 676.5 m 128,-1,32
 652 714 652 714 626.5 739.5 c 128,-1,33
 601 765 601 765 562 765 c 128,-1,34
 523 765 523 765 498 739.5 c 128,-1,35
 473 714 473 714 473 676.5 c 128,-1,36
 473 639 473 639 498.5 613 c 128,-1,37
 524 587 524 587 562 587 c 128,-1,38
 600 587 600 587 626 613 c 128,-1,31
 652 639 652 639 652 676.5 c 128,-1,32
EndSplineSet
EndChar
StartChar: uni0E2E
Encoding: 3630 3630 169
Width: 1298
VWidth: 2045
Flags: MW
HStem: 0 178<381 898> 306 133<379.2 472.8> 617 133<377.75 475.25> 800 160<279.8 700.8> 1104 175<526 538>
VStem: 114 213<948.9 1124.4> 201 180<178 309> 201 136<479.325 576.175> 517 136<479.325 576.175> 898 180<178 834.65>
Fore
773 1014 m 1,0,1
 676 1105 676 1105 526 1104 c 4,2,3
 327 1101 327 1101 327 1023 c 0,4,5
 327 966 327 966 511 960 c 0,6,7
 657 955 657 955 773 1014 c 1,0,1
871 878 m 1,8,9
 727 799 727 799 506 800 c 0,10,11
 332 800 332 800 223.5 873 c 128,-1,12
 115 946 115 946 114 1019 c 0,13,14
 113 1121 113 1121 226.5 1197.75 c 0,15,16
 342.614 1276.27 342.614 1276.27 538 1279 c 4,17,18
 678.026 1280.96 678.026 1280.96 808 1206 c 0,19,20
 874.15 1167.85 874.15 1167.85 919 1123 c 1,21,22
 984 1193 984 1193 1008 1276 c 1,23,-1
 1160 1194 l 1,24,25
 1120 1083 1120 1083 1018 987 c 1,26,27
 1078 874 1078 874 1078 743 c 2,28,-1
 1078 0 l 1,29,-1
 201 0 l 1,30,-1
 201 528 l 2,31,32
 201 620 201 620 267.5 685 c 128,-1,33
 334 750 334 750 427 750 c 0,34,35
 519 750 519 750 586 685 c 128,-1,36
 653 620 653 620 653 528 c 128,-1,37
 653 436 653 436 586 371 c 128,-1,38
 519 306 519 306 427 306 c 0,39,40
 402 306 402 306 381 309 c 1,41,-1
 381 178 l 1,42,-1
 898 178 l 1,43,-1
 898 743 l 2,44,45
 898 813.5 898 813.5 871 878 c 1,8,9
517 527.75 m 128,-1,47
 517 565 517 565 490.5 591 c 128,-1,48
 464 617 464 617 426.5 617 c 128,-1,49
 389 617 389 617 363 591 c 128,-1,50
 337 565 337 565 337 527.75 c 128,-1,51
 337 490.5 337 490.5 363.5 464.75 c 128,-1,52
 390 439 390 439 426 439 c 128,-1,53
 462 439 462 439 489.5 464.75 c 128,-1,46
 517 490.5 517 490.5 517 527.75 c 128,-1,47
EndSplineSet
EndChar
StartChar: uni0E2F
Encoding: 3631 3631 170
Width: 1295
VWidth: 2045
Flags: W
HStem: 0 21G<919 1099> 719 221<290.3 508> 1118 134<291.6 389.1>
VStem: 116 134<982.2 1077.75> 430 136<983.5 1077.1> 919 180<0 853 1060.3 1254>
Fore
511 899 m 1,0,1
 534 893 534 893 560 893 c 0,2,3
 708 893 708 893 813 999 c 0,4,5
 919 1105 919 1105 919 1254 c 1,6,-1
 1099 1254 l 1,7,-1
 1099 0 l 1,8,-1
 919 0 l 1,9,-1
 919 853 l 1,10,11
 874 809 874 809 771 764 c 128,-1,12
 668 719 668 719 508 719 c 0,13,14
 311 719 311 719 212 819 c 0,15,16
 113 918 113 918 116 1030 c 0,17,18
 119 1124 119 1124 183 1188 c 128,-1,19
 247 1252 247 1252 340 1252 c 0,20,21
 434 1252 434 1252 499 1188 c 0,22,23
 565 1122 565 1122 566 1030 c 0,24,25
 567 955 567 955 511 899 c 1,0,1
250 1029 m 0,26,27
 250 993 250 993 277 966 c 0,28,29
 302 940 302 940 341 940 c 0,30,31
 379 940 379 940 404 966 c 0,32,33
 430 994 430 994 430 1029 c 0,34,35
 430 1066 430 1066 404 1092 c 128,-1,36
 378 1118 378 1118 341 1118 c 0,37,38
 303 1118 303 1118 277 1092 c 0,39,40
 250 1066.5 250 1066.5 250 1029 c 0,26,27
EndSplineSet
EndChar
StartChar: uni0E30
Encoding: 3632 3632 171
Width: 1158
VWidth: 2045
Flags: W
HStem: 45 193<272.6 448> 417 133<272.6 370.1> 665 193<271.3 448> 1036 133<272.6 368.8>
VStem: 99 133<277.6 376.4 897.9 995.4>
Fore
951 994 m 5,0,1
 862 804 862 804 731 734 c 0,2,3
 599 664 599 664 448 665 c 0,4,5
 266 667 266 667 183 754 c 0,6,7
 99 841 99 841 99 941 c 0,8,9
 99 1040 99 1040 164 1105 c 0,10,11
 228 1169 228 1169 322 1169 c 0,12,13
 415 1169 415 1169 483 1101 c 0,14,15
 552 1034 552 1034 547 949 c 0,16,17
 541 865 541 865 489 828 c 1,18,19
 581 823 581 823 662 878 c 0,20,21
 744 932 744 932 810 1089 c 1,22,-1
 951 994 l 5,0,1
232 946 m 4,23,24
 232 909 232 909 258 884 c 0,25,26
 283 858 283 858 322 858 c 0,27,28
 360 858 360 858 386 884 c 128,-1,29
 412 910 412 910 412 946 c 128,-1,30
 412 982 412 982 386 1010 c 0,31,32
 358 1036 358 1036 322 1036 c 0,33,34
 284 1036 284 1036 258 1010 c 128,-1,35
 232 984 232 984 232 946 c 4,23,24
951 375 m 1,36,37
 862 185 862 185 731 115 c 0,38,39
 600 43 600 43 448 45 c 0,40,41
 267 46 267 46 183 134 c 128,-1,42
 99 222 99 222 99 322 c 0,43,44
 99 421 99 421 164 486 c 0,45,46
 230 550 230 550 322 550 c 0,47,48
 415 550 415 550 483 482 c 0,49,50
 552 415 552 415 547 330 c 0,51,52
 541 247 541 247 489 208 c 1,53,54
 579 204 579 204 662 258 c 0,55,56
 744 313 744 313 810 470 c 1,57,-1
 951 375 l 1,36,37
232 327 m 128,-1,59
 232 289 232 289 258 264 c 0,60,61
 284 238 284 238 322 238 c 0,62,63
 358 238 358 238 386 264 c 0,64,65
 412 290 412 290 412 327 c 128,-1,66
 412 364 412 364 386 390 c 0,67,68
 359 417 359 417 322 417 c 0,69,70
 284 417 284 417 258 390 c 0,71,58
 232 365 232 365 232 327 c 128,-1,59
EndSplineSet
EndChar
StartChar: uni0E31
Encoding: 3633 3633 172
Width: 0
VWidth: 2045
Flags: W
HStem: 1414 163<-463 -234.8> 1785 133<-639.4 -540.6>
VStem: -813 133<1648.2 1741.8>
AnchorPoint: "AboveMark" -346.401 1986.39 basemark 0
AnchorPoint: "AboveBase" -278.113 1374.68 mark 0
Fore
139 1743 m 1,0,1
 61 1612 61 1612 -82 1512 c 0,2,3
 -223 1412 -223 1412 -463 1414 c 0,4,5
 -642 1416 -642 1416 -727 1505 c 0,6,7
 -813 1596 -813 1596 -813 1690 c 0,8,9
 -813 1789 -813 1789 -748 1854 c 0,10,11
 -684 1918 -684 1918 -590 1918 c 128,-1,12
 -496 1918 -496 1918 -428 1850 c 128,-1,13
 -360 1782 -360 1782 -365 1698 c 0,14,15
 -371 1614 -371 1614 -422 1577 c 1,16,17
 -278 1572.5 -278 1572.5 -176 1646 c 0,18,19
 -77 1716 -77 1716 -3 1838 c 1,20,-1
 139 1743 l 1,0,1
-680 1695 m 128,-1,22
 -680 1659 -680 1659 -654 1633 c 128,-1,23
 -628 1607 -628 1607 -590 1607 c 128,-1,24
 -552 1607 -552 1607 -526 1633 c 128,-1,25
 -500 1659 -500 1659 -500 1695 c 128,-1,26
 -500 1731 -500 1731 -526 1759 c 0,27,28
 -552 1785 -552 1785 -590 1785 c 128,-1,29
 -628 1785 -628 1785 -654 1759 c 0,30,21
 -680 1731 -680 1731 -680 1695 c 128,-1,22
EndSplineSet
EndChar
StartChar: uni0E32
Encoding: 3634 3634 173
Width: 1169
VWidth: 2045
Flags: W
HStem: 0 21G<798 978> 1096 180<379.1 672.25>
VStem: 75 181<829 973.3> 798 180<0 973.3>
Fore
798 829 m 6,0,1
 798 940 798 940 718.25 1018 c 132,-1,2
 638.5 1096 638.5 1096 526 1096 c 4,3,4
 413 1096 413 1096 334.5 1018 c 132,-1,5
 256 940 256 940 256 829 c 5,6,-1
 75 829 l 5,7,8
 75 951 75 951 136.5 1053.5 c 132,-1,9
 198 1156 198 1156 301 1216 c 132,-1,10
 404 1276 404 1276 526 1276 c 4,11,12
 649 1276 649 1276 753 1215 c 132,-1,13
 857 1154 857 1154 917.5 1051.5 c 132,-1,14
 978 949 978 949 978 829 c 6,15,-1
 978 0 l 1,16,-1
 798 0 l 1,17,-1
 798 829 l 6,0,1
EndSplineSet
EndChar
StartChar: uni0E34
Encoding: 3636 3636 175
Width: 0
VWidth: 2045
Flags: W
HStem: 1683 174<-770.356 -590.7>
AnchorPoint: "AboveMark" -305.258 1833.74 basemark 0
AnchorPoint: "AboveBase" -163.095 1296.25 mark 0
Fore
-939 1593 m 9,0,-1
 -425 1544 l 1,1,2
 -468 1602 -468 1602 -543 1641 c 128,-1,3
 -618 1680 -618 1680 -709 1683 c 0,4,5
 -749.5 1683 -749.5 1683 -832 1656 c 0,6,7
 -914 1630 -914 1630 -939 1593 c 9,0,-1
-1229 1464 m 17,8,9
 -1173 1660 -1173 1660 -1023 1758 c 0,10,11
 -872 1858 -872 1858 -709 1857 c 0,12,13
 -509 1854 -509 1854 -351 1722 c 0,14,15
 -196.5 1590 -196.5 1590 -171 1365 c 1,16,-1
 -1229 1464 l 17,8,9
EndSplineSet
EndChar
StartChar: uni0E35
Encoding: 3637 3637 176
Width: 0
VWidth: 2045
Flags: W
HStem: 1683 174<-770.356 -590.7>
VStem: -328 157<1701 2000>
AnchorPoint: "AboveBase" -158.521 1298.51 mark 0
AnchorPoint: "AboveMark" -240.878 2048.77 basemark 0
Fore
-328 1701 m 9,0,-1
 -328 2000 l 1,1,-1
 -171 2000 l 1,2,-1
 -171 1365 l 1,3,-1
 -1229 1464 l 1,4,5
 -1173 1660 -1173 1660 -1023 1758 c 0,6,7
 -872 1858 -872 1858 -709 1857 c 0,8,9
 -510 1854 -510 1854 -328 1701 c 9,0,-1
-939 1593 m 9,10,-1
 -425 1544 l 1,11,12
 -468 1602 -468 1602 -543 1641 c 128,-1,13
 -618 1680 -618 1680 -709 1683 c 0,14,15
 -749.5 1683 -749.5 1683 -832 1656 c 0,16,17
 -914 1630 -914 1630 -939 1593 c 9,10,-1
EndSplineSet
EndChar
StartChar: uni0E36
Encoding: 3638 3638 177
Width: 0
VWidth: 2045
Flags: W
HStem: 1683 174<-770.356 -610.992> 1933 133<-411.1 -313.6>
VStem: -273 136<1794.9 1891.1>
AnchorPoint: "AboveBase" -173.767 1300.78 mark 0
AnchorPoint: "AboveMark" -355.878 2123.68 basemark 0
Fore
-273 1639 m 1,0,1
 -189 1525 -189 1525 -171 1365 c 1,2,-1
 -1229 1464 l 1,3,4
 -1173 1660 -1173 1660 -1023 1758 c 0,5,6
 -872 1858 -872 1858 -709 1857 c 0,7,8
 -649 1856 -649 1856 -588 1843 c 1,9,10
 -588 1936 -588 1936 -522 2001 c 0,11,12
 -457 2066 -457 2066 -363 2066 c 128,-1,13
 -269 2066 -269 2066 -204 2001 c 0,14,15
 -137 1937 -137 1937 -137 1844 c 0,16,17
 -137 1753 -137 1753 -204 1686 c 0,18,19
 -235 1655 -235 1655 -273 1639 c 1,0,1
-453 1843 m 128,-1,21
 -453 1806 -453 1806 -426 1781 c 0,22,23
 -398 1755 -398 1755 -363 1755 c 0,24,25
 -326 1755 -326 1755 -300 1781 c 0,26,27
 -273 1806 -273 1806 -273 1843 c 128,-1,28
 -273 1880 -273 1880 -300 1907 c 0,29,30
 -325 1933 -325 1933 -363 1933 c 0,31,32
 -400 1933 -400 1933 -426 1907 c 0,33,20
 -453 1880 -453 1880 -453 1843 c 128,-1,21
-939 1593 m 9,34,-1
 -425 1544 l 1,35,36
 -468 1602 -468 1602 -543 1641 c 128,-1,37
 -618 1680 -618 1680 -709 1683 c 0,38,39
 -749.5 1683 -749.5 1683 -832 1656 c 0,40,41
 -914 1630 -914 1630 -939 1593 c 9,34,-1
EndSplineSet
EndChar
StartChar: uni0E37
Encoding: 3639 3639 178
Width: 0
VWidth: 2045
Flags: W
HStem: 1683 174<-770.356 -616.7>
VStem: -564 157<1834 2000> -328 157<1701 2000>
AnchorPoint: "AboveMark" -320.155 2080.85 basemark 0
AnchorPoint: "AboveBase" -174.528 1293.98 mark 0
Fore
-407 1761 m 17,0,1
 -362 1730 -362 1730 -328 1701 c 1,2,-1
 -328 2000 l 1,3,-1
 -171 2000 l 1,4,-1
 -171 1365 l 1,5,-1
 -1229 1464 l 1,6,7
 -1173 1660 -1173 1660 -1023 1758 c 0,8,9
 -872 1858 -872 1858 -709 1857 c 0,10,11
 -638 1856 -638 1856 -564 1834 c 1,12,-1
 -564 2000 l 1,13,-1
 -407 2000 l 1,14,-1
 -407 1761 l 17,0,1
-939 1593 m 9,15,-1
 -425 1544 l 1,16,17
 -468 1602 -468 1602 -543 1641 c 128,-1,18
 -618 1680 -618 1680 -709 1683 c 0,19,20
 -749.5 1683 -749.5 1683 -832 1656 c 0,21,22
 -914 1630 -914 1630 -939 1593 c 9,15,-1
EndSplineSet
EndChar
StartChar: uni0E38
Encoding: 3640 3640 179
Width: 0
VWidth: 2045
Flags: W
HStem: -532 133<-432.75 -337.2> -221 134<-433.4 -335.9>
VStem: -610 136<-357.75 -260.25> -338 180<-755 -529> -294 136<-357.75 -260.25>
AnchorPoint: "BelowBase" -158.835 -88.4521 mark 0
Fore
-338 -755 m 13,0,-1
 -338 -529 l 1,1,2
 -362 -532 -362 -532 -384 -532 c 0,3,4
 -476 -532 -476 -532 -544 -467 c 0,5,6
 -610 -401 -610 -401 -610 -310 c 0,7,8
 -610 -218 -610 -218 -544 -152 c 0,9,10
 -478 -87 -478 -87 -384 -87 c 128,-1,11
 -290 -87 -290 -87 -225 -152 c 0,12,13
 -158 -219 -158 -219 -158 -308 c 2,14,-1
 -158 -755 l 1,15,-1
 -338 -755 l 13,0,-1
-474 -309 m 132,-1,17
 -474 -346.5 -474 -346.5 -447 -372 c 0,18,19
 -421.5 -399 -421.5 -399 -384 -399 c 0,20,21
 -348 -399 -348 -399 -321 -372 c 0,22,23
 -294 -346.5 -294 -346.5 -294 -309 c 128,-1,24
 -294 -271.5 -294 -271.5 -321 -246 c 0,25,26
 -347 -221 -347 -221 -384 -221 c 0,27,28
 -422 -221 -422 -221 -447 -246 c 0,29,16
 -474 -271.5 -474 -271.5 -474 -309 c 132,-1,17
EndSplineSet
EndChar
StartChar: uni0E39
Encoding: 3641 3641 180
Width: 0
VWidth: 2045
Flags: W
HStem: -775 156<-494 -331> -532 133<-766.8 -671.9> -221 134<-768.1 -670.6>
VStem: -945 136<-358.4 -259.6> -674 180<-619 -529> -630 136<-357.1 -260.9> -331 180<-619 -85>
AnchorPoint: "AboveMark" -185.807 1193.52 mark 0
AnchorPoint: "BelowBase" -112.1 -84.9668 mark 0
Fore
-674 -775 m 25,0,-1
 -674 -529 l 1,1,2
 -696 -532 -696 -532 -720 -532 c 0,3,4
 -812 -532 -812 -532 -879 -467 c 0,5,6
 -945 -401 -945 -401 -945 -310 c 0,7,8
 -945 -218 -945 -218 -879 -152 c 0,9,10
 -814 -87 -814 -87 -720 -87 c 0,11,12
 -625 -87 -625 -87 -560 -152 c 0,13,14
 -494 -218 -494 -218 -494 -308 c 2,15,-1
 -494 -619 l 1,16,-1
 -331 -619 l 1,17,-1
 -331 -85 l 1,18,-1
 -151 -85 l 1,19,-1
 -151 -775 l 1,20,-1
 -674 -775 l 25,0,-1
-809 -309 m 128,-1,22
 -809 -347 -809 -347 -783 -372 c 0,23,24
 -756 -399 -756 -399 -720 -399 c 0,25,26
 -683 -399 -683 -399 -656 -372 c 0,27,28
 -630 -346 -630 -346 -630 -309 c 128,-1,29
 -630 -272 -630 -272 -656 -246 c 0,30,31
 -682 -221 -682 -221 -720 -221 c 0,32,33
 -757 -221 -757 -221 -783 -246 c 128,-1,21
 -809 -271 -809 -271 -809 -309 c 128,-1,22
EndSplineSet
EndChar
StartChar: uni0E3A
Encoding: 3642 3642 181
Width: 0
VWidth: 2045
Flags: W
AnchorPoint: "BelowBase" -185.278 -86.1191 mark 0
Fore
-552 -258 m 132,-1,1
 -552 -184 -552 -184 -499 -133 c 0,2,3
 -445 -82 -445 -82 -370 -82 c 128,-1,4
 -295 -82 -295 -82 -244 -133 c 0,5,6
 -192 -184 -192 -184 -192 -258 c 0,7,8
 -192 -333 -192 -333 -244 -385 c 0,9,10
 -295 -438 -295 -438 -370 -438 c 0,11,12
 -444 -438 -444 -438 -499 -385 c 0,13,0
 -552 -332 -552 -332 -552 -258 c 132,-1,1
EndSplineSet
EndChar
StartChar: uni0E3F
Encoding: 3647 3647 182
Width: 1364
VWidth: 2045
Flags: W
HStem: 0 172<345 550 707 877.3> 669 174<345 550 707 825.95> 1278 172<345 550 707 843.5>
VStem: 165 180<172 669 843 1278> 550 157<-131 0 172 669 843 1276 1450 1598> 994 191<964.95 1197> 1055 201<377.89 583.8>
Fore
707 0 m 9,0,-1
 707 -131 l 1,1,-1
 550 -131 l 1,2,-1
 550 0 l 1,3,-1
 165 0 l 1,4,-1
 165 1450 l 1,5,-1
 550 1450 l 1,6,-1
 550 1598 l 1,7,-1
 707 1598 l 1,8,-1
 707 1450 l 1,9,10
 870 1449 870 1449 970 1406 c 0,11,12
 1082 1358 1082 1358 1140 1249 c 0,13,14
 1185 1170 1185 1170 1185 1080 c 0,15,16
 1185 991.5 1185 991.5 1134 906 c 0,17,18
 1081 821 1081 821 980 772 c 1,19,20
 1112 735 1112 735 1185 639 c 0,21,22
 1256 546 1256 546 1256 420 c 0,23,24
 1256 281 1256 281 1171 163 c 0,25,26
 1145 125 1145 125 1104 97 c 0,27,28
 1039 47 1039 47 945 24 c 0,29,30
 849 0 849 0 707 0 c 9,0,-1
707 843 m 17,31,32
 798.5 846 798.5 846 845 858 c 0,33,34
 994 903 994 903 994 1056 c 0,35,36
 994 1175 994 1175 909 1232 c 0,37,38
 887 1248 887 1248 860 1257 c 0,39,40
 812 1271 812 1271 707 1276 c 1,41,-1
 707 843 l 17,31,32
707 172 m 17,42,43
 838 172 838 172 896 193 c 0,44,45
 928 202 928 202 951 221 c 0,46,47
 1042 277 1042 277 1052 387 c 0,48,49
 1055 406.5 1055 406.5 1055 420 c 0,50,51
 1055 554 1055 554 951 619 c 0,52,53
 927 634 927 634 896 643 c 0,54,55
 833 666 833 666 707 669 c 1,56,-1
 707 172 l 17,42,43
550 172 m 25,57,-1
 550 669 l 1,58,-1
 345 669 l 1,59,-1
 345 172 l 1,60,-1
 550 172 l 25,57,-1
550 841 m 25,61,-1
 550 1278 l 1,62,-1
 345 1278 l 1,63,-1
 345 843 l 1,64,-1
 550 841 l 25,61,-1
EndSplineSet
EndChar
StartChar: uni0E40
Encoding: 3648 3648 183
Width: 706
VWidth: 2045
Flags: W
HStem: -8 134<362.6 461.4> 305 133<362.6 461.4>
VStem: 188 134<168.2 261.8> 188 180<433 1254> 502 134<168.2 261.8>
Fore
322 215 m 128,-1,1
 322 179 322 179 348 153 c 0,2,3
 374 126 374 126 412 126 c 128,-1,4
 450 126 450 126 476 153 c 0,5,6
 502 179 502 179 502 215 c 128,-1,7
 502 251 502 251 476 279 c 0,8,9
 450 305 450 305 412 305 c 128,-1,10
 374 305 374 305 348 279 c 0,11,0
 322 251 322 251 322 215 c 128,-1,1
188 1254 m 1,12,-1
 368 1254 l 1,13,-1
 368 433 l 1,14,15
 386 438 386 438 412 438 c 0,16,17
 505 438 505 438 570 373 c 0,18,19
 636 308 636 308 636 216 c 128,-1,20
 636 124 636 124 570 58 c 0,21,22
 506 -8 506 -8 412 -8 c 0,23,24
 319 -8 319 -8 253 58 c 0,25,26
 188 125 188 125 188 214 c 2,27,-1
 188 1254 l 1,12,-1
EndSplineSet
EndChar
StartChar: uni0E41
Encoding: 3649 3649 184
Width: 1277
VWidth: 2045
Flags: W
HStem: -8 134<342.6 441.4 930.9 1025.8> 305 133<342.6 441.4 932.2 1024.5>
VStem: 168 134<168.2 261.8> 168 180<433 1254> 482 134<168.2 261.8> 753 136<168.2 261.8> 753 180<433 1254> 1069 136<166.9 263.1>
Fore
889 215 m 128,-1,1
 889 179 889 179 915 153 c 0,2,3
 942 126 942 126 979 126 c 0,4,5
 1015 126 1015 126 1042 153 c 0,6,7
 1069 178 1069 178 1069 215 c 128,-1,8
 1069 252 1069 252 1042 279 c 0,9,10
 1014 305 1014 305 979 305 c 0,11,12
 943 305 943 305 915 279 c 0,13,0
 889 251 889 251 889 215 c 128,-1,1
753 1254 m 1,14,-1
 933 1254 l 1,15,-1
 933 433 l 1,16,17
 950 438 950 438 979 438 c 0,18,19
 1071 438 1071 438 1138 373 c 128,-1,20
 1205 308 1205 308 1205 216 c 0,21,22
 1205 125 1205 125 1138 58 c 0,23,24
 1072 -8 1072 -8 979 -8 c 128,-1,25
 886 -8 886 -8 819 58 c 0,26,27
 753 124 753 124 753 214 c 2,28,-1
 753 1254 l 1,14,-1
302 215 m 128,-1,30
 302 179 302 179 328 153 c 0,31,32
 354 126 354 126 392 126 c 128,-1,33
 430 126 430 126 456 153 c 0,34,35
 482 179 482 179 482 215 c 128,-1,36
 482 251 482 251 456 279 c 0,37,38
 430 305 430 305 392 305 c 128,-1,39
 354 305 354 305 328 279 c 0,40,29
 302 251 302 251 302 215 c 128,-1,30
168 1254 m 1,41,-1
 348 1254 l 1,42,-1
 348 433 l 1,43,44
 366 438 366 438 392 438 c 0,45,46
 485 438 485 438 550 373 c 0,47,48
 616 308 616 308 616 216 c 128,-1,49
 616 124 616 124 550 58 c 0,50,51
 486 -8 486 -8 392 -8 c 0,52,53
 299 -8 299 -8 233 58 c 0,54,55
 168 125 168 125 168 214 c 2,56,-1
 168 1254 l 1,41,-1
EndSplineSet
EndChar
StartChar: uni0E42
Encoding: 3650 3650 185
Width: 852
VWidth: 2045
Flags: W
HStem: -8 134<488.3 589.7> 305 133<489.6 588.4> 1542 178<-14 277.9> 1899 178<106.9 487.8>
VStem: 315 134<168.2 261.8> 315 180<433 1509.2> 629 134<168.2 261.8>
Fore
495 1452 m 6,0,-1
 495 433 l 5,1,2
 512 438 512 438 539 438 c 4,3,4
 631 438 631 438 698 373 c 4,5,6
 763 308 763 308 763 216 c 4,7,8
 763 125 763 125 698 58 c 4,9,10
 632 -8 632 -8 539 -8 c 132,-1,11
 446 -8 446 -8 380 58 c 4,12,13
 315 125 315 125 315 214 c 6,14,-1
 315 1452 l 6,15,16
 315 1496 315 1496 289 1519 c 4,17,18
 265 1542 265 1542 222 1542 c 6,19,-1
 -242 1542 l 5,20,21
 -242 1685 -242 1685 -169 1810 c 4,22,23
 -97 1933 -97 1933 28 2005 c 4,24,25
 151 2077 151 2077 298 2077 c 4,26,27
 444 2077 444 2077 568 2006 c 4,28,29
 693 1934 693 1934 765 1811 c 5,30,-1
 609 1722 l 5,31,32
 587 1760 587 1760 553 1794 c 4,33,34
 446.5 1899 446.5 1899 298 1899 c 4,35,36
 150 1899 150 1899 44 1794 c 4,37,38
 10 1761 10 1761 -14 1720 c 5,39,-1
 217 1720 l 6,40,41
 326 1720 326 1720 409 1649 c 4,42,43
 495 1578 495 1578 495 1452 c 6,0,-1
449 215 m 132,-1,45
 449 179 449 179 475 153 c 4,46,47
 500 126 500 126 539 126 c 132,-1,48
 578 126 578 126 603 153 c 4,49,50
 629 179 629 179 629 215 c 132,-1,51
 629 251 629 251 603 279 c 4,52,53
 577 305 577 305 539 305 c 132,-1,54
 501 305 501 305 475 279 c 4,55,44
 449 251 449 251 449 215 c 132,-1,45
EndSplineSet
EndChar
StartChar: uni0E43
Encoding: 3651 3651 186
Width: 909
VWidth: 2045
Flags: W
HStem: -8 134<549.9 644.8> 305 133<551.2 643.5> 1384 133<24.6 123.4> 1903 178<91.1 278.3>
VStem: -186 169<1559.2 1676> 163 136<1560.5 1654.1> 372 136<168.2 261.8> 372 180<433 1819.1> 688 136<166.9 263.1>
Fore
-17 1606 m 0,0,1
 -17 1570 -17 1570 10 1543 c 0,2,3
 36 1517 36 1517 74 1517 c 128,-1,4
 112 1517 112 1517 137 1543 c 0,5,6
 163 1571 163 1571 163 1606 c 0,7,8
 163 1643 163 1643 137 1669 c 128,-1,9
 111 1695 111 1695 74 1695 c 0,10,11
 38 1695 38 1695 10 1669 c 0,12,13
 -17 1643.5 -17 1643.5 -17 1606 c 0,0,1
508 215 m 128,-1,15
 508 179 508 179 534 153 c 0,16,17
 561 126 561 126 598 126 c 0,18,19
 634 126 634 126 661 153 c 0,20,21
 688 178 688 178 688 215 c 128,-1,22
 688 252 688 252 661 279 c 0,23,24
 633 305 633 305 598 305 c 0,25,26
 562 305 562 305 534 279 c 0,27,14
 508 251 508 251 508 215 c 128,-1,15
372 1719 m 2,28,29
 372 1796 372 1796 315 1850 c 0,30,31
 257 1903 257 1903 186 1903 c 0,32,33
 113 1903 113 1903 78 1877 c 0,34,35
 49 1858 49 1858 26 1823 c 1,36,37
 26 1821 26 1821 73 1829 c 0,38,39
 168 1841 168 1841 239 1769 c 0,40,41
 299 1708 299 1708 299 1606 c 0,42,43
 299 1514 299 1514 232 1448 c 0,44,45
 167 1384 167 1384 73 1384 c 0,46,47
 -24 1384 -24 1384 -104 1461 c 0,48,49
 -186 1537 -186 1537 -186 1676 c 0,50,51
 -186 1813 -186 1813 -130 1901 c 0,52,53
 -74 1986 -74 1986 8 2035 c 0,54,55
 87 2081 87 2081 188 2081 c 0,56,57
 288 2081 288 2081 370 2033 c 0,58,59
 455 1984 455 1984 503 1901 c 0,60,61
 552 1818 552 1818 552 1719 c 2,62,-1
 552 433 l 1,63,64
 570 438 570 438 598 438 c 0,65,66
 690 438 690 438 757 373 c 128,-1,67
 824 308 824 308 824 216 c 0,68,69
 824 125 824 125 757 58 c 0,70,71
 691 -8 691 -8 598 -8 c 0,72,73
 506 -8 506 -8 438 58 c 0,74,75
 372 124 372 124 372 214 c 2,76,-1
 372 1719 l 2,28,29
EndSplineSet
EndChar
StartChar: uni0E44
Encoding: 3652 3652 187
Width: 903
VWidth: 2045
Flags: W
HStem: -8 134<549.9 644.8> 305 133<551.2 643.5>
VStem: -90 157<1745 2101> 372 136<168.2 261.8> 372 180<433 1846> 688 136<166.9 263.1>
Fore
552 2074 m 25,0,-1
 552 433 l 1,1,2
 570 438 570 438 598 438 c 0,3,4
 690 438 690 438 757 373 c 128,-1,5
 824 308 824 308 824 216 c 0,6,7
 824 125 824 125 757 58 c 0,8,9
 691 -8 691 -8 598 -8 c 0,10,11
 506 -8 506 -8 438 58 c 0,12,13
 372 124 372 124 372 214 c 2,14,-1
 372 1846 l 1,15,-1
 76 1521 l 1,16,-1
 -90 1521 l 1,17,-1
 -90 1997 l 2,18,19
 -90 2077 -90 2077 -149 2136 c 1,20,-1
 -47 2238 l 1,21,22
 67 2146 67 2146 67 1997 c 2,23,-1
 67 1745 l 1,24,-1
 372 2074 l 1,25,-1
 552 2074 l 25,0,-1
508 215 m 128,-1,27
 508 179 508 179 534 153 c 0,28,29
 561 126 561 126 598 126 c 0,30,31
 634 126 634 126 661 153 c 0,32,33
 688 178 688 178 688 215 c 128,-1,34
 688 252 688 252 661 279 c 0,35,36
 633 305 633 305 598 305 c 0,37,38
 562 305 562 305 534 279 c 0,39,26
 508 251 508 251 508 215 c 128,-1,27
EndSplineSet
EndChar
StartChar: uni0E45
Encoding: 3653 3653 188
Width: 1090
VWidth: 2045
Flags: W
HStem: 1096 180<252.1 545.9>
VStem: -52 181<829 972> 671 180<-551 972>
Fore
671 829 m 6,0,1
 671 939 671 939 591.5 1017.5 c 132,-1,2
 512 1096 512 1096 399 1096 c 132,-1,3
 286 1096 286 1096 207.5 1017.5 c 132,-1,4
 129 939 129 939 129 829 c 5,5,-1
 -52 829 l 5,6,7
 -52 951 -52 951 9 1053 c 132,-1,8
 70 1155 70 1155 173.5 1215.5 c 132,-1,9
 277 1276 277 1276 399 1276 c 4,10,11
 522 1276 522 1276 625.5 1215.5 c 132,-1,12
 729 1155 729 1155 790 1051.5 c 132,-1,13
 851 948 851 948 851 829 c 6,14,-1
 851 -551 l 1,15,-1
 671 -551 l 1,16,-1
 671 829 l 6,0,1
EndSplineSet
EndChar
StartChar: uni0E46
Encoding: 3654 3654 189
Width: 1648
VWidth: 2045
Flags: W
HStem: 571 133<484.2 576.5>
VStem: 281 160<744.6 852> 620 136<744.6 842.1> 1055 180<-551 985.7>
Fore
1055 870 m 2,0,1
 1055 959 1055 959 1005 1020 c 0,2,3
 955 1082 955 1082 881 1100 c 1,4,-1
 771 1033 l 1,5,-1
 659 1103 l 1,6,7
 571 1103 571 1103 483 1000 c 1,8,9
 512 1010 512 1010 540 1013 c 0,10,11
 609 1019 609 1019 684 958 c 0,12,13
 756 900 756 900 756 800 c 128,-1,14
 756 700 756 700 690 636 c 0,15,16
 623 571 623 571 531 571 c 0,17,18
 433 571 433 571 358 647 c 0,19,20
 283 722 283 722 281 852 c 0,21,22
 281 991 281 991 370 1104 c 0,23,24
 458 1219 458 1219 624 1258 c 1,25,-1
 773 1168 l 1,26,-1
 928 1257 l 1,27,28
 1039 1233 1039 1233 1137 1131 c 0,29,30
 1235 1028 1235 1028 1235 870 c 2,31,-1
 1235 -551 l 1,32,-1
 1055 -551 l 1,33,-1
 1055 870 l 2,0,1
441 794 m 0,34,35
 441 756 441 756 467 730 c 0,36,37
 495 704 495 704 531 704 c 0,38,39
 566 704 566 704 594 730 c 0,40,41
 620 756 620 756 620 794 c 0,42,43
 620 831 620 831 594 856 c 0,44,45
 568 882 568 882 531 882 c 0,46,47
 493 882 493 882 467 856 c 0,48,49
 441 831 441 831 441 794 c 0,34,35
EndSplineSet
EndChar
StartChar: uni0E47
Encoding: 3655 3655 190
Width: 0
VWidth: 2045
Flags: W
HStem: 1296 112<-472.299 -396.752> 1541 112<-470.702 -398.331> 1687 118<-695.039 -234.3> 1694.09 116.909<-798.995 -533.639> 1698 119<-886.3 -650.951>
VStem: -1095 131<1427.1 1667.6> -614 113<1436.75 1511.25> -367 113<1438.33 1509.67>
AnchorPoint: "AboveMark" -659.261 1267.29 mark 0
AnchorPoint: "AboveBase" -272.014 1267.68 mark 0
Fore
-964 1548 m 0,0,1
 -964 1455 -964 1455 -899 1441 c 1,2,3
 -902 1473 -902 1473 -880 1504 c 0,4,5
 -861 1534 -861 1534 -820 1536 c 0,6,7
 -760 1538 -760 1538 -704 1493 c 0,8,9
 -646 1448 -646 1448 -611 1441 c 1,10,11
 -614 1457.5 -614 1457.5 -614 1474 c 0,12,13
 -615.5 1546 -615.5 1546 -563 1600 c 0,14,15
 -508 1653 -508 1653 -434 1653 c 128,-1,16
 -360 1653 -360 1653 -307 1600 c 0,17,18
 -254 1549 -254 1549 -254 1474 c 0,19,20
 -254 1401 -254 1401 -307 1348 c 0,21,22
 -359 1296 -359 1296 -453 1296 c 0,23,24
 -568 1296 -568 1296 -653 1349 c 0,25,26
 -740 1402 -740 1402 -778 1405 c 0,27,28
 -827 1408 -827 1408 -832 1370 c 0,29,30
 -835 1332 -835 1332 -832 1296 c 1,31,32
 -1093 1329 -1093 1329 -1095 1547 c 0,33,34
 -1097 1699 -1097 1699 -996 1759 c 128,-1,35
 -895 1819 -895 1819 -776 1817 c 0,36,37
 -736 1817 -736 1817 -678 1811 c 0,38,39
 -619.5 1805 -619.5 1805 -558 1805 c 0,40,41
 -309 1804 -309 1804 -273 1930 c 1,42,-1
 -171 1870 l 1,43,44
 -223 1689 -223 1689 -529 1687 c 0,45,46
 -586 1687 -586 1687 -659 1692 c 0,47,48
 -724 1698 -724 1698 -768 1698 c 0,49,50
 -859 1698 -859 1698 -912 1669 c 0,51,52
 -964 1640 -964 1640 -964 1548 c 0,0,1
-501 1474 m 128,-1,54
 -501 1446 -501 1446 -482 1427 c 128,-1,55
 -463 1408 -463 1408 -434 1408 c 0,56,57
 -406 1408 -406 1408 -387 1427 c 0,58,59
 -367 1447 -367 1447 -367 1474 c 128,-1,60
 -367 1501 -367 1501 -387 1521 c 128,-1,61
 -407 1541 -407 1541 -434 1541 c 0,62,63
 -462 1541 -462 1541 -482 1521 c 0,64,53
 -501 1502 -501 1502 -501 1474 c 128,-1,54
EndSplineSet
EndChar
StartChar: uni0E48
Encoding: 3656 3656 191
Width: 0
VWidth: 2045
Flags: W
VStem: -485 180<1812 2142>
AnchorPoint: "AboveMark" -391.93 1753.64 mark 0
Fore
-485 1812 m 17,0,-1
 -485 2142 l 1,1,-1
 -305 2142 l 1,2,-1
 -305 1812 l 1,3,-1
 -485 1812 l 17,0,-1
EndSplineSet
Substitution2: "Single Substitution lookup 5" uni0E48.low
MultipleSubs2: "Multiple Substitution lookup 4" uni0E4D uni0E48
EndChar
StartChar: uni0E49
Encoding: 3657 3657 192
Width: 0
VWidth: 2045
Flags: W
HStem: 2202 112<-565.299 -489.752>
VStem: -707 113<2098.75 2172.61> -460 113<2100.33 2170.38> -149 157<2108.3 2302>
AnchorPoint: "AboveMark" -236.754 1747.06 mark 0
Fore
-149 2302 m 1,0,-1
 8 2302 l 1,1,2
 11 2153 11 2153 -62 2031 c 0,3,4
 -134 1908 -134 1908 -259 1837 c 0,5,6
 -386 1764 -386 1764 -529 1764 c 2,7,-1
 -678 1764 l 1,8,-1
 -678 1918 l 1,9,-1
 -576 1974 l 1,10,11
 -629 1984 -629 1984 -656 2010 c 0,12,13
 -707 2064 -707 2064 -707 2137 c 0,14,15
 -707 2211 -707 2211 -655 2263 c 0,16,17
 -602 2314 -602 2314 -527 2314 c 128,-1,18
 -452 2314 -452 2314 -400 2263 c 0,19,20
 -347 2210 -347 2210 -347 2136 c 0,21,22
 -347 2049 -347 2049 -406 1992 c 2,23,-1
 -473 1920 l 1,24,25
 -350 1942 -350 1942 -249 2036 c 0,26,27
 -149 2130 -149 2130 -149 2302 c 1,0,-1
-594 2136 m 0,28,29
 -594 2108 -594 2108 -575 2089 c 0,30,31
 -555 2069 -555 2069 -527 2069 c 0,32,33
 -500 2069 -500 2069 -480 2089 c 128,-1,34
 -460 2109 -460 2109 -460 2136 c 0,35,36
 -460 2161 -460 2161 -480 2183 c 0,37,38
 -499 2202 -499 2202 -527 2202 c 0,39,40
 -556 2202 -556 2202 -575 2183 c 0,41,42
 -594 2163 -594 2163 -594 2136 c 0,28,29
EndSplineSet
Substitution2: "Single Substitution lookup 5" uni0E49.low
MultipleSubs2: "Multiple Substitution lookup 4" uni0E4D uni0E49
EndChar
StartChar: uni0E4A
Encoding: 3658 3658 193
Width: 0
VWidth: 2045
Flags: W
HStem: 1764 112<-771.4 -698.6> 2009 112<-770.669 -699.331> 2175 127<-746.25 -620.8 -465.3 -311.9>
VStem: -947 145<1908.2 2012> -668 113<1906.72 1978.4> -247 128<1957.78 2117.5> 14 128<2127.9 2254>
AnchorPoint: "AboveMark" -457.524 1734.18 mark 0
Fore
142 2254 m 17,0,1
 142 2120 142 2120 75 2008 c 0,2,3
 10 1897 10 1897 -104 1830 c 0,4,5
 -218 1764 -218 1764 -329 1764 c 1,6,-1
 -329 1891 l 1,7,8
 -324 1891 -324 1891 -285 1933 c 0,9,10
 -247 1974 -247 1974 -247 2033 c 0,11,12
 -247 2098 -247 2098 -285 2138 c 0,13,14
 -323 2176 -323 2176 -360 2175 c 0,15,16
 -441 2174 -441 2174 -471 2110 c 1,17,-1
 -572 2110 l 1,18,19
 -634 2175 -634 2175 -678 2175 c 0,20,21
 -730.5 2173.5 -730.5 2173.5 -771 2133 c 0,22,23
 -781 2125 -781 2125 -790 2113 c 1,24,25
 -761 2121 -761 2121 -735 2121 c 0,26,27
 -659 2121 -659 2121 -607 2069 c 128,-1,28
 -555 2017 -555 2017 -555 1942 c 0,29,30
 -555 1868 -555 1868 -607 1816 c 128,-1,31
 -659 1764 -659 1764 -735 1764 c 0,32,33
 -822 1764 -822 1764 -884 1830 c 0,34,35
 -947 1896 -947 1896 -947 2012 c 0,36,37
 -947 2146 -947 2146 -860 2224 c 128,-1,38
 -773 2302 -773 2302 -678 2302 c 0,39,40
 -574 2302 -574 2302 -520 2238 c 1,41,42
 -466 2303 -466 2303 -360 2302 c 0,43,44
 -272 2301 -272 2301 -194 2223 c 0,45,46
 -119 2145 -119 2145 -119 2033 c 0,47,48
 -119 1996 -119 1996 -127 1968 c 1,49,50
 -72 2010 -72 2010 -29 2083 c 0,51,52
 14 2157 14 2157 14 2254 c 1,53,-1
 142 2254 l 17,0,1
-802 1942 m 0,54,55
 -802 1916 -802 1916 -782 1896 c 0,56,57
 -763 1876 -763 1876 -735 1876 c 128,-1,58
 -707 1876 -707 1876 -688 1896 c 0,59,60
 -668 1915 -668 1915 -668 1942 c 0,61,62
 -668 1970 -668 1970 -688 1989 c 0,63,64
 -708 2009 -708 2009 -735 2009 c 128,-1,65
 -762 2009 -762 2009 -782 1989 c 128,-1,66
 -802 1969 -802 1969 -802 1942 c 0,54,55
EndSplineSet
Substitution2: "Single Substitution lookup 5" uni0E4A.low
MultipleSubs2: "Multiple Substitution lookup 4" uni0E4D uni0E4A
EndChar
StartChar: uni0E4B
Encoding: 3659 3659 194
Width: 0
VWidth: 2045
Flags: W
HStem: 1935 180<-598 -448 -267 -117>
VStem: -448 181<1785 1935 2115 2264>
AnchorPoint: "AboveMark" -387.384 1728.45 mark 0
Fore
-117 1935 m 1,0,-1
 -267 1935 l 1,1,-1
 -267 1785 l 1,2,-1
 -448 1785 l 1,3,-1
 -448 1935 l 1,4,-1
 -598 1935 l 1,5,-1
 -598 2115 l 1,6,-1
 -448 2115 l 1,7,-1
 -448 2264 l 1,8,-1
 -267 2264 l 1,9,-1
 -267 2115 l 1,10,-1
 -117 2115 l 1,11,-1
 -117 1935 l 1,0,-1
EndSplineSet
Substitution2: "Single Substitution lookup 5" uni0E4B.low
MultipleSubs2: "Multiple Substitution lookup 4" uni0E4D uni0E4B
EndChar
StartChar: uni0E4C
Encoding: 3660 3660 195
Width: 0
VWidth: 2045
Flags: W
HStem: 1806 133<-659.1 -562.9> 2096 154<-396 -15.2> 2118 134<-657.8 -564.2>
VStem: -835 134<1980.9 2077.1> -521 136<1980.9 2077.1>
AnchorPoint: "AboveMark" -387.384 1737.52 mark 0
Fore
-701 2029 m 128,-1,1
 -701 1992 -701 1992 -675 1966 c 0,2,3
 -648 1939 -648 1939 -611 1939 c 128,-1,4
 -574 1939 -574 1939 -547 1966 c 0,5,6
 -521 1992 -521 1992 -521 2029 c 128,-1,7
 -521 2066 -521 2066 -547 2092 c 0,8,9
 -575 2118 -575 2118 -611 2118 c 128,-1,10
 -647 2118 -647 2118 -675 2092 c 0,11,0
 -701 2066 -701 2066 -701 2029 c 128,-1,1
-140 2096 m 2,12,-1
 -396 2098 l 1,13,14
 -385 2063 -385 2063 -385 2030 c 0,15,16
 -385 1938 -385 1938 -452 1871 c 0,17,18
 -519 1806 -519 1806 -611 1806 c 128,-1,19
 -703 1806 -703 1806 -770 1871 c 0,20,21
 -835 1936 -835 1936 -835 2028 c 0,22,23
 -835 2122 -835 2122 -770 2186 c 0,24,25
 -704 2252 -704 2252 -610 2252 c 2,26,-1
 -140 2250 l 2,27,28
 -44 2250 -44 2250 0 2308 c 1,29,-1
 110 2199 l 1,30,31
 9 2096 9 2096 -140 2096 c 2,12,-1
EndSplineSet
Substitution2: "Single Substitution lookup 5" uni0E4C.low
MultipleSubs2: "Multiple Substitution lookup 4" uni0E4D uni0E4C
EndChar
StartChar: uni0E4D
Encoding: 3661 3661 196
Width: 0
VWidth: 2045
Flags: W
HStem: 1364 134<-447.4 -348.6> 1677 133<-447.4 -348.6>
VStem: -622 134<1538.9 1635.1> -308 134<1538.9 1635.1>
AnchorPoint: "AboveMark" -399.584 1878.25 basemark 0
AnchorPoint: "AboveBase" -277.712 1328.01 mark 0
Fore
-622 1587 m 0,0,1
 -622 1679 -622 1679 -556 1745 c 0,2,3
 -491 1810 -491 1810 -398 1810 c 0,4,5
 -306 1810 -306 1810 -239 1745 c 0,6,7
 -174 1678 -174 1678 -174 1587 c 0,8,9
 -174 1495 -174 1495 -239 1430 c 0,10,11
 -305 1364 -305 1364 -398 1364 c 0,12,13
 -492 1364 -492 1364 -556 1430 c 0,14,15
 -622 1494 -622 1494 -622 1587 c 0,0,1
-488 1587 m 128,-1,17
 -488 1550 -488 1550 -462 1524 c 128,-1,18
 -436 1498 -436 1498 -398 1498 c 128,-1,19
 -360 1498 -360 1498 -334 1524 c 128,-1,20
 -308 1550 -308 1550 -308 1587 c 128,-1,21
 -308 1624 -308 1624 -334 1650 c 0,22,23
 -360 1677 -360 1677 -398 1677 c 128,-1,24
 -436 1677 -436 1677 -462 1650 c 0,25,16
 -488 1624 -488 1624 -488 1587 c 128,-1,17
EndSplineSet
Substitution2: "Single Substitution lookup 3" uni0E4D.high
EndChar
StartChar: uni0E4E
Encoding: 3662 3662 197
Width: 0
VWidth: 2045
Flags: W
HStem: 1991 156<-263.8 -142.9>
VStem: -744 159<1549.9 1672.1>
AnchorPoint: "AboveBase" -139.855 1302.03 mark 0
Fore
-473 1344 m 17,0,1
 -585.5 1344 -585.5 1344 -665 1422 c 0,2,3
 -744 1500 -744 1500 -744 1611 c 128,-1,4
 -744 1722 -744 1722 -665 1800 c 0,5,6
 -586 1879 -586 1879 -473 1879 c 1,7,8
 -473 1990 -473 1990 -394 2069 c 0,9,10
 -314 2147 -314 2147 -204 2147 c 0,11,12
 -93 2147 -93 2147 -12 2069 c 0,13,14
 67 1991 67 1991 67 1879 c 1,15,-1
 -91 1879 l 1,16,17
 -91 1924 -91 1924 -124 1958 c 0,18,19
 -157 1991 -157 1991 -204 1991 c 0,20,21
 -250 1991 -250 1991 -283 1958 c 0,22,23
 -316 1924 -316 1924 -316 1879 c 0,24,25
 -316 1835 -316 1835 -284 1800 c 1,26,-1
 -284 1689 l 1,27,-1
 -393 1689 l 1,28,29
 -428 1722 -428 1722 -473 1722 c 0,30,31
 -520 1722 -520 1722 -553 1689 c 0,32,33
 -585 1658 -585 1658 -585 1611 c 128,-1,34
 -585 1564 -585 1564 -553 1532 c 0,35,36
 -519 1500 -519 1500 -473 1500 c 1,37,-1
 -473 1344 l 17,0,1
EndSplineSet
EndChar
StartChar: uni0E4F
Encoding: 3663 3663 198
Width: 1571
VWidth: 2045
Flags: W
HStem: -23 133<677.4 889.3> 245 133<713.8 855.5> 646 133<713.8 855.5> 914 133<677.4 889.3>
VStem: 244 134<408 617.3> 514 136<439.2 584.8> 918 136<439.2 584.8> 1189 134<408 617.3>
Fore
244 512 m 128,-1,1
 244 657 244 657 316 780 c 0,2,3
 390 904 390 904 513 975 c 0,4,5
 638 1047 638 1047 784 1047 c 0,6,7
 929.5 1047 929.5 1047 1054 975 c 0,8,9
 1179 903 1179 903 1251 780 c 128,-1,10
 1323 657 1323 657 1323 512 c 128,-1,11
 1323 367 1323 367 1251 244 c 128,-1,12
 1179 121 1179 121 1054 49 c 0,13,14
 929.5 -23 929.5 -23 784 -23 c 0,15,16
 638 -23 638 -23 513 49 c 0,17,18
 390 120 390 120 316 244 c 0,19,0
 244 367 244 367 244 512 c 128,-1,1
378 512 m 0,20,21
 378 432 378 432 410 356 c 0,22,23
 441.5 281 441.5 281 497 227 c 0,24,25
 555 172 555 172 627 142 c 0,26,27
 702 110 702 110 784 110 c 0,28,29
 865 110 865 110 941 142 c 0,30,31
 1015 174 1015 174 1070 227 c 0,32,33
 1125.5 281 1125.5 281 1157 356 c 0,34,35
 1189 432 1189 432 1189 512 c 0,36,37
 1189 593 1189 593 1157 668 c 0,38,39
 1125.5 743 1125.5 743 1070 797 c 0,40,41
 1015 850 1015 850 941 882 c 0,42,43
 865 914 865 914 784 914 c 0,44,45
 702 914 702 914 627 882 c 0,46,47
 555 852 555 852 497 797 c 0,48,49
 441.5 743 441.5 743 410 668 c 0,50,51
 378 593 378 593 378 512 c 0,20,21
514 512 m 0,52,53
 514 622 514 622 592 701 c 0,54,55
 672 779 672 779 784 779 c 0,56,57
 897 779 897 779 975 701 c 0,58,59
 1054 620 1054 620 1054 512 c 128,-1,60
 1054 404 1054 404 975 323 c 0,61,62
 897 245 897 245 784 245 c 0,63,64
 672 245 672 245 592 323 c 0,65,66
 514 402.5 514 402.5 514 512 c 0,52,53
650 512 m 128,-1,68
 650 456 650 456 689 417 c 0,69,70
 730 378 730 378 784 378 c 0,71,72
 839 378 839 378 878 417 c 0,73,74
 918 456 918 456 918 512 c 128,-1,75
 918 568 918 568 878 607 c 0,76,77
 839 646 839 646 784 646 c 0,78,79
 730 646 730 646 689 607 c 0,80,67
 650 568 650 568 650 512 c 128,-1,68
EndSplineSet
EndChar
StartChar: uni0E50
Encoding: 3664 3664 199
Width: 1326
VWidth: 2045
Flags: W
HStem: 0 157<471.9 854.1> 737 157<471.9 854.1>
VStem: 123 180<291 601.7> 1023 180<289.7 604.3>
Fore
303 447 m 128,-1,1
 303 327 303 327 409 242 c 128,-1,2
 515 157 515 157 663 157 c 128,-1,3
 811 157 811 157 917 242 c 0,4,5
 1023 326 1023 326 1023 447 c 128,-1,6
 1023 568 1023 568 917 652 c 0,7,8
 811 737 811 737 663 737 c 128,-1,9
 515 737 515 737 409 652 c 128,-1,0
 303 567 303 567 303 447 c 128,-1,1
123 447 m 0,10,11
 123 566 123 566 196 671 c 0,12,13
 267 772 267 772 393 834 c 0,14,15
 516 894 516 894 663 894 c 128,-1,16
 810 894 810 894 934 834 c 0,17,18
 1058 773 1058 773 1130 671 c 0,19,20
 1203 568 1203 568 1203 447 c 0,21,22
 1203 325 1203 325 1130 224 c 0,23,24
 1059 122 1059 122 934 60 c 0,25,26
 810 0 810 0 663 0 c 128,-1,27
 516 0 516 0 393 60 c 0,28,29
 267 122 267 122 196 224 c 0,30,31
 123 327 123 327 123 447 c 0,10,11
EndSplineSet
EndChar
StartChar: uni0E51
Encoding: 3665 3665 200
Width: 1361
VWidth: 2045
Flags: W
HStem: 0 190<509 685.1> 369 134<591.5 683.8> 719 175<488.6 848.7>
VStem: 137 180<288.1 575.2> 412 136<230.6 329.4> 727 136<231.9 328.1> 1024 180<176.8 555.693>
Fore
462 160 m 5,0,1
 412 209 412 209 412 281 c 0,2,3
 412 371 412 371 478 437 c 128,-1,4
 544 503 544 503 637 503 c 128,-1,5
 730 503 730 503 797 437 c 0,6,7
 863 371 863 371 863 281 c 0,8,9
 862 153 862 153 746 60 c 0,10,11
 665 0 665 0 509 0 c 0,12,13
 413 0 413 0 328 50 c 0,14,15
 244 100 244 100 190 195 c 128,-1,16
 136 290 136 290 137 414 c 0,17,18
 137 538 137 538 215 656 c 0,19,20
 293 773 293 773 412 834 c 0,21,22
 530 894 530 894 668 894 c 0,23,24
 807 894 807 894 919 835 c 0,25,26
 1033 777 1033 777 1119 660 c 0,27,28
 1204 545 1204 545 1204 364 c 0,29,30
 1204 189 1204 189 1109 63 c 0,31,32
 1013 -65 1013 -65 875 -133 c 1,33,-1
 776 15 l 1,34,35
 878 61 878 61 950 142 c 0,36,37
 1019 220 1019 220 1024 364 c 0,38,39
 1031 532 1031 532 932 625 c 0,40,41
 832 719 832 719 669 719 c 0,42,43
 515 719 515 719 415 636 c 0,44,45
 317 553 317 553 317 409 c 0,46,47
 317 316 317 316 358 246 c 0,48,49
 401 178 401 178 462 160 c 5,0,1
548 280 m 132,-1,51
 548 242 548 242 574 217 c 0,52,53
 601 190 601 190 637 190 c 0,54,55
 674 190 674 190 701 217 c 0,56,57
 727 243 727 243 727 280 c 128,-1,58
 727 317 727 317 701 343 c 0,59,60
 673 369 673 369 637 369 c 0,61,62
 602 369 602 369 574 343 c 0,63,50
 548 318 548 318 548 280 c 132,-1,51
EndSplineSet
EndChar
StartChar: uni0E52
Encoding: 3666 3666 201
Width: 1454
VWidth: 2045
Flags: W
HStem: 0 177<292 1058.1> 239 133<542.3 643.7> 550 134<573 642.4> 719 175<590 838.1 950.1 1183.85>
VStem: 114 178<177 1153.8> 358 145<415.5 533> 683 134<415.5 509.1> 1154 181<291.7 800>
Fore
997 0 m 2,0,-1
 114 0 l 1,1,-1
 114 1094 l 2,2,3
 114 1140 114 1140 82 1174 c 0,4,5
 50 1205 50 1205 2 1205 c 1,6,-1
 2 1384 l 1,7,8
 149 1384 149 1384 221 1295 c 0,9,10
 292 1208 292 1208 292 1094 c 2,11,-1
 292 177 l 1,12,-1
 945 177 l 2,13,14
 1032 177 1032 177 1093 252 c 0,15,16
 1154 328 1154 328 1154 449 c 0,17,18
 1155.5 719 1155.5 719 1061 719 c 0,19,20
 963 719 963 719 942 603 c 1,21,-1
 849 603 l 1,22,23
 822 718 822 718 681 719 c 0,24,25
 611 719 611 719 573 684 c 1,26,-1
 593 684 l 2,27,28
 685 684 685 684 752 619 c 0,29,30
 817 552 817 552 817 461 c 0,31,32
 817 369 817 369 752 304 c 128,-1,33
 687 239 687 239 593 239 c 0,34,35
 503 239 503 239 431 307 c 0,36,37
 358 375 358 375 358 533 c 0,38,39
 358 695 358 695 458 795 c 0,40,41
 558.5 894 558.5 894 686 894 c 0,42,43
 803 894 803 894 887 794 c 1,44,45
 975 894 975 894 1058 894 c 0,46,47
 1334 894 1334 894 1335 453 c 0,48,49
 1335 215 1335 215 1230 107 c 0,50,51
 1126 0 1126 0 997 0 c 2,0,-1
503 461 m 0,52,53
 503 426 503 426 529 398 c 0,54,55
 554 372 554 372 593 372 c 128,-1,56
 632 372 632 372 657 398 c 0,57,58
 683 426 683 426 683 461 c 0,59,60
 683 498 683 498 657 524 c 128,-1,61
 631 550 631 550 593 550 c 128,-1,62
 555 550 555 550 529 524 c 128,-1,63
 503 498 503 498 503 461 c 0,52,53
114 0 m 1,64,-1
EndSplineSet
EndChar
